<mxfile host="app.diagrams.net" modified="2023-07-06T02:33:24.715Z" agent="Mozilla/5.0 (Windows NT 10.0; Win64; x64) AppleWebKit/537.36 (KHTML, like Gecko) Chrome/114.0.0.0 Safari/537.36 Edg/114.0.1823.67" etag="l7xUwk1dofPBCKGayuWI" version="21.5.2" type="device" pages="4">
  <diagram name="Administrador" id="1XlW28yviPxkS2rbSjuB">
    <mxGraphModel dx="2901" dy="1957" grid="1" gridSize="10" guides="1" tooltips="1" connect="1" arrows="1" fold="1" page="1" pageScale="1" pageWidth="827" pageHeight="1169" math="0" shadow="0">
      <root>
        <mxCell id="0" />
        <mxCell id="1" parent="0" />
        <mxCell id="-O1Edbo4hu1XX2OV_RFJ-21" style="edgeStyle=orthogonalEdgeStyle;rounded=0;orthogonalLoop=1;jettySize=auto;html=1;exitX=0.5;exitY=1;exitDx=0;exitDy=0;entryX=0.5;entryY=0;entryDx=0;entryDy=0;" parent="1" source="-O1Edbo4hu1XX2OV_RFJ-22" target="-O1Edbo4hu1XX2OV_RFJ-30" edge="1">
          <mxGeometry relative="1" as="geometry" />
        </mxCell>
        <mxCell id="-O1Edbo4hu1XX2OV_RFJ-22" value="Administrador" style="rounded=1;whiteSpace=wrap;html=1;rotation=-90;" parent="1" vertex="1">
          <mxGeometry x="-80" y="250" width="120" height="60" as="geometry" />
        </mxCell>
        <mxCell id="-O1Edbo4hu1XX2OV_RFJ-23" value="CRUD Categoria" style="rounded=1;whiteSpace=wrap;html=1;" parent="1" vertex="1">
          <mxGeometry x="230" y="-70" width="120" height="70" as="geometry" />
        </mxCell>
        <mxCell id="-O1Edbo4hu1XX2OV_RFJ-24" value="CRUD Produto" style="rounded=1;whiteSpace=wrap;html=1;" parent="1" vertex="1">
          <mxGeometry x="230" y="90" width="120" height="70" as="geometry" />
        </mxCell>
        <mxCell id="-O1Edbo4hu1XX2OV_RFJ-25" value="Gerenciar Pedidos" style="rounded=1;whiteSpace=wrap;html=1;" parent="1" vertex="1">
          <mxGeometry x="230" y="290" width="120" height="70" as="geometry" />
        </mxCell>
        <mxCell id="-O1Edbo4hu1XX2OV_RFJ-26" style="edgeStyle=orthogonalEdgeStyle;rounded=0;orthogonalLoop=1;jettySize=auto;html=1;exitX=0.5;exitY=1;exitDx=0;exitDy=0;entryX=0;entryY=0.5;entryDx=0;entryDy=0;" parent="1" source="-O1Edbo4hu1XX2OV_RFJ-30" target="-O1Edbo4hu1XX2OV_RFJ-23" edge="1">
          <mxGeometry relative="1" as="geometry">
            <Array as="points">
              <mxPoint x="170" y="280" />
              <mxPoint x="170" y="-35" />
            </Array>
          </mxGeometry>
        </mxCell>
        <mxCell id="-O1Edbo4hu1XX2OV_RFJ-27" style="edgeStyle=orthogonalEdgeStyle;rounded=0;orthogonalLoop=1;jettySize=auto;html=1;exitX=0.5;exitY=1;exitDx=0;exitDy=0;entryX=0;entryY=0.5;entryDx=0;entryDy=0;" parent="1" source="-O1Edbo4hu1XX2OV_RFJ-30" target="-O1Edbo4hu1XX2OV_RFJ-24" edge="1">
          <mxGeometry relative="1" as="geometry">
            <Array as="points">
              <mxPoint x="170" y="280" />
              <mxPoint x="170" y="125" />
            </Array>
          </mxGeometry>
        </mxCell>
        <mxCell id="-O1Edbo4hu1XX2OV_RFJ-28" style="edgeStyle=orthogonalEdgeStyle;rounded=0;orthogonalLoop=1;jettySize=auto;html=1;exitX=0.5;exitY=1;exitDx=0;exitDy=0;" parent="1" source="-O1Edbo4hu1XX2OV_RFJ-30" target="-O1Edbo4hu1XX2OV_RFJ-25" edge="1">
          <mxGeometry relative="1" as="geometry">
            <Array as="points">
              <mxPoint x="170" y="280" />
              <mxPoint x="170" y="325" />
            </Array>
          </mxGeometry>
        </mxCell>
        <mxCell id="k1EVpdnU8TCxOfF34a-t-3" style="edgeStyle=orthogonalEdgeStyle;rounded=0;orthogonalLoop=1;jettySize=auto;html=1;exitX=0.5;exitY=1;exitDx=0;exitDy=0;entryX=0;entryY=0.5;entryDx=0;entryDy=0;" parent="1" source="-O1Edbo4hu1XX2OV_RFJ-30" target="k1EVpdnU8TCxOfF34a-t-2" edge="1">
          <mxGeometry relative="1" as="geometry">
            <Array as="points">
              <mxPoint x="170" y="280" />
              <mxPoint x="170" y="435" />
            </Array>
          </mxGeometry>
        </mxCell>
        <mxCell id="-O1Edbo4hu1XX2OV_RFJ-30" value="Front-end" style="rounded=1;whiteSpace=wrap;html=1;rotation=-90;" parent="1" vertex="1">
          <mxGeometry x="50" y="250" width="120" height="60" as="geometry" />
        </mxCell>
        <mxCell id="-O1Edbo4hu1XX2OV_RFJ-33" value="1" style="text;html=1;strokeColor=none;fillColor=none;align=center;verticalAlign=middle;whiteSpace=wrap;rounded=0;fontSize=15;fontStyle=1" parent="1" vertex="1">
          <mxGeometry x="180" y="-70" width="30" height="30" as="geometry" />
        </mxCell>
        <mxCell id="-O1Edbo4hu1XX2OV_RFJ-34" value="2" style="text;html=1;strokeColor=none;fillColor=none;align=center;verticalAlign=middle;whiteSpace=wrap;rounded=0;fontSize=15;fontStyle=1" parent="1" vertex="1">
          <mxGeometry x="180" y="90" width="30" height="30" as="geometry" />
        </mxCell>
        <mxCell id="-O1Edbo4hu1XX2OV_RFJ-35" value="3" style="text;html=1;strokeColor=none;fillColor=none;align=center;verticalAlign=middle;whiteSpace=wrap;rounded=0;fontSize=15;fontStyle=1" parent="1" vertex="1">
          <mxGeometry x="180" y="290" width="30" height="30" as="geometry" />
        </mxCell>
        <mxCell id="k1EVpdnU8TCxOfF34a-t-2" value="Gerenciar Clientes" style="rounded=1;whiteSpace=wrap;html=1;" parent="1" vertex="1">
          <mxGeometry x="230" y="400" width="120" height="70" as="geometry" />
        </mxCell>
        <mxCell id="k1EVpdnU8TCxOfF34a-t-4" value="4" style="text;html=1;strokeColor=none;fillColor=none;align=center;verticalAlign=middle;whiteSpace=wrap;rounded=0;fontSize=15;fontStyle=1" parent="1" vertex="1">
          <mxGeometry x="180" y="400" width="30" height="30" as="geometry" />
        </mxCell>
        <mxCell id="71Q63tBEPb4N5u0GWB7H-3" value="" style="shape=image;verticalLabelPosition=bottom;labelBackgroundColor=default;verticalAlign=top;aspect=fixed;imageAspect=0;image=data:image/png,iVBORw0KGgoAAAANSUhEUgAAAfIAAAD9CAIAAADI0mLmAAAACXBIWXMAAA7EAAAOxAGVKw4bAAAgAElEQVR4nOzde1wUVf8H8A8sM4pDsEvCKrAJqIAKKIghKMKjkIKpZGRFmgZ5R4swyzLvRZFEouKlMHw0MjUVDNRAYkNBElDBdEG5+IDoArELMaAzLPz+4K4iaiDC77xfvl7F7pmz31lmPzNz5uygVl9fD4IgCKK3UO/uAgiCIIjORGKdIAiiVyGxThAE0auQWCcIguhVSKwTBEH0KiTWCYIgehUS6wRBEL0KiXWCIIhehcQ6QRBEr6Jxz89nk9O6pQ6CIAiiU6iRmwcQBEH0JvcerTcgWU8QBNFD3Rvr9W11S00EQRDEE2sT6/X19XV1dbW1tbW1tSqVqq6urrvKIgiCIJ5MS6w3ZDrHcRv/SQuvvlqiqunGsgiCIIgn0ybWa2trN/6TllZbdnTANGMN7W4siyAIgngyjbHeMJJeW1sbXn2VZDpBEETP1fJ1pPr6epVKVaKqIZlOEATRc7WJdXKNlCAIoqd78Lz1Zhfuln5SfjaTK3s61XQia7r/F7rjbProdXchBEEQT1UH94TpoZkOIJMr+6T8bHdXQRAE8bR1EOs9NNMb9OjiCYIgngy5gyNBEESvQmKdIAiiVyGxThAE0auQWO8yNdXK8mpe9Yiteba8QlnFd2lFj4ivqFCWV3d3FQRBPCES613l8u6VC2at/O/FR2tdLg1+02/BOqmya4t6FMXHA/wWzP4u9VF3SP9v8fmx32945wO/uR/4zV0f+st19rF7KL1w5sYzsSd/sGe8PKJdJNaBm7GrPfx2/vloG3CFdMPkObPej+3O/P3z+wWuc/y2Xe/+TjrAX9js99b7sSVPtvTTqPDJKRPCgqOoacHfbNv7zbbNnsyJb8Olj3mKU37pZHwB1zXldYJnvDyifR18HemxqY+IMXb1UGv8SVl7K1bxu29l6R1AqGm7WXfkq7S2UO3ube7Wj8qk1VXld4C+lPlmvRdf7aM7QE2lVJUnVCb5KrH5hZm+95R2J2ngzYzbnVwuAP7y4fh8Y7fFL1Kd26/le9sOvvfIrXVd15xy7dwCnpTBzO/3zeyUnm5Lj0th/5GLfqf09mwpTYq+YbNgiY0uAEBvpG/w56xWP5zZ4X+KMlGW6i9c9SoduyMsuQQUr2E8c8Vc+wHVOfvD/pvMAjyGeK74YFDG9tjLWVRouHCFF3V886GMfwCOsZy35I0X+zW/jPLMT6GRf3EC8P1GzfnEy1Kn6YkqaWDAFRMrlMhLbv5jNmfTm5ZaFanbwo5nc1BB5PLWcoe/1m9jVnzlKrwdu3r+efuda6cZViR88q1ywdqZxgAAVemZLWHHrwNg7BcsmTkK7Zbna5zRuudZQ6hCaeim2JLnhPrDDJR/MnPCvPSvRu0MO6+gm1ZWUxq48qK+vlJpMQbxxZN3vWtJAzk/fRSut+orV+FT/U39f9TZsQ4VgDsVSW/dvg11rYkD/7O0v2v+3Z9W48XYAQ42/PXt/zudoRJNHDA2QH/mQES+VQXf512XUkWfX4/6hdPyMPLYJHLJr/kp+PpPR+oh1HX7UawV+7/j29laqP2j7OTgBQCUJx+PZ2393QwBAOyfh3dGJF8uVLIchJLhExfMf+NFHQAlcd+Hfpecz+nZew1vPH5RpYVO23LTaiR3vYAZN84oOzFJrjfls7VzRlPsyc3vbL4EANCZ/NU239EN7a+Evxl4SjBy4vDS1JRSGDj6bnp3/ABAdX2fz/rjNwEAo+bu3ty00atKU3d/fyD+2s0qMDp6JtPnr5o9hKqQbpj1/eWG4ZFj62cdA7QcV/2y2EaAkl/W++24buYxQz87MbWggjbwWPX9m2alaeEhhy5cLy2pAqNrYPPKPN9ZQ5j2O7nw1cLAuGoAoO0Cjr9nLwDAX/7Gf0MsJm/e5jsKqJAGvvn9BWOvbWEz9GtuJOyIOPLHjRKO0jcbM3PZ3ImD2/yGco7GZotdNjk0hVTVjYTdkUfOXiupofQlwycHLJlmRuH241XIFyYf2BaVkFXMCXRMHDzeXuphpgNwxQkhYQekxbzBmImmBccTSu0/2RUwkUKrCg1Huby9/E2bAQ2V/eS/LLZklOur9JXj6cUcPeSNbz8UhfuFpginbf1mzjCgJi30zS1nNF3X7J1rST9os1EV35QbmJm3Wl8dHQaAAOz/qIk7V1lqFh9Zdsn8403LDcEmbFm9/5Ktv56Cdly81dFQUHp82ZaEgk0zvcYc5wyW+47M37Y6f8KHm9x0UBq/YVVU/ug3TQQNnfKKGp1pazbZDEDOjo8O/O5m6dmc6xSKS5g1a5cb8qlffJRw0csckUc4j01bR1KqG0eWRZwc+5a5Mi67xtXyyg1mOJ2fXQ29azl/m02UNC7Pnjn8y52pm8LsmILY0CMXlVbG7ZWHMzva9DzuE6Ofo9gZazd56JT8EviRaigtKD619bzhyk0Bg6E8uXn13ku2S4HiUtGqTb7G1ak31p9J5y0dqPykv/T/8wnJ9Keg02MdAO7U/R1b9787dfWxZUN9tYxtNGiPftYOamWf5x5bXa8GtbrIXKVouKe3zohN1dcHqmmg7m6+oOoCVX7hxnfh3N3b2n2hdusqMEB1F+h7q744Vk0FNXVArePXfkz5R2Mv93fZ5NwYPcrca0XPDZ88b6g+riXskx7ZfMhy/7uWFfE7Q6Q50LNxHcrGSXNaDToX/aM3bXjBkdhE+lUX81OxCb9fmTN6JGPlsXzFmPz4yOP3D6yXXisRe8+ZHBd+XHrgsMt4vyEQGIz3edew7Mrx3ck3WzXkz0Tu/OUKM/7N5f8RcvJrF/5hAUBz+Ez/d8fnJ4b/cp0e7THnPwagDZsiAABy4pMZT0/fV6DMBwWg7FrO33o2r7iZ6HKXDx0+E/6d/qiv3jButxOTqXMXWZVe2Hc4taK5S8p8/ChhrPRy+g2MGsRfvJjDwcRxjD6qUzd/vVPKm7jN8H1BmXQ4fudqiL5710arabmK5OOnWMtFbk3lVZzZ/MXOM9XCUc4zLYVswV83b/Awox6vwpor/12941Spgf2rb5qprpz65afAGiZkozN7MGxn3A3GzHGiuTIpthhoSNvq1NCvd8ZVGzq4zRTlJJyK3bya2rTLq/nt4tOlSc4ebyzXw81SRtDPxnUMk5Kcmnh9zrAhfPr5C1XQnzzuwZne1AHuv/wgAEyGmmsCVQXZBTeVX69PAqCqhrBUIRgqElz572fJNA1FWbV5FdBYSWl2dml+1rerYwDwrMqwpAYmjW8jJdLhj4duTqAprojlJrFAc6yD1jU2HwCAEmmDr0FRfkHJpZvr3z8GgK+ptiwdZDm05HIBz1xhzT2G52cV8AOvFQ0d3rz6JdkFInNvBoCxx/IPAFS3Ux6KrrTt+bYSRf3MvXQA6I8dafhbNaoK8lnjycYAIBwxVBhdUAI9WsfYTAKgn63r0CO/X+Jf1LuQpWf/esuJCNF1uiTWoUb37dMH6rpv6Q7sW6+8ekfLRpsBJ0vQoBq3FboooRozmf429ak/ll73fcH8e9Mhm/ji5Du3Yiszwu/ebdymGmJcXYCuOE4HUJV2PLbUfJ5H87Zu6Lki5E0KKp7nxtAXk3P+LMiXw1x2MZuD/rR3V703nL9I+a+Ibx4s1h/lMsWo+MifnM3LzsiKzS5nWYAxHD7eEMLsQw+IdZ1R03ydbYqVp2JvFMlLeAyh0M/E2dmknD/TNtY5jucAqqqCFZjZeDhObPic03qWU5zx57UDv1ynJWMmThlyT/f605asWtDqQTOvTd9TFMBzvGXN+TM7rudfr4ZZu50ILR0nWhYrj7SOdVBWYyx1pGfS/yrxHVSSfo0VGNiPN0CFNCGlAhIP3/luhgLepPrK6p/OJ12cazO+8Vd183hshpbj2olNMVR6PiGlGhKPVV81HIp6PUGFfLr0zE0Ip7zm6zWcwijkXNqXnpxRMZxNvgHBkDfWLJ48gDdj/YITeACounhGWgHJjOXrvEwEvMkdv+CE5DNXvUwsm9+cGas+m9EyQNTf0V43OeHs+ZwFg9g/LrICg8mT7n17WwgMTMQ3c67wEx2aNs2b1y8LBlmCommaAiAArTnijeDFNs073as/BZ4WLv/2XRO6OuGj1Tfb9Ca0f3/tnGH3vQp36UDoFfPNqyYPwM39q3e0W00jw6nvbZrVchMktpQ5mXWFKdYz8x2qiL92OatANHJGm09SqwMCXI3a0V559/Zcejyio1IACKiGfSI12sUyIi4jx+DywHGrtDpYiOgUXRLrQqGHouFcq/5Oyq3Tm7j6pQCgBg2g4c+jqmlADUA9oH616vCwS4Ne1TVx0JZM1H5x5nNDbG5F+tU8jXkYJbExqbTjKtfmIyA+P/778J/P59xuunwq4FkOLMvygP4gQwDUC4b6ArRcAxSAUqcADuoUBOBVHV131ezHAFCnOtxPMc7evpeUBxJiwy/GQqBjOWtJgO9wpqOl9Ae2ubUZmxO7c2tcRkFF8zxLnnv8qQ2aw+1H9ztz5tLlUrOblypg4GIjAQqVShVQGLt6VmxzQ2VZdePhZM2l49HFJq+/Z9Z8tKtQKgBq0CAjQZu+H6tCVqFkAZzcsuBk00MCpfLvCpYFNPX19QBQRgZCoBQAKpQKFaiBevqClsdL/uabjuVB6RuK2qzmyInj9BKOn09NH8qmV0Pi5mT2kDdFz3760OO796a+MNfekEJpWviGSH7Oppaje01jk/5RGRd5m9EUezH2ePmYN7RY/vnh+jRw83xqPvRrAbphzFLPfAgfnnoDwwahPO1ILDV59sjGXzTHstDT1wW4GxlppbzdQ+qB0XBj5fFLJbNc9VWlZ8LP68/xMLMajtDYbB3nyZrGSjrqZDpsV7QcLOubG5f8/hfr6cgUxgaH03M82ivv/p7d9AdWn7lWDeN+Jecv3VQNhZaxiXZsTgEsB0OZdY0d4qaPVtOCBEPGv/hjeJjSZI5HFx2eEffomkGYit9fvVl0p46/dafkKk2DoS/UVEF3kEef5IQ7KgAQGE/UxJ0a+QW1fja65ia1ueEVheF/q/pSLhkjHDz66vetuXWnKyprrebK8aM3TKbPt9RseqRcum9Hcg49ZNoKT5sBVE7E5gNXAYBhGApQ/K0EdBri6WmgDSau2DTRv7rk6vkj3+5NOHgoYeraaQ1DwwIAePAUhTahWXzq28OpBTo28xZPsRRyZyKDj924p+WjzXOgLMcNZxIuXYg5X3Ibhq+OMREAIiEjACSuyxeMETa9KPNC4w6y5NSxJIxZMbnVPkYkFAE3b9woUjm2GjV6vAoZkZABmIlzfScbNAUErT+w3xkGuF1SUg7o8UXFTXOUdIQiAXJulZaoYCJoeFwofJ5q3f89KWPmPsYwNjZp9yG+AiZejoYPfVOEE5cE3Inct/qjfTzQV8/+9RVvj++HP5ufN5j2vnPot+tX76OgYTxthR50XCZGfrdhRbK+8ZiJr+jsCz+cs2Go+c3IDd9Qq3zftf/qu4/epygVYzlnfsvOW2vUxLGx/10WeNLIeOJ0F+zde8ph1eTBD66HGu8952JY8JKzDMC4vLVIExgwwuT24cuj32XQz2QIu+P0qLd1W72Z473eSA/bsDAWAqH9giX65sbtlvfBPT1TJq+7Jmxavzpez2iYniFNAQaTlznu/Hb9hj7gBGZvrxhJIbl1bSYuI/jfWafRJNWfki4aW69MUC+9I1BDX02oAVDF/p2WInRZqv8yKmQZdToTtW1nCpTh8otX1U1/1JviXV/weZ9LCbUaw/oNGqhWm1Gj7PJMB5S/RyVwI5d7GNz7hKa+iZWxkeLs8cLGw0Zq1Chz+tLlU5EHDB3xe9zNDk4kqvPPnM+vws1CHsDNP6UJpWBMx9i382nEzStnsko59poCQOm1pFiKUdezdBuun/5T4O+U7UgDIc0DgICmm9NQKGQEuHk+5sjxUULG0HbikHYvQwkAAaNvNtREr/jkleI2T93fSU3xBek1RZ0ynwVUpZdPSVl1ymi0o5kemNFjLDXTMn6J46E3zWkQAOiMmvhiv8spySf/YOyH9OP/Ls2/WGq2crgJAO76qaM3jDzm2bQ+49YbM/7FQ5dTYoM/YsePErLXL7LjPlnu9pgVjna0H5Cc8GdiktjRXMgrbhXnFOi98ZWXzYsGB3KuH/j8e4W58oy0uvF4XGvU+PE6qQmxoRt5e+2CBGk1jN0m3j/Q0ZqZs5Mk9kBBMQRDxk+4b8O4F2XiMXeNR9vHXnx324tNT5t5BIS1fnrIzG+/appi5Gz/JgCY7W08Ap/5xaYHzT7qZ+O3yabpB/uJrZ7RcgzY69hYtd83AQCgY++3yr710oJBb+zd0/C/hm9u+vHNtn0L9MZ/sHb8o5V3T8+sSn/iqrX2Zv34i3tX5gqFADPMI2Br65VtKQ/AzT+vUW5zzdqeqBFdp4vG1tVA3fM7PO8h4ze/MMb3+SkBuJtfk//5NekmVT2o7KXX+8BozFK9GZ+q1Sr5v5OLj/pVVKNP518dbUN14+Sha/qT19rrtHpQ13nOgms7I8+H+pwXDh5jLqZQBQDQc/VdXhD6XfKR7aU2HqPMLibnPKzn0tTvvj/SNDZ5+ZfvLwP6s4zbi3X+SuyOzZcadyA3k/d9kwx65PLxw/WFOvSN+F/OKJUcGL1B4xd4T2w+9h3s/IbHX/t+v3RgSxq0HFc5D7F58AfGYPJir/wtsQmffXBGb4iNiR7QKjfv76Ti4i8hPzVdEL5x6pvvgX4Tv3A00wO0RtmPolJTeAwYad84NKEzfsUn3O7I42dj98WB0REaDnc20QYApfRYQsVw3+mD2hajM/GjD/mdPx4/k3zkCoQGw6cZUY9doeZI38DFzI6opGM/nVFRjK6B2bgxQgH0X1/iWxx24Iz0lGKkvYNewpmGA/Z+9v4fLqIjjpyJO8JRhqM9fJd7mXSQLAbjXxpyYPd1ymqc08OP1f9/Y2hlatD644J+PIRT3nd82Nig6sbxz8IS4Lz8sw53k0SnUauvr0fT36dmWVb0996bg95tftrwxveP2SGP0mr0ZfDcfTuMWh5Vd8HXAWqgNNCvL2g1AKjlUMWBr0M9IBCgbx8wTcvWVOOfOoi0nviSaet1aY1N2OIXUj1nz6qJ5M9sdC7VjSML1yeM+iTEb0i3nHLnbPFbfZyf+MWuRS923Ph+7MnNCzZfsfwgZJWHTsetCeKZ1OlH6xT02vk8aFAQPuiTrkFD2M48Ms1+0HzwM/+SEsbTlo9yIpne6SpYxsVr0eSnm+kFUYHBBfqjjfVVBQnxFdAaaWn+2H3whZdSL15L/fkSr+M4cQLJdKIH65pBmGee4cQZnfNFSuIeusMnzx7+tF+U0RNxcWcOprEqSigZOdN3/vjHj2VFyqHQ3TconUGT/b3tyTw8oifr9EGYZ0t7gzAEQRC9FbnVF0EQRK9CYp0gCKJXIbFOEATRq3QQ69Z0/6dTR1fo0cUTBEE8mQ5i/QvdcT00HK3p/l/ojuvuKgiCIJ62DiY42vTROzHQ8+mUQhAEQfx7LUframpq6upkqJ0gCKJnaxPrAoFAX6BZUFvZjQURBEEQ/0ZjrKupqampqWloaPj2G7au/BxJdoIgiB6q8VumAOrr6+vq6jiO2/hPWnj11RJVTfdWRhAEQTyBllhHU7LX1tbW1taqVKq6urpurIwgCIJ4Am1iHUB9W91VFkEQBPFk7o31BiTQCYIgeqgHxzpBEATRQ5GJ6gRBEL0KiXWCIIhehcQ6QRBEr0JinSAIolchsU4QBNGrPPgOjmR6DEEQRA91b6yTryMRBEH0aG1indw8gCAIoqd7wK2+DmVT8QUaFXe7tzCCIAjiSbTEel1dHc/zP18V5FZovDkC+kz3FkYQBEE8icaZMA0j6bW1tfEFJNMJgiB6sJYJjvX19SqVquIuyXSCIIgerE2sk2ukBEEQPd2D5603y1NgXxYKlE+nmM5kLMQcK5iKursOgiCIp6uDb5n20EwHUKDEvqzuLoIgCOKp6yDWe2imN+jRxRMEQTwZck8YgiCIXoXEOkEQRK9CYr3L1LAKBcupHrE1zyqUCpbv0ooeEVepVCjY7q6CIIgnRGK9q2SGL5vrveyHS4/WWhEfOMdn7sZ4RdcW9SiKjn3kM3fe9pRH3SERBPFsIbEOFEevnOGzNe3RjpQr41e/PHP6iujuzN+0sLnuM+fvyO7+TjrAp4X4eK2Ilj/Z0k+jwieX8tWcwKRWP1fGB/pH5t2/LyzLSpE99NSHjd+wOCJPVXTMf9Wxx3qnOuz5kRQd+3hTTNm/7oZ4lnQwb/1forUwayQm6EFMg7uLrELsuYQiFSxG4SvzNi0VefgvhfckbZevRXAU/qjt0hr5zCMn8gZ5LLOjOrdfa7890X6P3FrkvulX984t4EkZzdpxZFan9CSPP5YEhxWTxJ3S2zNO23VVyAMe5i7Hx5R5O1h0/le3O6lnI88vV3dOQcQzoytjncI7E+DRV/V7FvuDsn7gC1pvDhWsEcDvPOpVKtThZFLF2aajDZ7XKkbVZ1nAc5pLnTRxvWJ7jgr11I3a57qwQgAK6bGEqtHL3Rt2KGxaZOh/kzKLylkOIomVm6/fbDshAPnpsOBwaR4ndphpxTUsqDoXPDOo0NKWv57HOE6Q5JyWyvU9PvnSx5Zif9v0ZkgGAEA49fM9C20b2mftmrM2RmDrNqwkOVUOA+dF65Y4iwFV9p4Fq44VAwBGzt/7pXvjN6hU8pTwsP2nZYUsGG3x4JeXrvE2pyvjV3uHZTYcEkavmh4NME5rfva3E0B+dNX83dkWU7zEOfEpN5SUwfS1O+ZZlJ3bFRqZdl0uZ8GIjOxmLFjkZc6030na5jkbTrMAQI9ddWSlgwAAn7ll4eqTmPrlnoUjgcr4DXPC0gZ5fxfqJa7Jj9u9+2BSnpynxUMdZi2Z72baZtcoi4qWiV2D7Jtyh82P+z7iYLJMfocWG1lNfd/fcygF+eNVyBUm7d95KO5yES8Qmtp7+iyebqENcEVxoSH7k4o4g7FuxvnHEuUOH+1f5UKhVYUS60nv+M2za9jDXItY6h8tH+k+i8o6eqGIp8xnb14tivAJTtX1DNnhYwHUnAueEyTVdN8UPt+afrQNqTJ+w0dFs7e9xh0O2XOWBTi84B7gq3UsMiNXVbKr/0cLXYSNW1xyRPCBLE4Art9on4+8rQXtbZkZ+zf/mFYN9LOa7T/PTjs/ZvPuuFLQdzjxDP8Ax6Ifmnp+x/CPrbukctCchunr/vMdxFAkhQXuy6X1xBZGXAo3Y/t7FoUx27aeKqEFHGfovmy5qyQtZOlvfUwr5OJ359O7ttOfBnpqZh38JjKtCuAY67f9Z9tB9nOrFfF3FbdXJ/Hs6cJYZyR1rs+pXUyp/PqapkAd9Tcqrt/W0PpHE2j48NdXVGpdrGxqrU6p4TlFXT1Qz9UB1X0vKtQAgZoG1LquRCAvKjqz/6Qgp8boKc/NLnrOauocMzFy4n6MP/hNpHXEEuvKE1tD42UQ2020YE/Hy1qdaBf9I/Yclnfw5Gn6lUkWv0XHSbN8bG0ZyxkB/mNzE/Yeu39gvSxbLp7r43ZiV0z8/iOTnBebQ2DkMm+JpCzrWHhSYauGXPLe0KNZWo7zAlxEnFyWVsUCQF+rWcuXOBec3nU0m7Kd7uNsBFoyuNXnTZaQpDX9tYUzoCgADaBMdrVc326Gu6kun3nkR2nEdvHI0NmD2u1ksPuCZZbytB8jU5p/L6AsxtmJTsZnXsjHSBPuUsZVDqZjx4rBpoRs3JrEm056baFEIT1yYutaiHYusWs+dqxMOvpblfUCD9PG8pTSb9ZsTWZFI11njRCyBVmF/+MwlHq8CmuyflgXElNm5PDKvGGqzJijEetr+oWtc606HLL1dD4z1MnNTCk9WdS0gbEp2zduPc1K7N1nibLj4qK/XEcHbfNuqgdcRrzUacbspfooLtESMHaTxjKpSSl/ZPtYmHMXUtJYiF+a8KiZ3kyVFXOCmbV7tR3N552WKgRjPV+KysX7zZkO8IoaXc9Pg+3EkO1evj/Rw3rSg3uSHYjIc9zw7VSh4rewPalFdnYK2C0IesmErozf4H8i021+U89VB/3TLT4MDjAAmxi0MjJj9HLm6L5cu8+CZ0mU0o3L4kRAWfyuqD6ztwRaa7Jpm1f8kOiwRgdVhZTbtvXWmkUHG17ux4hcp8+CJglRdmL1Z4fyrC3arAgLsfZjvhVE9+nCWB/8HOi6WlmZDtVHHQAo+mL+HQgE6s0xRNF9+wAA6sDVA6DU1AF1Tg2AGqWu0fXj/uy5oyfkFm97Nn/UJdNXb3+dgornOAf6klSWlpsnh0VOuoyDeOqSNX5W3CVq6ccnmodAxSNdpxoWHUzj7NxdcTlaVs6yAGNg5WxgJcqJfECsa9t6znO1K1bGnMwvkpdwMKfBmDq5mip4adtY5zmOBzi2vEpgbufu5NYQl7TY+iUx0nL2H82mjRzcXjK/p3vx1PfX+LZ6cOhbQTsoGuA43romRbo7Oy+XxdB2OxGNcHIbUaSIah3roEeMtdaOl2ZkyeeZyDNkrMDI0dEIlfFxqUpIpi/ydZcI+ME1WSt/TpFemm/n2HjAXvjrsXStCZua46wsJS6VhWT62s/nmbY+7nucCrkL8YnFEL3kvWimFQ1bXMvYcyEprdKKPZcPgfnsT/2nivlhrE9gIgcAbEZikhISr4DPvE0F/OA7PoGJSYkyb9MRzS/92ppPvFoGiPo7O4qS4pJTZL6mVUkZrMBo6n/ufXs7JrBwtIzc9UmIbJyDo4urhTbuGy2nRDrc0W2b4miaL67iXKra6Uguy4XpZCEA0UtLAgDU8HTOj18m0RStKKzS55obsvmyG4Xl36ySAlCx0JEr7lBFnIWnAQChnb35/hygIL9QYmWhCYAZZmm4K7cIYwBjCwvNVi+XU5J3+auVJwBwrMpIzt+7IkQP0oWxfqe+HlBTo9QBMKaIHO6zU5AAACAASURBVKMO9EM9dh1FLgB1jden4PWmxnF/YNutrqvlweQnolJo5zUTW46k8hK27Tx0TiZvunwq4Kt4sCzLAeIXJADoF4zEglafVQFodQrgIKAgAFfX0R8f0dTSAiCgOzwKZJzmLcxU7E+M3nUpepdAaO3lv2qeVYfDqOIBbcax2WtRoWGx6TeUzfMsOe7x51BqWjnaMtLk9Mwy88JMJQxc7SRAobJcBRRGr/SObm6oKGMBIQDUZBz7tcj0tZUWzeupUCgAWjLYqO25/GNVyCqULMD+FjT3t6aHBApFmbKKBfrqi/sDoIwMRGj4/VQoFCrQYn2xoOVxeTnfdCwPWs+ozR2DNG3dHMVxManJFyzYDBYSd+ehj/1WAUKHFaHWBVlpqfE7V8S7fbHa+p7nuYz927Isvlo/VYzCyICtD+uqzYiWPGb3MXgHbbRiuHPBviktT6iD6ms1+yt/u+Y3lo1/aIU8DQB9aJpqsxEKRA7LAn0sWj3SdkXc/l9cIeklujDWC8tVnDo1cgAiK8DeqHz/Jj/AQvixWV19w/ZaV3syseL3xoMV9Yq7T/2mXDVZx6LyTF9eat18zKKI37M7SUaZe/q/ZiemZPs27ZcBAMMwNKAoVwDChnh6GmgjN/9gt+WsXJZycNt3cYcj49wDPRs+WuoAwD1wqTahWRSzLTKlQGg3x99jhJBPjgiMzm958iGd3IuydrRiEtPTTqTI5ZC84mAqAHSFWgJA4h7gO1bUdFql9ULjDlIed0iKsR+/1CoJRCIRUFiYW6RyanW0/ngVMiIhA2i5zF/oZtQUSbR4ICNlAHmJXAH054uKm34/OiKRAJy8RK6CqaDhcV1d3VZZKcA9O1eLyfaSk9HS8EiuEqYzJ9xz/f6RVGYdS+TdXrF1NragC5enFcIagKrVjopnqyAWiwAuPz2jhLNtryOxxeDq/ZflMBUrTodslXvOrmFFhvoMoEhNkXG8Y8NeUMVD02Rw/0Ppl3g7W4q9FH1UYT/bSWIkOJ0nh7UBm5mWx2kDxiaDC2WyGidrTTbzcomRjdGDXo7feT4fFiZQnDt4gp76MhV3us2KkFjvQbow1msK755SUtMs8TGF5EotLQajDdRQq6pquPuvulpfLaGw6VPG8Pi79BFTpnMopIfjuNEB7vdt4pr6gy1NJYo/jhU2fhrpkaMt6IzM3yL2GzhBeqKwgwndbF5ySm4VCot4AIVp8XFl0DJxcDBtp3lxlvSynGNlCgClMulJilEXW0+yEl+I2JBIj7aW6NI8AAhoqjkNhUItAQrTog7G2IoYiZ2Lebu7RHVAoCU2MxusdzPmalGbp+7vpKYoLUmmqFPmVgEqeWZcfJV6H4mtk0V/MLYO1prn0o+e4CD2HGcCANp2bnZMZuofMUmM42Atrlyee0k+7AMrUwBcdkxUnpH7ArvWJxf9HZztIjNTowM/rXa2FrK56VWOGwImPWaFNs6O4qS48/FSsbOFDqe4XSi7IZ79ubfdGKP917L3fxmmMCuXJrGNx7mMrYujMCUxKvgLzkE7Py6JhbG7mwUeZqirsyR6f0ERBOYuTvdn3z249B2L50cAAK3ttGyNPgBoS8Q3v/p06SGa5jBg+jJriDTNua+DArVWrppq1FCVm/2xH/zXxhqauL08Cfu+ixnp9MDeLd6Yb7o56P144DmL2f4mplXu9Befr0zTl9i7eg7b+3N4xroJjT0HLHMN3vrxykgaGqav+IshEE99XT9wXUCa2MjaQEKrgP6u78zctvWTtbSAg6H3MhcGF+57ubeWOH697f0VNK1irN/yY7Rxz4oQPUiXTnDsu/OUsurF5/4zVMOBUufu1OUWs19eUJ2tpYcBgMDlRbg0t1XUL41TK6rvynJaU+XHHJGJX/rSofWgocjVx1cWeuBc8IJzItOxFmIKeQCA/u4Ll+YHh0sP7iyxm2JrcSlJ9rCeS5LDww4WN/6UeTQsExB7DW4v1rmrUVtDMhr3Z8VJe7YkgbYNGGcl1tGl/nfiYHK5ggPT39TZd55b/6ZlTCfNnpK1JzF9/7ZzYJzWOJnbPXiWgtHUBd6526Pi1i1O7G9uZywGWuXm/Z1UZhwMjWi6IJwfsyUMYNw2Oln0BxhbR2sqJZWH2NaxcWhC6PzBBu77iGPJUXtOg9HWlQybZKoDAIqkQ3EVVoteNmlbjNDtw9Xc7ohjZ6UHr0JkYPWKIf3YFWraLtzoz+w+JI2OkKooRmQ0zNFBJIDYy39hccj+5PgYha2jvTguuRwAwDgs/2wZvfvg2RMHeVpiM32Rn7dpB9M5jJwnme8Pz6YtJzgbPLwlHD76+XDbR9bsAABTv0CH1o+OmPdtxLxWPzN2i4PtmjtxAYCpDQuGBLbpTmTr83mrg/n+7mt2N02BnT52KgDYNvVstCp0eqsleU7HbtFX/hYiFO4LSNPUByjJFP+gKa2a2C35rrEIo1mhDa9rNWtjcOuJrQ73rAjRczT+LdOGv3jHsuzcU8IfWm0h70S3u+QjqbtbW1Ol4rn6eqipa6hRmhp9GXV1tfo7pXdr2g6hamj3eU5LDYCqiqv8B5r6dN9OmFHVel1aYxOD3g1lfXavb8lKolOo8g/6fRxnvWH7YvPHnUXSKWTbfFbG8G4b9y2z67jx/djfNs0NybJ+b9eaKcKOWz+r5IlhwT/noi84LYdFH3t1waR54pnWtV9HgnofDabP/a+h1levb992FhFo0SKtrq0KKIfpK0tHO5NM73SVVYzTW8teerqZXnB4w5Y8sa2pWJUXl6AEY2tt9th9cIUZKZmy5EMZnLaTm1MPznQAYpclQS7dXQTRfbo41p9VEhevJ7kgRnRIZDXV2+ppv6iWWMTFJh4+x6ookcR21jw/58efkKdI/TE4PJ/WNpn63jsO5PCW6Mm6eBCmu7U3CEMQBNFbkVt9EQRB9Cok1gmCIHoVEusEQRC9SgexbtyTZwT06OIJgiCeTAexPseqp4ajsRBznvqMDIIgiG7XwQRHUxHWTng6lRAEQRCdoOVoXU1NTV2dDLUTBEH0bG1iXSAQ6PRBCfmj8wRBED1WY6yrqampqalpaGi4GtceuEySnSAIoqdq/JYpgPr6+rq6Oo7jDmVT8QUaFR39QQiCIAjiGdQS62hK9tra2traWpVKVVdX142VEQRBEE+gTawDqG+ru8oiCIIgnsy9sd6ABDpBEEQP9eBYJwiCIHooMlGdIAiiVyGxThAE0auQWCcIguhVSKwTBEH0KiTWCYIgepUH38GRTI8hCILooe6NdfJ1JIIgiB6tTayTmwcQBEH0dORWXwRBEL1KS6zX1dXxPP/zVUGeUuMNS+gz3VsYQRAE8SQaZ8I0jKTX1tbGF5BMJwiC6MFaJjjW19erVKqKuyTTCYIgerA2sU6ukRIEQfR0D5633ixPgX1ZKFA+nWI6k7EQc6xgKuruOgiCIJ6uDr5l2kMzHUCBEvuyursIgiCIp66DWO+hmd6gRxdPEATxZMg9YQiCIHoVEusEQRC9Col1giCIXoXEepepYRUKllM9YmueVSgVLN+lFT0irlKpULDdXQVBEE+IxHpXyQxfNtd72Q+XHq21Ij5wjs/cjfGKri3qURQd+8hn7rztKY+6QyII4tlCYh0ojl45w2dr2qMdKVfGr3555vQV0d2Zv2lhc91nzt+R3f2ddIBPC/HxWhEtf7Kln0aFj+m+TYX96/AG3zleL8+cvjiy8Mn6fDZWUxG9arr7zJZ/LwccK76nSdHBpTOnz9gkrQGKo1e+PHP6jDnzP43MfKTzOj7vZNjqBYvn+y6eO2/5hvBz8nYOGljZucyyf7kqTcqyUmT/T086O/g60r9Ea2HWSEzQg5gGdxdZhdhzCUUqWIzCV+ZtWiry8F8K70naLl+L4Cj8UdulNfKZR07kDfJYZkd1br/Wfnui/R65tch906/unVvAkzKatePIrE7pSR5/LAkOKyaJO6W37nf/psJnRh1Kk4unfrTBw0xf8rBln3X0IIepUyTyv6RphZDYOlvo65tqtd9aPClgh1XhryEboqNizr9m7dLBZ0dxOiQwVn/ZVzusRQCbf+yLoK0xJpumP2C7yI2PSnMda93/360MAIC7HB9T5u1g8f/xXihdGesU3pkAj76q37PYH5T1A1/QenOoYI0AfudRr1KhDieTKs427U15XqsYVZ9lAc9pLnXSxPWK7Tkq1FM3ap/rwgoBKKTHEqpGL3dv+EyyaZGh/03KLCpnOYgkVm6+frPthADkp8OCw6V5nNhhphXXsKDqXPDMoEJLW/56HuM4QZJzWirX9/jkSx9biv1t05shGQAA4dTP9yy0bWiftWvO2hiBrduwkuRUOQycF61b4iwGVNl7FqxqPDIaOX/vl+6NX4xVyVPCw/aflhWyYLTFg19eusbbnK6MX+0dltlwpBO9ano0wDit+dnfTgD50VXzd2dbTPES58Sn3FBSBtPX7phnUXZuV2hk2nW5nAUjMrKbsWCRlznTfidpm+dsOM0CAD121ZGVDgIAfOaWhatPYuqXexaOBCrjN8wJSxvk/V2ol7gmP2737oNJeXKeFg91mLVkvptpm4+3LCpaJnYNsm/6XLH5cd9HHEyWye/QYiOrqe/7ew6lIH+8CrnCpP07D8VdLuIFQlN7T5/F0y20Aa4oLjRkf1IRZzDWzTj/WKLc4aP9q1wotKpQYj3pHb95dg1Jci1iqX+0fKT7LCrr6IUinjKfvXm1KMInOFXXM2SHjwVQcy54TpBU031T+Hxr+sGbCgCAq2J50CbWjiYSAbp8NcHKDm/feiBdTpu6OTHJ0RmYsn7ve1ads5ojpy8cCdmOtLRC3uKVJcvsmtYw78TWryNTimE0ccbg5nuLCBixxEQ8xoKJLmJZFhA+9DMml/6ab+e70rphy2ZMPDeEeggoAKjMOvhNZFoVwDHWb/vPpqL2JOWxuSGSD/zdGt9lVhYZsuccC3AY/Nqq98a2fG1cJZdu+/ZoLgDG0dd/1rCSmM2740pB3+HEM/wDHIt+iMzIVZXs6v/RQtvCNq9ixyiSwgL35dJ6YgsjLoWbsf09i8KYbVtPldACjjN0X7bcVZIWsvS3PqYV8v7jxX9esQr6zIkB5EdXBdYs/dbb6KEr+0zowlhnJHWuz6ldTKn8+pqmQB31Nyqu39bQ+kcTaPjw11dUal2sbGqtTqnhOUVdPVDP1QHVfS8q1ACBmgbUuq5EIC8qOrP/pCCnxugpz80ues5q6hwzMXLifow/+E2kdcQS68oTW0PjZRDbTbRgT8fLWp0/Fv0j9hyWd/DkafqVSRa/RcdJs3xsbRnLGQH+Y3MT9h67f2C9LFsunuvjdmJXTPz+I5OcF5tDYOQyb4mkLOtYeFLrs3gueW/o0Swtx3kBLiJOLkurYgGgr9Ws5UucC07vOppN2U73cTYCLRksaFlKlpCkNf21hTOgKAANoEx2tVzfboa7qS6feeRHacR28cjQ2YPa7WSw+4JllvK0HyNTmn8voCzG2YlOxmdeyMdIE+5SxlUOpmPHisGmhGzcmsSbTnptoUQhPXJi61qIdi6xaz42qkw6+luV9QIP08bylNJv1mxNZkUjXWeNELIFWYX/4zCUerwKa7J+WBcSU2bk8Mq8YarMmKMR62v6ha1zrTocsvV0PjPUyc1MKT1Z1LSBsSnbN249zUrs3WeJsuPior9cRwdt826qB1xGvNRpxuyl+igu0RIwdpPGMqlJKX9k+1iYcxdS0liIX5rQkun3bSqttdqbdeFqMn9FBkeck2ubT50kyf0tXgGIumA12yo6FvydtICSOLoOLoyNKwBat1QHDaDDazCqm4VyQ+shrR4RUA3dyH6MyHX6LGiSEGUnVn92KG/ba1OHnSt8oznTAZVCQTsvC3GSCOTH/IPiCsbOMm58hk2OPHhnRlDoWKYgOjgqQzGAgd2CoJdM6Mr4Df4nMt3me74UlYv3F7oIZTs2tnkVa4fEfbl2nwXPkiilG5fFiYCy+F1RfWZvCbTWZNM2r/gh0WGNDqoKKbdt663p7Dvxh5Irndy05WmpcFneAzIdXRrrg58DXVcrK9Oh+qgDAEVfzL8DgUC9OYYoum8fAEAduHoAlJo6oM6pAVCj1DW6ftyfPXf0hNzibc/mz4Bk+urtr1NQ8RznQF+SytJy8+SwyEmXcRBPXbLGz4q7RC39+ETzYLF4pOtUw6KDaZyduysuR8vKWRZgDKycDaxEOZEPiHVtW895rnbFypiT+UXyEg7mNBhTJ1dTBS9tG+s8x/EAx5ZXCczt3J3cGsKEFlu/JEZazv6j2bSRg9tL5vd0L576/hrfVg8OfStoB0UDHMdb16RId2fn5bIY2m4nohFObiOKFFGtYx30iLHW2vHSjCz5PBN5howVGDk6GqEyPi5VCcn0Rb7uEgE/uCZr5c8p0kvz7RwbI67w12PpWhM2uTQdx5WlxKWykExf+/k801b7oceqkLsQn1gM0Uvei2Za0bDFtYw9F5LSKq3Yc/kQmM/+1H+qmB/G+gQmcgDAZiQmKSHxCvjM21TAD77jE5iYlCjzNh3R/NKvrfnEq2UgoL+zoygpLjlF5mtalZTBCoym/qfVO3nfpgKAk2dk5gMikW7zQ124mq6SsxlyFeXgu3rhJEZhKJ+/JavzV/Me8oy0G4Dpax9/5iVhrbi5QdLWV6B0hSIBcjPS5FNcxe3uGJreq4b/XDu88vNYuQoQe27abC/LKcm7/NXKEwA4VmUkv3PfYgKRSBD9wzopRUNRVm3RaqhcnpMvMnuHAWA8PeA9oCafzvnxyySaohWFVfpcq4b3voqysIiz8DQAILSzN9+fAxTkF0qsLDQBMMMsDXflFmEMYGxhoQnA3M1esT9Z6WaXkS6YsMygg9V8RnRhrN+prwfU1Ch1AIwpIseoA/1Qj11HkQtAXeP1KXi9qXHcH9h2q+tqeTD5iagU2nnNxOZTSD4vYdvOQ+dk8qaNV8BX8WBZlgPEL0gA0C8YiQVouQYoAK1OARwEFATg6jr6m1KaWloABHRHnwIwTvMWZir2J0bvuhS9SyC09vJfNc+qw2FC8YA245XstajQsNj0G8rmeZYc9/hzKDWtHG0ZaXJ6Zpl5YaYSBq52EqBQWa4CCqNXekc3N1SUNZ2P12Qc+7XI9LWVFi0jGAoFQEsGGwna9P1YFbIKJQuwvwXN/a3pIYFCUaasYoG++uL+ACgjAxEafj8VCoUKtFhfLGh5XF7ONx9b03pGbW4Ep2nr5iiOi0lNvmDBZrCQuDsPbXnyvk0FKV+8HpjEgxa7LW6V9V23muUQVVZBoCt+gQEgGmjEIKvTV/O+UqpYgB5gJAbAGEn0gNbXUY09Zrud+/Jk2PwZ3zms2L9qUjsj7AJDicFN2VXezY7CUK+gCC+UnVi9gQUAgchhWaCPRcvrxd2zrOzQ1t+FAZuXmNJs3Kcr7r0o3epNlsfsPgbvoI1WDHcu2DelbbO2r8LG3/sqbfA0APSh6cZTCtNJDlW7U/JU6ZSTX0+5c2AXxnphuYpTp0YOQGQF2BuV79/kB1gIPzarq2/Y4OpqTyZW/F7V0Fa94u5Tf8dqso5F5Zm+vNRas+kRRfye3UkyytzT/zU7MSXbt2m/DAAYhqEBRbkCEDZ8bp8G2sjNP9htOSuXpRzc9l3c4cg490DPhtBWB5oPf+7RJk2KYrZFphQI7eb4e4wQ8skRgdH5LU8+pJN7UdaOVkxietqJFLkcklccTAWArlBLAEjcA3zHippOq7ReaEw9edwhKcZ+/FKrfYxIJAIKC3OLVE6tDmMfr0JGJGQALZf5C92MmvYXtHggI2UAeYlcAfTni4qbfj86IpEAnLxEroKpoOFxXV3dVtEjwD07V4vJ9pKT0dLwSK4SpjMntIyh37+pAKMXBAc5xe8JiY47FO/p5CXp6tUUQ8FoQVUuv8liKMPeKmIBpnNX836MFgNwFQoWoFUKRUXbZ+V/HEwowtDpqxY6mxo/5Kqp2HmGycrw71Ik8x3EFFRsXnK6vJ81DbHFYH7n+XxYmEBx7uAJeqq3FQ2+zahOVTWnO1hMA8UpKfkQt5o9ITYzkSdmsdOdmMLowAjK1YAVGeozgCI1Rcbxjg2dqHjA6N5XeV1iJDidJ4e1AZuZlsdpA8Ymgwtlshona00283KJkU3bkRaJk3Nd0M7fxVPXPPwSwjOkC2O9pvDuKSU1zRIfU0iu1NJiMNpADbWqqoYLL+pqfbWEwqaNgeHxd+kjpkznUEgPx3GjA9zvGyzT1B9saSpR/HGssPF4ih452oLOyPwtYr+BE6QnCjsYTGTzklNyq1BYxAMoTIuPK4OWiYODaTvNi7Okl+UcK1MAKJVJT1KMuth6kpX4QsSGRHq0tUSX5gFAQFPNMSEUaglQmBZ1MMZWxEjsXMzb3SWqAwItsZnZYL2bMVeL2jx1fyc1RWlJMkWdMrcKUMkz4+Kr1PtIbJ0s+oOxdbDWPJd+9AQHsec4EwDQtnOzYzJT/4hJYhwHa3Hl8txL8mEfWJkC4LJjovKM3BfYtT656O/gbBeZmRod+Gm1s7WQzU2vctwQMOkxK7RxdhQnxZ2Pl4qdLXQ4xe1C2Q3x7M+97cYY7b+Wvf/LMIVZuTSJbTxQZWxdHIUpiVHBX3AO2vlxSSyM3d0s8DBDXZ0l0fsLiiAwd3Fq2TAeuKnQ/Y0snDydY6Jl1wvlKjReMu3C1TQ3tbcVR59ICQ/aU2iUdyKLa4j1TlpN9lL0/qSi8r9YALKosF3njBzenm4ttrKTQCaL3nlYy+72sURF27H1m0VyDhaung4jOsg7kZP/Gi7ihw3L99wB0E9i7RrwkbsYEL+1xPHrbe+voGkVY/2WHwPK1FK4/5u1Wh+sn9UwiDRiktuB7Z9+LBUPGus2Q7gnItL5K++GU0DG0Xt2xrefLj0GgcjR13+MDk588fnKNH2JvavnsL0/h2esm2DOfR0UqLVy1T2vIhBOfV0/cF1AmtjI2kBCq4D+ru/M3Lb1k7W0gIOh9zIXBhdaly92dNQ6eGmCnfbD1/IZ0qUTHPvuPKWsevG5/wzVcKDUuTt1ucXslxdUZ2vpYQAgcHkRLs1tFfVL49SK6ruynNZU+TFHZOKXvnRo/asSufr4ykIPnAtecE5kOtZCTCEPANDffeHS/OBw6cGdJXZTbC0uJcke1nNJcnjYwaZz1cyjYZmA2Gtwe7HOXY3aGpLRuD8rTtqzJQm0bcA4K7GOLvW/EweTyxUcmP6mzr7z3JpnfZlOmj0la09i+v5t58A4rXEytxM8sG+jqQu8c7dHxa1bnNjf3M5YDLQKlPs7qcw4GBrRdEE4P2ZLGMC4bXSy6A8wto7WVEoqD7GtY+M5u9D5gw3c9xHHkqP2nAajrSsZNslUBwAUSYfiKqwWvWzSthih24erud0Rx85KD16FyMDqFUP6sSvUtF240Z/ZfUgaHSFVUYzIaJijg0gAsZf/wuKQ/cnxMQpbR3txXHI5AIBxWP7ZMnr3wbMnDvK0xGb6Ij9v0we/US3vmPMk8/3h2bTlBOfmUdQHbiqNKFoA1KHVeEoXriZt6x0wT771UFbsrwqHsVai37I6cTW5GykxMY1z5wvT4gsFJuKZ0621TTw/mJf79aH0fbuL7CbYSfKlrb+DUAcO95wgtoeSTJq/ZtJ9D2tbzdoY3Ho2rcQr8DuvVj9rms/aHNrUwNXh9VZPCcTO7wU6t/zsvmZ30xTh6WOnAoDttxHzGta37avwnI7doq/8LUQo3BeQpqkPUJIp/kFTWnVut+Q7u+YflGkZVY7TR/egmZKNf6K64Q+Zsiw795Twh+ktT78T3e6Sj6Tubm1NlYrn6uuhpq6hRmlq9GXU1dXq75TerWk7tqih3ec5LTUAqiqu8h9o6tN9H2l7ebjW69Iamxj0bijrs3u9W2fMkCVaqPIP+n0cZ71h+2LzDq8fdAXZNp+VMbzbxn3L7DpufD/2t01zQ7Ks39u1ZkrjEehDNxVeum52cJqpz45Az6c7a51LCpr7xTldr+DtviYdt77P/av5BORHVy3dnWftv2fNSz0o8QBAnhgW/HMu+oLTclj0sdfDprbL44M3RCts56/y7fjK1rOja7+OBPU+Gkyf+19Dra9e377tLCLQokUP+SJE5yiH6StLRzuTTO90lVWM01vLXnq6mV5weMOWPLGtqViVF5egBGNrbfbYfXCFGSmZsuRDGZy2k5tTS9g9dFOhrF1Gi9LO7Vkwc4+p9/btXl2b7aqsPSsiFcNGD9apyvwtnYXQceRjz7drbzUfT3H0ysURMg4QjXW27UFx10jssiTI5RGbugZsd+3SYrpCF8f6s0ri0sWfwP+3RFZTva2e9otqiUVcbOLhc6yKEklsZ83zc378YVBF6o/B4fm0tsnU995xaJVUD99URC4r99or5WVVnEDU9VuUSKzDSk8eknJgREbOvgt8Hv+r0e2t5uMRTwrYYsvRWmKxkO6Ek2qik3XxIEx3a28QhiAIorcit/oiCILoVUisEwRB9Cok1gmCIHqVDmLduMd8r+oBenTxBEEQT6aDWJ9j1VPD0ViIOU99RgZBEES362CCo6kIayc8nUoIgiCITtBytK6mpqauTobaCYIgerY2sS4QCHT6oOT/6d//IwiC6A0aY11NTU1NTU1DQ8PVuPbAZZLsBEEQPVXjt0wB1NfX19XVcRx3KJuKL9Co6OgPQhAEQRDPoJZYR1Oy19bW1tbWqlSqurq6hyxJEARBPIPaxDqA+ra6qyyCIAjiydwb6w1IoBMEQfRQD451giAIoociE9UJgiB6FRLrBEEQvQqJdYIgiF6FxDpBEESvQmKdIAiiV3nwHRzJ9BiCIIge6t5YJ19HIgiC6NHaxDq5eQBBEERP94BbfWlm7sS1I6gp797KCIIgiCfQEut1dXU8z/e5GIbyKxi9FFoG3VsZQRAE8QQaxU8VKgAAIABJREFUZ8I0jKTX1tbi2hGS6QRBED1XywTH+vp6lUqFmnKS6QRBED1Xm1gn10gJgiB6ugfPW2/x91Wc/xZ/5zyVYjrV82YY8z6eH9bddRAEQTxVHX3LtIdmOoC/c3D+2+4ugiAI4mnrKNZ7aKY36NHFEwRBPBFyTxiCIIhehcQ6QRBEr0JinSAIolchsd5laqrLFdWc6hFb81WKynKW79KKHhFXWVmuqO7uKgiCeEIk1rtK+p51099aty3z0Vorzn769srpG88+Azfiuf3TRyunv7NP+qg7JIJ4uOpf16z8Mq35x8ojH67bJnv4Irf3vhdyRPGAJ6pkF9LL/mU9ZSnJhdy/7OPZRmIdKI5b5Lnyy7RHO1KuPPvetEXjP4zrzvxN2zfdY9FrO/O6v5MO8CkhKyd+GHfryZZ+GhU+pvs2laq/Tnz47gcTpy0avziq4Mn6fDZWszw6aLzHopZ/0z4/UHxPk9t7/RaN99wWVwMUxy2atmi85wevfRqVzj7VOrNPx6X8y1hXXD6S8L/eHesdfR3p36BexdsbWnYc/1xE5iZcyYPLbxicix99cAcAMOY4rAFpHJwX3ruXueiF81e7sEIA4NOPSnMG/edjO6pz+x29NOjM0kduLXLZctylcwt4UgPm7tg5t1N6kp89cAbOAeMGdkpv3e/+TYVPj45NkT8/c6X/TLPnjbuxtH+NNraZOWXgrb/+TCmEsc2LluL+Q7Xaby0etzbMoiAm/MPo+CPnPUa7PNFnJ3nPazGUs4i/VXarythj7SIb3ZrCA4Hhv1bpDJIMBIfRAIr//DIkrkAFjtN5yW/hG1zs9qTCf3L3GPv7WMr2hfx6666Ah4HLx8vHGdNN3arK4rbv+SkXQD9nX5+51rj8055t56oBHoM9vlguSd4Zn35ZY32EzuczqZ9ColKqAK7f6Dk+8+36ofDs+q/ibmnpDLQYWJ6muXTLDAPZicDdGX/TFCd4Ya7/G86aZz/85PJAvYq/zWyQeHvm1jmjaeDaLz4Rz2/+3EX3Sd6FLtGVsY56HtD43w5FxhVo6PUd/X4/h42Qv8WrQKGer0fDtlCnqlcHuIrD1UfT6+r7UGM3Pzfgyj+/7uBroV6TK+zK+gBA8eeBhGqHZc7GAICqtKjAfefTiyqqOOgamU/zfXu+nTaAWwn71of/mcM97zzT4m7DgqoL61/ddWOEJZf7Py1He+Ocs7/Jn5/5yUo/G6oqbtuUkMsAAO2Znwd9YNPQPvubt0OOCCxfHlaWmPo3Br4YsG6OmxhQ5W1bGNR4ZGT9RvSXTRuHqky6Z993p/MKWGhpP2/+8ttfv2lKV55976196Q3DI9FB46MB5sWvD/g4CHDraNBr3+VZTnEfmHNWeqOSNnDbHPaqZdmFb0KjUnL/vsVCSzTAYfqbAV6mWu13krL5gw8TqgGAtvn8l4XOAgB8euin753EzC+DPrAGKs9++Pa+lEEzDm1xH1hT+Ot3P+1NKrzFUwOH2sxd/MbLpm0+3pej47P0x+2079f4M1v4a/jhvcl5t+5QA43MX33P542hFOSPVyFX+OfunbG//nWbE2ib2bv5LXKz1Aa427+Ghu8+c5sbaPOyyf8OJP7tvPKbz10otKrQ2Hrc0qWvOogBANd+mf1BXLG1y1xa9tOF2xxlumCz3/MRH61P1Xnjm01+FkDNhfVv74rTdNny/Rujm/Oi7aYCAOD/qeJBv/B/7d1/XJPl/j/wF9zcE8cYCjPZCtyZOTi5VbgC+eFnyDkjs6WGWmJHKfLXSdIjZVH4iYNHk8KslE7484T2ETuKpeEvVgpfEQIDSpYHKPhMVgxqQwdjwj0G3z8YMJAfouCvz/V88Ae772vX/b7Gdb933dd9jcmCvIQURryZMKsP7Uv6XF3D8lJOY2cfVWPGmqOrfIanmQ8rYh+GOrU0X9sqeWZR3GO21jBV2ZuSj+boIAxTiLvm5Sg234vNf2wi52itqekqcENpnUKjnh2+fq4YtWmrd391yW9uxZEMzux/rffj1KlWv6wDYLpslixaE/cwmynY8/wX6og3FRF/LNE8F63kZK89wV2ZvEjMshR9vHFnjt9Gha2bmfKOpjUrUj/y41xSJR5R10/2NtD+cVv8hZT+QOz2ry7FRz3jd4DxTHhBUpG6sWLaK6lhXOizV//3iQq/WYZDJ0zK11NncHVffPCiVcSiajM+KRbGxm8UoV6VsnyfOvCvgE7vsTY+doI5R/ueqsQiC6ArzpXxQ9fcOTkdI5zWAaC95T8uum+AdmaUvJ0/tW0sq+9ybTWc339tax/V1gy062l97igLHCkHOIxseBVHVEW84NRptj6hr6q6xPGZ+xcRH1WZ+8+lfXBkyr8WyRqyk7aeU4MXGDbR9M05td2ks8bEi/xjddrJc6OeCZZmqTKzy2P8JJzJioQ1fuXfZBy4dmJdX6UbPzdGkb3l2LkdXwQrVohAeYZHLRLqyw/sKdTYFWTyMjZ9Ue4aNDdB7tZSV5VvMgOAs8/iVYsUmnNbvqhi+SliQj1B832o7mepT593nTUzdjYMGrAA6KvU9bzA2aHisZaiL46q0vYKHvn70gn9VuLz5II4iSF//5Gchq4qaWmQ1P3kueJiLR72Yn5QlzIQT/Xjw5zz4baks63isJmR3sasw9lJf4fHJ4sCXTqf11CYnmWWLZsutoXXoPrgg6Q8s/vDwVGTuY2XyjVaCybRQ4vwanlK4p7Dek/5nLnStvKMLzJeu8renxDckLE76bSWM8lfKTZmnaztzDLmnI+3JZ2+KgwIjRpb+ZVKFf93p9SU2Z3xgCk5p5r252UrefhV7+rIDgzz4xQU5pytivEVMSUl+U3gh/vL7Hprr65iz67UCDaT8+PRxLQSHVcU8Sd+Rda5esB9BJrZU236lgOqS7QwKFisPZN5qUdTQYEF4CbuwbAmisQUAE+htzG7GjVavcB3IgcAz1dynxoAZ6ybJm3P2qM0y6RtpHy6Z04qtaU1lVviywHgKka5GwDb36Xmp2qPSfM4ACYoElYBMHtQ5R8nFrJYMOivSkyA7ZXRqysMFerUFScAWExtfF2zUVczWhLBBcAPkAi/MaOpuqLJO2ICALj7TvTI1NbAg8X1ljwAgB0YNjEtW808xsv/kRc6v49ecRuNeFoHnEeNcgYtYokmO7T9YqlnqH6uyZ0oB8DB4gAAlJMDfQu+ca+pJP2kQbpI0XUOCJ+O+exZGlYLw/iNulCo/q76pzpIf1KXMuA/tSh5pQ9zgX4+LrtrsljwSPBcgS7tO0vgjGCoVaWXzSaAI/BRCHzcK470kda5kgVRwYE1DYdPajV1egYiFtjiacHiyxZVr7RusTBAi6mhkZoY+KS/siNdsngyBQ/fVe34omqUl59SIepVPf+p6ORou42TZqV+QrMAhrHIrpaodlZVVJoxqd9K3Cf7KyfXGo7Yp3WwJvvJuOdUJWW6F7xqSipNlKc8yBMN5zILGuCliH1JLqRaxeayFf8uyfphQWCQbeCmOabK5/hvlXNtteiLMwvM8FJs3jhXbPc+NKQImZJzWTVwV8x+NcKHBSkq1CklhXkNPqZvtaBEy96KjhhvkTa9EZ9tAYAmdVZuA7yefHvdbDFlETe/EZ99Pqtstnhy16FnJr/5ZHdn5PmHji3MzCtRR3s15qpNlOfcULtX8pquAoCpUxdpgLFuHl2bRrCZwcI8tc5Ky1+KiQ1j1wv087aWD38ze6krzb8EiGZuWPeksMmn5YXtKvs7UO5cHoXyklLdjGB+v28MAGjX0Wi5arG93VqNhqu062jAaFfEClCwXzbWAgDmzJ0ZBvnryaFc/Hhg/uc9KmWJFZvXB/c9UWT/ypedSMrmvp28SMwyZ8a/o+lRjCuPeT3Gt+ux/sD1vEVR9KiOAPyCp+zLzv+JXzzeP9JlkCfdYiOe1h0nvYdJAODQ1sAUvdf6e4/X/PbSnVDlsPyTwzpTDywVp/dtOVSiruvsvJSl0QKTycwAAi8+AJaXp4BC9z1AR7AoGrCAcgIFxjrYfdfRbFcAlNNAZwEAgBMyL/YH444c1ZYLKlBc2dyXNr7gM8BsZwfBeJ79Q9NPX2/65Ez+pYauE4ZhWger49qYfUKnsFV56iL9RM2FBgiCAx8AfmkwWAGtasXzqq6C9frO6/Gr6gOZteJ5yyXdMxhGA8DyspusGHqEpstGEwDV9lldx6SMBkNDYxPgzOPzANAT+FzAAABGo8EK1niegOrerqu3dM0YsMZ5etjXPlqiDOJlHivJLhGZis14QK6Y1L3zmq6CnE2vxJ+1gMVTrrDL9SPXzMvwMJpBufG92ADcBXwOyoe9mb01mU0Ay9NTAMCFL+QB9re/J0xfqiiJP7lv/pwD8te2bAzrbyqGlj7mnXLynCYgVMhCfUF2DiRvPwDUgqmsUjN+EkpbUe0m9IKwgVejrmTgx6opU/8GAcwmk5Pgfi5gLsora7R6MqBHoRVWYKLIR6suagiWcy0Vx45WSOYqJ9gOJpjkXZNTZprlz9Gq4tPomBnmFncfAQuoKcnRgG8FWB1XGDzJxNYt57Xw9cLlkrST9NxIH77n1axKMyawdd+pNVYRXLzFXJX6EmQi1P9YaZoYKoDdwl9KFP7YoS07jOKFfx70dL7FRn4SRvPh5YKS9rYW65WLTtbWsaOcW1uaAa6DS8c78ihw3IBf2ptHOpBrXC1PP6oVKxfLRnduuXzu452Falq0YM3MwPG0el/KzjIA4HDYLMBQbwS4HeftrcDyVK6JV64y68pK0lIOZGYcyXzy9QUdc6YUYBvOXKNHNqnNSDmSc4kbuCg6YrIbk3co/qi2V8m+K+mNlgX6cLLV+SdKdHUQPjNFTAFjua4U8EBowkt+7p0HdfWyZT2d6ngW/DaG273HjHXzADRarcbqbzeMHVqEnLFuHMA1dEGsomt0SAs82VkuQJ1edxngWS7pOi803Nw8KDB1+horxFTHdjcPd9q+/l5noyTcT3hSlbX7CNMAcUSAsGvHtV0FCFwanxpyLuVDVeahcwumPSkc6WbeBwOHDatR96sZk9imGp0J4AxvM6/lwuYAjNFoAtytRkNDz711BWmnazFJsXGZv1g40PS6u2JxXO3e9S9/zQDgSaLemNnx4rjyzNnvp+ys1bdMmbfZCxzeTOXZvdGx2XyBN/8BwMqTP+kdv/m9CgFPolCEFqi2nZZETebu+OAD1zVrVi6sSnrrvcOjLS3jQ+MUdq9e0KxlJXtWxahAuclfiuZP8lZ+vndVXCFf6KeczU359Ij6v0WSmoxVW+nNLyySb94bvZZmWdmyhYs5oAPnyTPffW/FNzyhL0/IYgGec//qvynlvdUstFATV66RsFBo3y7xf/kwOVfD/YZ5tcXNG/m0bqniXD7vAFCUg6OTA9CCS99aH5lHhazDf0rgqnB4kNeu291+yz/+Up9zPJORJMzw7L1jNM9nsvcfLhcc0NqG3qyHJVKWukh1aOf9/sjO0QxypWauyCupaIJG2wrg0nfnMvVwFfrJ+7vSrSlX/ahvMVUZAOirsk7SHIonC/Phl2SszXYKfITvQVsAgKJZXWnCjculoPlOlXZM4uHCDwoV9Xu7hgIoNn+SyIdXm/Gf2h67rq3kam1+bqXB2lDRBFj1RapzjRQt9POX8MCZ4icbXZL/ZTYD3oIgLwDgSpWPsYsKCjPOjg6dyG6pN1Rc0EvX+IgBMFUZR7XCGZGB9lemvCmKx44WFaji483hj3AbK9WNQWsSwoYYoZ9/6PjCzPPnsu7zl7q1Gup0ao3H0o2zAx/z3PlT1Y539xnExqyzZttA1UUSHsTNyf56/aZWObf6q7NmTJArfTGQScGKB1Q7L9WCEoWHdHeMPrsKi+cpmaYIP6ZSV+p0VtiG5yPYTJE4QMI/mp2zZ3uKlv/TyXLbRPMwNdN0QbXjbK1BfRWA+ui+LQWe8kUK2XjfwAegLvv6/UPswDpV1uWec+s1tTUMpH9SyCdz+zqMPa5sUcyeRdds5vnFrJF0Pxwtitr49x6rsMKi94R1/h4UDAB4/eA8AMDkRakK9IHiKVa9brdHFJXcVWew/FkAkOzqWMaAqPXx9odjrDzla6/LJ7GZCweiq7g8gOOr2LjF/jD+G3f5dz3QnK9i/SlScufMP3S6BXPrDiyqx31Pp1/fu3IanClKOjQSLXpr1SeNOZ+6td/aFfRWbcYXVYLw1+X2HXJs8MroqqTPSxKXl7iL/KTjaXQsJuaFrlmpXb+7MC3VEDhDIrlQqB6oZkPOnn1pnWt+i77YVwTw53n3l9aZMtWmD9S2U7SmMGVrIViShCAfvhuXpc35NN9Yz4DD81JEz1N2jX1FwUtnlKdkq3d+XAIX/+RposC+O5bn3GWzKz5WZSauy+KJAoUegF1CubaShtK0rRmdN4S1h7fuA9jK9f4SHuAiCX2YzimwYLwk1HbNzlWsWdOy+9CBvK9TToPDdRP+MXiSGwDU5x7PNPq8qvTqGQxX+VoMs+NQel5hWhnc+T4LBfSQIxwtiV0fzdl5POurDJWV5oz1lAb5eVDgz3spVrd7R965jMuS0ABeZl7HrC1b/sorcXR6Wl52moUW+ileXTlbPMgZ6Bn+J9HOPVWsyf7hXV8R1mdXsXFiUUAb7BZBj2AzWX6zEl7QJx0sP3zMKA/wcVeVD2MzGU3J4WO2tfOa785pKC/BMwoZ1ysydm7F5hP5nx249Jh/oJdWVWdXjRUMcAdNqt40DsuYveW9dIrNwC0iZu5Ac55W7YHE3ZkIfvvNa8aFdwDbV1R3fJFpU1PTmIPBeP5M9/7/mX4TlbdfNlpbWJTn6N7LWVotbQ3NbS1tgANYTo6uox1ZnUWaza31rQ7uXMr5Jg7czb4tdkzZ2+dtM8dsX6Pk9bmfuFFWbVrMe5mPrPmfFaLbMuGo/vj1Fcdaleu3dC3RGxKTKmXWB+WyVRuTZ9iy+IBdxaJKjE38zivmn68v8Lp27whizm6ftamENy/+s+gbOfC1zbwBui/ee36nVrbm3WTFnbUOhBjR0brDWLe+63eiHd3pvofnzmynW/BVqnp4R66UhJOcPuwazK7/NStOcWtz+qUTaz+q5vt5C6zVmacb4CKRiYdcB6NV51yozD6kZrj+ymndyW7ArkLL5BL370pSlq9IEc3+LKVzhn2EWMtT1h4x/FHq42YuylKbwA19eMhDxf6aOTQ1qhUvZ6gZYKxfuB/J6XecWzAJcycSho7wGfh/1lifiEifW31QFw8P5kxWRonJSrs/IIl6YbFi6PnKUHAkcY+WxfWKWDVPbndXYOCu4h66/GhAg05vbqG4AxQbJm4CN3PWyeMqBpyxnoroyJihfzS6v2YOzfjghI+kLTRbMJ7LuocmYe4ZIzoJcwfoZxKGIAjiXkX+1RdBEMQ9haR1giCIe8pgad1j6Pee7hx3dfAEQRA3ZLC0/vjf7tbk6CHG43+73UEQBEHcaoOthPH4I2ZsvyWREARBEMOge7Tu4ODg6Eim2gmCIO5uPdI6RVEY7Q5T72+7IgiCIO4WtrTu4ODg4ODg5OSESREo+phkdoIgiLuU7eNIANrb29va2hiGGX0hFT8dxtXb+SXMBEEQxI3pTuvozOytra2tra1Wq7Wtre02RkYQBEHcgB5pHUB7T7crLIIgCOLG9E7rHUhCJwiCuEv1ndYJgiCIuxRZqE4QBHFPIWmdIAjinkLSOkEQxD2FpHWCIIh7CknrBEEQ95S+/4MjWR5DEARxl+qd1snHkQiCIO5qPdI6+ecBBEEQd7u+/tXXP9Kw+xh+u3x7IyMIgiBuQPdovb29vbW1dfQ/0vBdOb7YBKHnbQyLIAiCuDG20XrHUL25udlFtIDkdIIgiLtX9wLH9vZ2q9WK3y6TnE4QBHH36pHWyT1SgiCIu13f69a7lVTgrR248PMtCWZYPfwg3lkGP/HtjoMgCOKWGuxTpndpTgdw4We8teN2B0EQBHGrDZbW79Kc3uGuDp4gCOKGkP8JQxAEcU8haZ0gCOKeQtI6QRDEPYWk9RHTbK6/Ymas11naYrrSUG+2jGhE14lpbKi/Yr7dURAEcYNIWh8pRfsTZr2ckHLx+kpfyY1/5bVZW3LrRzao66FL3/DarNV7c673DYkgiDsLSetAnWpF1Nqk769vpNyYu3rRspBE1e3Mv9/vnbVw2fy0qttfySAs+dvXhiWqdDf27FsR4RBd01VM5cfXrvlb2KJlIW98qbmxOu+MZtafSgpZuKz7Z9GGA3W9iujS3lwWErVN1QzUqVYsWhYS9bf5m74suo7rupyUlWEvvzV/TcfPhqTTOmZEGnGDNOdLb7CL3qkG+zjSQE/l4+xBTAUANDP4uRQ7dmKbusd2GwaLZ8D0Jg4r8PIMfGLq3M7Clj1YI+xR7c43MSYR81k9NppysIzBfkWPjeo0+O1E6423AABgKTp2psJretyj9E1W1IssOjk3+rpLj5n+0b7pwxvAjeJHvbsjalhq+j33QAHkfw3mD0ttt9+1XcVSdPJYvp4XERMbIeIJb2NoN43lJYsIE+jKCvJrIJQGSMbxJrH7L80LTnjXR6PavfaU6vD3T8mCBj136MCodzYGAADqC+MT0zMfjY1wH7bgb4q1Oud4iXiKlE/d7kiGz02kdbQzAKv2TMOyo60cgfOLz7O3bgVnBZIburfbcm4LXcK4Bra1A62AfRewAlRrjfnl5OZfbFsctRdHO/2t6V+jIJzh9s8nkJ5s3FeDVoML53kW0LrtjcYTne/0jdVurbjZv8WVggO55sAloUIAgOn7LzcdKiyqMZoscBf4Ph0ZtfRRLgDd2b2J6QUVDE/+lG+LLfTixOjUS75SRlPNedxfWHku63dexOo3YqS0KWfbjO2lAAC3iDeTY6Ud5cu2vLLlsKNUOUmfXayHZ8Crry1WjAOsVSmvJdlGRg9FHl033dbbrfqc9L07z1ZqzOC48nwUUcnPiFiNuatf3lvUMT1yKinkFMD2T96+JJCC7njS/M+qJGEz+ZXncn4xssYrNr87X1JfvGXXkXyNXmcGx40fOGPhq0oRp/9K8j/529qzZgCgp2zcs0JOAbAU7Xpr9WlErEuOfQhozF0bszffa87BDTP5zdWZn+1P+1ars9B80ZSoFyKVE3qc3upTqtJxwalTOtODuTpz/6G085W6Zpov8J279KUFIhq/Dy1CpqZwR9qxzDIdQ7mJp4THRCkkroBFl7lr945vdYynn9JLeyBPL4/5cGMQDbsIhZODV744P3AcAKDq4F8SVDUPTY+iy9JLdQwtWpawyuPztYnFbgvWvxPzINBcnBiTqnKe/tEHkbKuNvXsKgAAS6PZAtpL9pi3sKsjjlwzYVZn7k36srSG5aUMcMk+VYqw2KNLfIenmQ8pYh+COq00v8YieXJx3KO21jCXzmz655GcWginhYu7/rcIxeYLvPmPTOSc0pnMV3ue04Nx95WNO1ZTD7g35KTtSq9k0AaPqc8mKEWs4l1/Oe0id22q0NaypoZKa8tKf9UafCO3PufLlB/ftK/YQDsx1ISo5ZEepxJ2jnv1oye4QEPme+9XzE6MoVWb9hXoYCsgH9f9N9J8nZb0TS3g5BG6MOEJXsUXu1OKmoBWCGe+s2SK/tShjCod7wOV65oAw2c946nJTdym0rm48Sfx678fvXLDHMHPPcKQO+eufUfN97himOiHc3URmxbLaKDqYPTnvM1vTr+Nb1s3PQnTbBilKnRJ/8I66+0mNQurIuDcvZ1zouPnB3btAFU0UvldJQtd1E309z9wThRyzuvaW9Gu+ZFzopCjqrR1nP+UdJXk5Nbe/BRSxSlVkXtwVIAt9egvVV1y8Z07LzIuMkBgKE3b8WWRBag/k7QrV93kJps60fT/ctV2k86aJp58EtSnz+kmB0tRnZlXBoDjq0hYvnjBQ32NduordeMUMXI+o83dcbwKACjP8AWL4/7iL+z5BsV8d2jT8bIW3zkJMVExM305TBMAOPsuXrI4bqaIBXCkirjli+Oiw3zsnqg+W2iSzoxdEhn5KI8FoL5SfYUXOGNe3ItzAp11qs/T0qsGqsQnbGHckjnyHv2Rlj4mdYexuLQaAHNRXWqBWObHhzln+7ak07WusqdiIwI8anKTktPz7a/HGwvTs82ymWFiW3gNqu1bkk6XtXgFRClDA++7ovnVgqFG2FyWkrzrQBlkM+cv+7O3oeDga9tz6wFN5u6ks9WMl5/SpyGroOt62pzzr21Jp7WjfEOjpnk2lKriN39ZYfe3Y0pzVbTfsujFMQpfD4odOM2PA33Ot1UAmNLifDP4UwNkdvmqV1exZ3dpOYLNZMqPJH5erGF5KUMEFXmlndOAw9zMnnTpqekqrUXwaID41zOZ2p47KbAADPEeDKMtyPmd7zMezPl/p1kUW9fHpSYuFH/778N1gCMaDG6KJUuSo30ufaXmL1yy8Y2nPL4tLLXqMj4tFi5dl5oQt3maPuVQqfhxiaG4qB5A44Wc33zDH9Slf1oqXbEuNSFua5hx5+HS7kme+tyPVS4x69elJjwrvlhQZDYa6IC4xLjUDStCq49/pYX4CUWQu8/SNQpxca94LPlfHTcpXk1dF7vMVVfeBhbVOwyGAur0Hs/FbXxmWriwUlVqAVBxvpwfFHB7L0VuZrRuQ8HBCQ6jmiuv5hvwotB6f+d2p1FOHSm+lRlwqsTB0WkU3aOkQ8d5YkXH7w4d5doBODmznDvqYtB806Gbi9NP66Xzn+hMPRA+8cpns2lYLYxlyqiLBeofqn/6HdJKdakF/D8vTo72ZS7Sz28405U5BA8Fz/XUpf3ABIaFoExVarxqAjjjfRXj4V555MC190tdJQueCwmsazh8plrzu56BiAW2OCBEfMWiSi/U2BVkGAsDtDRdaXScGBjmr+xIJjRPJg/B91U7jleNEsiUclGv6vmKJckL7TY8Kq0cAAAN8ElEQVSK5qS+S7MAxmKRNRepPquq0Jgh6rcSdx9/pY/OcOrLnMbuOli+fjLXXFVpue4575rSShPFlz/GR2NuZrERAkVsZKiQahU3l604Upz1Y2Tg47YMofk6K98lYGsQ11ZLfVFmsRkCxeY354vt38CGEiFTmptVB3f57Fdn+rIgQVVpSmlhXqOvqagalGjZ6iUR4yxS89r4PAsAmNVZ3xohmPn2mjliyiJuXhufV5j18xyxT9ehn0pePbN7gsg9IHRMYeb5InWkV2OB2kTx5wbZvZLXdBUAzO/qIi3g5ubRtWkEmxkiPF+qs9LyyFWx09j1nvp5u8qGv5m9/K7O/wWY8NSGNTOFZp+WVakq+ztQY7g8CuWlF3RhIfxBxuuWon0JfzkMNBv1jhMjl0QpXFHxk7bmx9pViccAMM1Xp/wGgDXK20tIAa5jPMa5TGAD1tGuYBiztsLsHfEAALhPmuih0tY8KJt65Vhe4/TQ4hLDo09JWrRpv+gMqUlZAKxXwdUbAFuTq7Xlnr5iGqBFUWtEgFntqPr4/QIWDUO9WWI3ENH0jseIWrZkJhcAXyYVnm3CtWGAx3L1lggAsANDJqbllzKP8PLLeKFPDzCBdSsMQ1rv5EA7AWhv68i6wnlOjfNse0w54Mf3H4KYLjnd+aAeM+fhRL83VOitR7G188GmaLxVcTMR605n5dABySGdqQeWity0LV+VqH/v7LyUpdECk7mJAQT3CwCwBJ4CCt03WCiwKBpgQNFwBGMd7FaQs4srAIpmDVIOnKnzYi8ad+SptlxUgXKTKV/a+JwvZ7BnCcbx7B+aqlSbPj2T/4uxa50lYxn6vQhn31ApW3W+tKh+ouZHI8YHBwqAmgZDG1CjWvGyqqtgfX3n9Xhz6QGVTqxcIemewTAaANb9E3pdlAwpQpOxwQQgJ3VWTucmymiob2hsAkbx+O4A6Anj3QA9ADQaDW1g3ccTUN3bdVcsXTMGLA9PD/vanaXKx3iZX5dkl040lZohCFXYpbtrugpyPloZX2ABzVNG2eX6kWvmFXg0mkG58e9nA3D35HNQNuzN7M3cZAJY93kKALD5Qg/A/rLbK2ypvCT+9N75Uenyv364cdoAqZ2WLUrcGADUqVYn68QTbS+j8E8rUpV2PfZ7u2c4YlT/1YEShUqN6d/rRxUbpzwtgqOe5eyzdN2SwEHnZH8+lpTHfTthsZg2Z27aoOm5s2c8+gMHB6sNgCPdESdLGjLl0On8/xUU3+cfeZuz+jCmdWepwzQP/HKmrQ4OAH45Y4w+aJtbt9RzTP3/kVo15uj3rtrm1plRJcwAycuSvKbhhG1ym/rf/x1zMwE3l6Wf1IoVUTLnzi1Xcj/eV6imRQuWPxU4jlYf3LbzZwDgsF1YgOHKFYALo9FwMwe9fjRfuXydcolZ93Nx2p70zMwvM8PiFnTMGFIA0NLns3p0a13Gni9ztG6B85dE+HCZ84fiT1X3Ktl3JdeEInvcl5NXmv9NkU4P4ZNTxBQwhuvqCAimJ0T6uXce1PV+2+mqyzmWBb+NoXZn7Bg3D0Dz6yWN1d9uGDu0CDluXA7gGhQZK+d3vi+yBONHZ7kAer3OCLhbLtUZO6Nx83AE85u+xgox1bHdzWOMXepxRK83V0mon/CMKiv9CNMI8cwAYdeOa7sKELhoXerU3JTtqsyvchcEzBSOdDPHwcBmw2rU1ZohYptqdSaAM7zNvBbbhQMwDUYT4G41Ghp77v29IO2sDiLFxkUBYq/rm14fr1gZsGH9gTJZtK9wkpfh61Kdcjrfqld9XsKPUEj6DcNL7Jql/gWyCagvqzQJQwUA63Ef3fEvsw0+UX8AKC+x+7H8i5ZAKW26qEq/4rc0qLPveXv5/FpW2uwvo6rSNucKQ9EyZoKABuqKc7Tgd7zLtoFpwzXxhPLvM2dpzPBi674v1bSJ+grjaneQlCj8kX9v2dsgjlAMOmgbaTed1p0FDk/K4eyBFyOpBxtbYjMcmztmS0axOWM6577ZjpIrHb85/jEQz3QMaRn8pxwAnFg0Z8yozgzt6NeMM5r+jubgPGbMmM5TQOqDX9Q3vBKmPu94pkWaEHbNMg1nno/vhD9cKThQYxuzsyZLpHRpUc6hnZ7+yMvWDDKZaK44X1xhhqbGAuDSD7mZ9XD1miKf0E/xujJVmb6lqdIAwFCZdZrmUDxZiC+/9ODafDrwIYEHbQEARxarK01wuVwKmu+z0u6XeLAFQUGififyHAGKzf+DyMdDl/FTz0Vc11bSrMsvqDRYGyqagDZ9UU5uI8USSv0l7uBIp8ici/NPZDPgLfD3BgDXh5WPsouKCzIKRocKXVqu6Ct+1EtX+IoBWKoyTmqF0xcG2o9Z3GWKR44UFaviN10Nn8xt1KgbH4tNmDbECKUBoeMKM78/lzUuQOpqMfxeo9bylr45J/AR/s6qqh3b9homGrMKzLaBKlsS/rhbTp5q/VaL3FX7VYEZXqHKBwf804lCFALVTq0OlCh8anfH6LOrsNz5koAnwlUqtaZGZ4VteD6CzRSJp0j5p87k7E9N+ZX/05ky24XhMDXTdFG141udodwMQJ21d0sxXz5fIRvnEyiA+mfV+5kugb9lZV3peXO0VldjgXTaE3Ifbl+H6Zv46XlT16Xv+HldzOPPxlzcFb+uwBXgTH32TecBnsSf+0LApt1Jq1looSauXC5lAXhQNqX6/W8ff0NMAeBHRock7nl3xWEnUBMil9uNJ9xDVs5IS0rcsBNOHqELI/1aNVlpqzYU8L38lE9wUw58qf7vMIlXeso/DrLiesVDi5+enrnt3RW5POGDPCHN6iuMwh5Nm+rL5F0Nlw7zmrobcNNp3TOIOhyEVqb95wtXV6W2bKse68RnAHgG0YeDukq1f7IaKgCgXknAK50bkzt+E9D/fKe7wu/T2h/f6dBPsnayezpai9r5qx30NxS2tTrjeKVA/obc1W7jmJCVCyuTjpQkvlbiPsFPOo7GJQCA+/Q10dr1+wvS0vSBYRLJxUL1QDXrc/bvTetc81t0fG8RwFd695fWmQrVpu2dd3jqClN2FYKWJjzuy+eOYf165tPzxnoLOO5eioXzlF3Je0LI0ullKXmlO/cUg+2fHCDq59qTP3fRnIo9WZnvv5XlLgr04sFu9qiPShrVabsOdt4Qrj68ay/AVr7uL3EH2JLQh+icYgvGSUP/0FGAq1ge27L/0IHzqpRccFzdhJNCJrkCQP23xzIbfV9VePcMhqt8eRWz79/p5wvSfoK7p+9CPj3kCJ2lsW8s4Xx2LOvUQZWV5ozhSx+f4kGB//RLsXW7d5zPzbgiDZ3CyzzfMWBny5e8EkfvTzufnWahhVLFqy/OEQ9ykc4Pnybaub+K5RMQPr5zW59dxcaJRQFtsJt6G8FmsqSzE57TJ31Vdvhro3yKr3tO2TA2k9EWHf7atnZe832uhvIWPKWQuXpHLp9f8c9j+Qf3X3o0IFBQrfrdrhorGOB61qLJYz6Udz1w9o3ZnAgAoOVRsXL7co8uPtixAmec4qP1AABKGveBFAAeVGxc33N9MyWK+eDjmM5HLJFi44aeBWxo4Z+XpP65+3FUQmLn+t0Q+WwAkLz2jtK2r0c8JquH8uU35CI2czE9+hKXB3B6h+G/8QP/rgeaH6pY/xUpuQMWSnZ/l2lra2tTU9OYsUr8+mX3/vvn9P/c9iZYOq94QcFxNChXODj03N7BCfR9sNahzX6kywI9Bq2/ob1HQKDuA0UBgFUPK0DzbLdMW3s9HXAcC6fRA7fPvi12THmp83aZYzbHKu+QxbP3DGt12lvvZj706v9EiW7Lpah6z9oVX1uUr3/YtURvSEw522ZtL5Mt2ZQcZhuBDthVLKrNf0v8wSvm3bgFgpuJesiYgtRZHxXzlOs+W+g9eOlrXNvMG6A7nvT8Z1rZ8uRk+e2eSx4h2jOJ27N1jqMZjFG+9FLEhP6H4dbqA+/vzkTI26sU4oEuO26RmxmtO7iA5TKE7U7j+9hI9386ULweI4E+n36D9PCOfFESTnL6sGs0u06dEye/tTlde3ztzmq+1FvQVp2ZawRbKps45DqYmtKci5XZX5Uyrv7Kqd3JbsCuQsuCpO4/FKe8tixlwpzPNnXOsI8Qa1lK4pcG8cM+rk1F2aUmuIU+NORPevXXzKGpU614/aDaAoyZEi69R3M6AK/pCRuu70OClPeC1xMXjHA4128YV8LcTYRBI3wG/p81xjfiGd9bfVAXnoflTFZmsamNdhdIo56LUvQxYTIIQ/GRxP3VLFfviCXP2o8+B+4q7kErjk5p0NU3tVBuAxQbJm4C7tWs08dUFnDc+IqFC2OG/tHo/po5NLzghA2SFpaLgMdl3QFzDkQvNzMJczfoZxKGIAjiXkX+1RdBEMQ9haR1giCIewpJ6wRBEPeUwdL6wwN/sOHOdlcHTxAEcUMGS+vvLLtbk+PDD+KdZbc7CIIgiFttsJUwBEEQxF2le7Tu4ODg6Eim2gmCIO5uPdI6RVG4byw0A33nBUEQBHEns6V1BwcHBwcHJycnvPQU/r6bZHaCIIi7lG1uHUB7e3tbWxvDMKP/kYbdx/Db5dsbGUEQBHEDutM6OjN7a2tra2ur1Wpta2sb4JkEQRDEHahHWgfQ3tPtCosgCIK4Mb3TegeS0AmCIO5Sfad1giAI4i5FFqoTBEHcU0haJwiCuKeQtE4QBHFPIWmdIAjinkLSOkEQxD2FpHWCIIh7CknrBEEQ9xSS1gmCIO4p/x+UkTB4is+pNAAAAABJRU5ErkJggg==;" parent="1" vertex="1">
          <mxGeometry x="380" y="-253" width="498" height="253" as="geometry" />
        </mxCell>
        <mxCell id="71Q63tBEPb4N5u0GWB7H-4" value="" style="shape=image;verticalLabelPosition=bottom;labelBackgroundColor=default;verticalAlign=top;aspect=fixed;imageAspect=0;image=data:image/png,iVBORw0KGgoAAAANSUhEUgAAAeEAAAD+CAIAAACC3yqjAAAACXBIWXMAAA7EAAAOxAGVKw4bAAAgAElEQVR4nOzde1xT9f8H8NcY5ygOZSNgCiy5JKABKlIKSfBFMIFEMzQlSb6Yd8QIfyZG4oXSTDLxrulX08jUVDBQA82FgtZEBcqBcrENdIAMiAN6xuD3B3cEtASZ3+/n+ejxSHY+57P32dle5+xzLuPU19eDIAiC0EhavV0AQRAE0SmS0QRBEJqLZDRBEITmIhlNEAShuUhGEwRBaC6S0QRBEJqLZDRBEITm0m79x6VUSW/VQRAEQTyKQ65hIQiC0Fjajz5EUpsgCEJDtMno+rZ6qyaCIAiiQUtG19fX19XV1dbW1tbWqtXqurq6XiyLIAiCQHNGNwQ0y7Jr/5Lsrb5ZrK7p3bIIgiAItM7o2tratX9JJLWlJwZONNMe0LtlEQRBEGjI6IbR59ra2r3VN0lAEwRBaI7Ga1jq6+vVanWxuoYENEEQhOZoyWhykJAgCELTdHB+dLNrD0tWlF3KYEufWTXdxZ42+Ez/tZF9DHu7EIIgiKfS1f06ntOABpDBlq4ou9TbVRAEQTytrjL6OQ3oBs918QRBEA3Ife8IgiA0F8logiAIzUUymiAIQnORjO4ZNdXlZdUq9RO2VjFlFeVVqh6t6AmpKirKy6p7uwqCIBqRjO4RWbuXzZ227JvrT9a6TBw9I3juKnF5zxb1JIpOhQXPnbnnypNuXQiC6Fn/8xldmBjhHbzz1yfbh60Qr3kjYNoHib0Zpr9+PdcjIHjr7d7v5DFU1zYGv/tBYnFP9P10KyJ/70fTPIJiLj5RYyYrMWbxh8GzPgye+dGazeLCv3+3scKLN3rkRehR4s3Bm/94kobP5dI9V7q6huVv03o5wczDm9P4V3nt3UTlz7MrSx4AfB2HjfrD36YH8DkP77F3vy1PiagqewD0paw3Gr76dh/9gRx1ubrsfGXK7HJsfHHK7HZ1PUgZVJh+rztrbaDKOpacb+a54FWqe/u1XbL1yJInbq3vsfKsR/cW8E8ZT/n64JRu6eme+JQYoz9yM+qW3npLYXL0+hu2y6NCbPuBLbm4cd263Yablgz7G28X9Z0rx34zdxpuxO25KnvPf/fSaYZuzWioATyoSHn33j1o6boP+tciA4/8h99F4NXEgU4jVbe3/XkuXS1wHzgmzGjKIMS+W4XZL3gsouSf3o77gdX1NvWOErjl13wXffu74/Xg63t+K9RN/PPUNqYWnL/KuzlFAQBlqaeSGYdQTxMAAPPrsZ37U7Nk5QwLvmiY+9w501/VA1Cc9HXMntR81nC03zC2cUElMRM3F9oNZ28X8F57zTT7QorCcMInkQGjKObMxn9vvAEA0Hvj862zRzW0/2PvjHVnucPdh5VcSSuBsfPsqPfHDgTUtw8GrT5VCAAYMWv3Rg9+Y/8lV3Z/fTj5VmEVeHqG5r5zwme+RFWI10z7OqthFOLk6mknAV3n8B8WjOSi+IfVwTtuW3lPMsq+cKWggjb2Dv96hlWJZO+mo9dulxRXgadvPPKtwNnTXuJ13sm1z+etS6oGANox7NSS0VwAqqwvQ9ck4o2NW2ePACrE62Z8fc3Mb+v2SUY1d87v2H/8lzvFLGVk9cqUxbPcLdusoZwTidlCtyinfgBwcfO7qySCsR5Wd1OvyGA0alLICm9zHQCqi5/Mi/nVcOy0IcXJqTll4Hsu2bZ0ONWqc5MRbu+FzBg5EB2vCKBw/0ehh0pGf7IvzLX6/IrgnVeNA/ZFTTQBgPK0Y3v3X0iXVUOHb/0v/5BgR/7Fze+ukjR8abq4KuAiQL36/u7PXHmdvEHyE5IYj4VTbPsBAG04NjTSFnpUhXjdsutGRuXlI+aEeZQf33g0/S+A5dkGLpz+ar/yi9/FxP7OcqHqNyJghR8vOfZMTqFgVSJvlTcv6eu98YUsVwVTzwWhriZ08zKk7vwiUa6GiuWP/WDJxKHNr2TJqcXbC0eZsbKSYrlqdNjSiVZU4ZlWnYSYnF+cYL5lyVj6zuH3Vxf6bw3z7Fd4aPU3eh+ET9QDABQdX7hdbmeG0vLiu3AJW/KGQWpL8f8qOfj50eyHVEvx4q837i+gBxla6VeDAsqS14SXB2z3M+fi2sYPU8Z8GeJUcnHz9lO3AfBGz104Mrdl6axITPeM7h/reFB3P7Huz+O1vy8tlT/g6I/Upr0H2DtxSqNzTy5l8mIf/vZ+7pnjap6/3stDtfoM4mij7mE+t+oa9eend/YMkuxZWlV7k3M3kXP3vPohUHu3viiRczeRU/2g2wsF8k8kZhm4TXHt1/Bnee4tef9hbwTOmj/X2aj0xvGNR7NYoCR55yZxThXf9vUhTJI4p9VArfwvw9HDkJN4oXiEmzXunP/5DwA8O++Qpe9PHNGvg+cruVUs9A54w5gtEB8+dhsAuMZjg96fv8DZpO37W3UxducPf6js/EJWvB/gN4z3kAEAnWFTQt+f//ZLFMAb5T1/6fvzQzzNW82Yk5zKjJo8O3TWxFcNKQClt3LuG458y3/+Er+RfYsu7t1zKqerTsx9Zs3/0G90m+vnKeuxI/ioyLp6B4Dq+vUcFubOrxih+srGL3YmFvGcJs0OcObLxDsjDlyrajVfReqps4ytX5vyin/9gx7vP92JV5j2XUzsnZYJ6qKLZ0vM35o1P3jS6BcpoPpKzBc7E+9Qdp5TPIyZq4kbI47lq7taER3LObZ6bdwVBc9hovdEjyFUUYFSDVh7Llj6/pRX9QDKauL785e+v+DtYZ0FNKAqlDEm1oNbHtDR4+sAXKCoRDA7Muxt45yDsfmvfxD1VWTU6hE5u+Py1Spljd7ElVFRW6Jmm/12/OcK88neDoYvT1/lbVWR/E0CP+CryKgtkdP7Jh4+33JgllFWWwWuiNoSFRXIO3vsRttxtyLGZGrIJ0vDJ+H8T3dQ1rYTsaHtkJL8XKDsVqHREPaPAqA6OxvWI/RaViFKGPOpIZ8sDX+HOhV7Q9Wq+KyDB/KdlkR9FRn18bCsHXE57J1T+wsc1kSt/GyhrVYJiw4wF4/98MBn5fbIz5cNk5+/LmheOhLQPaZ796MBABy6b58+0NJ/V39Q3/rymw90Rw7ggZWe16bQsCJp+flqTOEZjKy/8m3J7dkvWn9t8VKUqij1wd3EyvS9Dx+ioV3DmIkWFz2xBw2gSnIqscQ60Ls5R0wmL900g4JapWJfoa+n5vxakK+AtfR6Ngujie+HLxmmuk6FLk1uHn0zGuE2wbTo+K/syDddkZmYXcYwAM9k2FgT8LOPnnr0gKHeiImzXUcWlZ9NvCNXFKvwEoV+5q6u5mWqi7tTC1s1ZFkVC1BVFQzXaqS3s7tuw+tmaDvBFb/eOvzDbVr0ivuEl9p1bzRxYfjcVg9a+UV9TVGAilXZ1vx2ccft/NvVsOq0E76ts7ttUfnxY1cqWvqg7F6x1RNfvPp78ezBxVdvMVzj0WONUSE+n1YBkffsOZ4mXJV59R8R3/2Wcn3WyLGNq6rwVGK6rnOke0tSAOC5+s9+ezjlgay0r69dvV44e7BJ45R+Y0OWzm6aF1WpF8UVEE0KWeVnzlWZPwiOPp968aaf6d1OV0SHsk5fKGSp0aGRYZ6ttpeGw8ZOQH5h4vFfq41GubqP7bILAFBBrUL7tyBF65lZiQCUZGeX5Gd+FZEAQMWoTYprKGs91amYjedpipUz7DimZabbBTlFt/Yu+x0AakC/UAI0pj9PwC/ct33dSYquusNwh7Gtn49raD6kHwDeAL7qAfNIJ+VWw/mn/ihh7t/CWE/TX28V1qhyyq3cjVsVyzW0flkPAM/CjP99YTEMm4vPz+9n9aYhAAy0sq47Ki81lj8wm2gMgLK2M6Y7Go4uzi4QWPvzAJh5h3wIqG889hUknlL3ZzSf761s+MZe/yDt7rkotn4RAHCgDTT8RCJHGxwA9YDWzapjQ28Mflvf3GmAyH3Aq1P6vzTybmxwzbM4q6A4MeEK7Rzu0Zwjqvzkr/d+/1vOvab9GK6KYcEwjAowGmwCgHrRxIiLlmjggtKiABZaFLhQqR934FGnHw+AFvXYjQ7P1X/2jfLD5xP3Xk8EV8922sKw2V3s7jUyGtRmH5jJSdy5JSm9oKL5FEAV+/dP79MZNnpUv4sXb2SVWBXeqICx20gRICsvVwOyxIhpic0Ny0urAT0AqLlxKr7I/J0lVnSbnvgCPgVAly+gAaaaUTdui8Hlm5q2ekkqypVqUIMMjbgAKFNjPlBSfF/V1YrogKq8tBpcQxOLjr7QPCnKxIz/Q+YdjG3aktUUZRXwbEUAl2pcOC5/9AeRAUOb5mBv7Iz5w3pj+BsDUXgoYke77qy9wzsYV6k+vzNW+a/IcHc9ZB0Ijm1fA9ruorbvpHAY9v2RVcyYvznMKPNS1vXqYvNh5ty2PTRQo3H1Nxf/t6ibdqzJLvOz1QNjHRU/+/xxcFzWvmFXv3IuLSznVl6rqQI92LtP07rlmrnr4EGN4hqn30j9Ee4vlO2t/OX9/G+G/ZF2E/refY36dntNj6r549SJO+a+3rY6TY+UiQ/uSM2pGjxx6dKVG8On2za+s3k8HgUo75cDgLJc+QxqA0Abuy+N2n1q19av3ncXVWcdOXq++YApFwA6/B7a9sNTdParY1dyYRuwIHxjeNjkwY+27LiT9ijb14bx2FvXEn7LugcTp1fMuYCAz+MCZh4hn4Wv/Lzxv4DXGrd2xWdPpuCVt99of9PBYlkhA6CkUF4D9O3H6+yjrscXcKG6W1KsBqCSF5UDfP4L1GNWhFoFqFTVzRshii/oB3VJYd5TnettPsFT8Mv+g79WAEBN0cVNm/deKGm1oTO0fkmVdeUOAJRJjh+6wbAMA0MjfYC9ky4padw6qsGqgZeGmP95PasCgCr/1HfnC5o7YZi/KCNTPaA6K+UPRq3qakP6aCcDrawqUs/LDK1E/aysVeknC3gjhrTZCVAXZf9eAYC5dYsxNWl1CNfQ+iVVTmYFABT9nk0NMTcwMaUL84sAVGelF7AA6H48ppwBoC7Kz1MBMLI2K77+OwNAlhi9Krm4eemIHtP9+9EP6irPa5U84HLQVwccAOrE+5I0vtsiozdRIU2v03Mf4DCFW75Xcf2mlsW3hhP86ws+7XPjfK320H6DB3Fq02vKe2LouZ3yn+POs8NDvI3bT9AxMrczM1VeOiVr/KRQI0ZY0zeyzsYeNnHGz0mFj3k7Vudf/C2/CoUyFYDCX8XnS8CzeGW0ZSfNC/+4mFnCMreUAEpupSRSPC1DW89hRle/W/cz5TDcmE+rAIBL082JxufzuCj8LeH4qRF8nomD+0v8zmrhAlyekdUQc8OiM38UtZn0aCc1RdfEt5R15fkMoC7JOitmtCjTUc5WhuCNesVWR5L+Q5IKhhNdBgOA3gj3V/tlpaWe+YU3+qV+qvsl+ddLrJYNMwfA3j574o6pd+BI3fblqH6NXbfxltGt1Bw1TEa9bNJ+ehPdEWPH6l05nxizVjV6QMF5cTXMPN2HghJ2vCL4Aw0pFGUnJ15kSs7ktHRj7fWaydnEK9tWx9x2NkVRVoHh9M/8GoZNBS/0A1RZicfOVhryhMPGjur8HrYmHmEfswe/Xh0cA3D7mb8+NTzwJaqmZQ/eKuD90Z/v+egDilLzbAPm8HQp9zGJ3yxed8bUzN3XDQcOnHVaaGV+4GDYd/S6Ge/NvLVj2eqzOip2kOeCN5r7MBztYxa9bnW+qZH1G96jLyd+kzQ8xLOTkvRd23fCHWw9sPBUhWsIFzxrw8K9RROXtv3qwDXk5cdGryguvs+fGO5IIbWleH9/q41fRVyk8ZByCF5oTvfjzTKJXhlxzcjQ3NiMpwZ0R7iPSTq4YrOJoZFgEB9q8Mb6Tb+6fc28RHD5o+cuNOKqmpfu0TVOdIueGI/mgGq3j/Sbt1S18cVXZr8wIQwP82vyP70ljlLXg8pedLsPTF9ZZDjpY05tuep+atGJ4Ipq9OF03HN3Ud85c/SW0RuRo1uPl+q7Bsy9tTP2t5ig3/iWr1gLKTQcBDP0mB1SELMn9fi2kpHeI6yup+Z03GlDzyVX9nx9vGloOeuHr7MAo2lmnWW06o/EHRubjhEVph78MhX08JCxw4z4evSd5B8ulpez4BkOHjvX3735M2vpOt3794M/3zi8WQJd53DXl0Z2vENq/MYCv/zNiec/+fCi4UsjzQ2BVjH9aCcV13/Y9F3Tgbg7Z7/8Gujn/pmzlSGgO2L0COpKmgoDh4+2amigN3bpCnZ37KlLiQeTwNPjmwxzNR8AAOXik+crhs32Hdy+HMDE3c38zoXzMpg4zVjg334wvZV+o0P/bz69//jFpOMsZTLKe3aInzm30xXBc508/eeiw1fjvvnL2dYMhbmNvVBDZ4R/Qh3cf+HKyWNXdA3NX3+l+fww/r8mT0k7cPZ63N5fQb36/shRnZ7XAYBn6z3/K+82D+k6hx1wbvy33rApn0W1PltxZHDUyKZ/j3YHAKz9suH/mPB+1IQOnsLIc8Hnnk1/jHVtNcVw4leRTY8v2DoWAEzad0KNXLr124Z/2s7amohHUOZvLZg4sPnPVsXrD5/+2fA2lbi//3ljrQhoXJzIpsWZ0VDS2A8jWw/juzcvHdEzOM0/ZsgwjOD+gcLB7zdPM7nz9d/sTYWSavTlof8j0V+rQtVDqOoADiht9OsLmgMAtSyqWKjqUA9wuejbB7ymeWuq8VcdBLr/+Jhh62VpjTm/OXhTdcC+cHfyGwDdS33n+LzV50es2BT8UpuVdnHzu6skRjOiNs3uILuJnlR0avEefBzZKqOJ50z37kdTMNTreIo2BX5HWatNg9/JAQydftDpeMpTKofZxJARLiSgu10Fw3Pzm//GSz10Jg7x9xlP3BL5+FaEBuuBsQ6NZ+I+qXsupSPa0R/2xsxhvV0EQfxX+V/MaOJZG7vk2+TeroEgnk//8/dUIgiC0GAkowmCIDQXyWiCIAjN1VVG29MGz6yObvdcF08QBNGgq4z+TP+15zTp7GmDz/Rf6+0qCIIgnlZX53WM7GN4etDkZ1YKQRAE0U7jfjSHw9HSImPTBEEQmqUlo7lcrhFXp6C2sncLIgiCIJppAeBwOBwOR1tbe3a/oavKLpOYJgiC0BCc+vp6APX19XV1dSzLrv1Lsrf6ZrH67//6MUEQBNHdGjMaTTFdW1tbW1urVqvr6up6tzKCIAiiJaMB1LfVi2URBEEQaJfRDUg6EwRBaIgOMpogCILQEOScaIIgCM1FMpogCEJzkYwmCILQXCSjCYIgNBfJaIIgCM3VwX3vyJkeBEEQGqJNRpNrWAiCIDRKS0aTa8EJgiA0Tft7Kh3NppILtCse9nZdBEEQRHNG19XVqVSq729y88q1p9vCiNfbdREEQRAN53U0jD7X1tYmF5CAJgiC0CCN597V19er1eqKhySgCYIgNEhLRpODhARBEJqmq98Fz1PiYAYKKp5ZMd3GTA8B9rAQ9HYdBEEQT6er6wyf04AGUFCBgxm9XQRBEMRT6yqjn9OAbvBcF08QBNGA3K+DIAhCc5GMJgiC0FwkowmCIDQXyeieUcMolQyrfsLWKkZZrmRUPVrRE2Iry5VKprerIAiiEcnoHpGxd/Es/8X/ufFkrZXJ6wKCZq1NVvZsUU9CfvKjoFmB29KedOvyX445Ezlna2arB+Qnl0cllD7aUCFJzWe76kl+MjT8pALS3SHrzj39xlh+JCQy4UneLqWZaVKyxX2+/c9ndFH8sklBWyRP9rGpTI54c4rv0vjeDFPJ9lleU+bsyO79Th5DJdkU5Lc0XtETfT/disjbH+Lr9U506j+Y1XTy+ggfg0ceVqYnnsvViO9BbbFZyQlZVb1dBfFUurqG5SnRupg2HK8bQkiDfYhMGfbdgFwNmxH43LpNS2UevqGwRNR2/lpEx+GX2p4rEIAq4/jpvMHeix2p7u3XPnhffPATtxZ4Rf3o1b0F/FOm03Ycn9YtPSmST6bAaek4Ybf0pinkR0K20R+vcy3YH/1NJkuD7WMz8yNf5Y74jCwqer/+8kAHuqFhUcqWL0/K1GBZgdvijybbdNJf6qY5CX2cBA8VpXJm8NSwBWMUu0OOMHZsPiZ/Hig8v3XL2WKay7ImXotDPETq/JOfbUqqEpi+aAoV7IGMrQsSbGPC3Sgo4iM+ZefF+ImU6Yc2fiupBvrZzXzf5mpseq66eJfBR/Pc+M/sNSK6V49lNIV/vw7vvuqfM5n/lNcPelF3xhDuSi6Cf0O9Wo06nEmpuNT0JUyl0i1C1SeZQH+dRS46uF2xLUeNeupObf+eKq+BUnzyfNWoEK+GrQMjiY35JiVDXsawEIjsPGcHz3TkA1Cc2x69V5zHCp2m2DV+n1Vfjp6yQWbroLqdx3N+XZRzTqww8l6xPsiBYn6KmrEpHQDA9/l03zyHhvaZuwIiE7gOnkOLU68oYOw6f9VCVyGgzt43N/xkEQBg+JwD670aL41UK9L2bj90TipjwBsgtHxz0Up/a7oyOcJ/e0bDKER8uG88wHNZ+X2oIxeKE+FzdmfbTPAT5iSn3SmnjH0jdwTalF7eFRMrua1QMOAJTB0nzZ3vZ83rvBPJxoA15xgAoMeEH1/mxAWgytg8L+IMfNbvmzccqExeE7BdMth/T4yfsCY/affuIyl5ChUtHOI0beEcT4s22zlpXLxU6LFhNA8AUjf4rb0scPayufdLmhzCkVPDPvK10AGgEq+aGS0RuvrZKM6JpUoIxn20J9SBbtW5yH7cv4MDHYXoeEUAsoMhi2IVTiu+D3dhkj4J2nLNNGh39GRjAFBeid35TfJVOYO++jZus8IWjBGkbvBbe7lhXvHaKWKAdlx4YK3H37xLDSP5Md1icUyQDZgbyRKlvueU0SdZ07DmgAYYZZVNwJrFw3nslU2Ljl/1XmHacU9cVJX0c1uz0ALyIyGbkgrGOHJVuazd9pgxvNLTEXF9Zm5eZ6/DSDYu/c8FpzB8m6Dr/9XaMTxFfMQCeYf9SQ/vz3Ne85UPX/nT9n1/mM4cb5qLD0hAP9d6KqN5ojqP/pzraZVf3NLhaqH+TsXte9q6f+kADZ/k+opK3euVTa21KA76K+vqgXq2Dqjue13JAbgcbXB6qD4AQF5cfIbBuA0ujZ/QstxseX87nwArIXKSvk0+8mWs/f6F9pWnt8QkSyF0dLdhziVLWw3Uyv8STh6ad+TMOfqtcTY/xSeJM4McHHi2k8JCx+SeP3Dy0cHo0myFcFaQ5+ldCcmHjo9zXWANrqlb4EJRaebJvSmyVg3Z1AMxJzJ1nQPD3ASsQiqpYgCgr920kIWuBed2ncimHHyDXE1Biyy5LXNJz6fo+k6dNwnKAtAASqU3y4wcJ3lZ6Ksyjn8r3r9NODxm5uBOO7H0mrvYViH5Njateb2AsnnNUXAmOeNaPoabszfSb7KwGDNGCCZt09otKSqLcVPniZTi46e3REKwc6Fjc9RVppz4qcp+rrdFq/IUkkz7wFkzb/6wL2V/9Pd22wLNGyeo5eKfBD5T5njqlOfVUACTtm3tlnOMaLTXNEF2UlL8+lX0hq3+FspOV0THbsVGfHZMRpk6+XiIoMiT5SnVYwRWXotDHWQpsUckjI3PHE8r0AZ2f/82Yjz7MUZHvoxkXMY4ubzuakZB+kgLgUC2f9OaeJpi8qu4dl0Mg9CWNhZcAKaiF5WpMjiCEg214QEoyJeJ7Gx0APCG2prsypUr6GJhwyQDOxvh1Y46U0hzYfEGH4Bg/MIwQHHsby8boWl6KqMt+4Ouq5WW6lF9tACAoq/nPwCXq9X8oaXovn0AAHVg6wFQHC1Ai+UA4FBa2j0/UM5cPnFaYfPe5OYcEflGbHuHglrFsk70DbFUkpungE3OVSkLoc/ClcF27A1q0fLTzQOswuEePibyIxLW0csDWfHSMoYBeMZ2rsZ2gpzYDjJ6gMPkQA/HovKEM/lyRTELaxo8CxcPC6VK3DajVSyrAlimrIpr7ejl4tmQIrTQfrwQkpxDJ7JpUyfP8dbtuhf6fLBydqsHh7y7YQdFAyyrsq9JE+/OzstlMKTTTgQvu3i+LFfGtc5o0C+PsR+QLE7PVASaK9KlDNfU2dkUlclJV8oh8p0/20vEVVnWZC77Pk18Y46jc+OutOzHk1d1X49qu/vGcwmc95YDPQ4ZV7ZL0q/KAs2bBrd4rsER85rmBZNyIaUcIr+wT/wtuCrLB0HrLqRckPqb3ut0RXQo42yyjKWcQtaFj2sVwgZ2ruPt8orij0gYoYOHp3OXXXRO6BOxzTk/40pa0ufh4oB1YfrtpjNJuw8o3datdOPj9z1zDj9Zp2qACwA0/ejIm4oGWp8m1P74pLr5kW4etSN6XU9l9IP6eoDDobQA8CwQ+4oW0A/12HUCuQC0tN+ZgHeaGif9gq13e6iQTilOx6XRrivdm3NElXd+686jl6WKpp0erqpKBYZhWED4oggA/aKpkIuWaOCC1qIAFlwKXLB1j/v1Gh1dXQBcmn5MO/BcAudlKA9diN91I34Xl2/vFxoe+PjdPeHANmO/zK24mO2JV++UN3+2WfbvH9bSsXN24IlTr2aUWssyymHs4SgCZOVlakAWv8w/vrmhspQB+ABQk37yR7nF1GU2bZdTXyCgAfD0BRTAVDFNkQSuQGTcKlkqlEo1aKGRkAuAMjUWAApFmaqrFdEBlbKUAVcoMu+Jm+2WS75P0/X1cpxgPhR5H98sxutAm/36KqaKEprwASbjUmZVnWkXp3ywuVIpO8aGm58rE4hEwM2mCWbmljKptMbFXofJyCo2HWkqUhkpsqQsxtBFmVIFhICuDsVUMgCfyc1VqEWA0May+lCWAhZC5blNWxST59GAWgOPZRJ/Q09ltKxMzWpRwwcitgLMncoPClUDbfjLrerqG7bzdbVnLlT83HjAWavi4TO/Q11N5sm4PIs3F9nrND2iTN63O0VKWU8OneoopKQHo4zc4JQAACAASURBVA5JAYDH49GAskwJ8KFUPqMzOmhTz9BozxBGIU07snVP0rHYJK91kxsSWAt4dDeqAbf1H/KErbFpBXzHgFDvl/mq1P3r4vNbJnbRSXuUvbMd78JVyek0hQKit5wsuIA+X5cLiLzCZo8RNH3h0X2xcWunSDoqxpjl49sfLFTI5AzMeaVy2QNAqMvjomN6AgEXrKJYoYYFVyUvUgL6+voUj+1yRahVgIqtac4jSiDgQa2Q5TOweKqYVl7YNOdaHwDgmvisCAQA8IV60i1Lk6FDQ1v0Vog59BQ2RQc+3twncomLAACETl7m674IzzM2shnv63wlft85Y8tO+tc1rE7dGHXoXjE7MjBS1GrDY+Dx7ylbt6yIpLksTPwXu/F47FTPlG2hoaeFJuZCU0ANi3Ee9Befr7tppG/cR8QFAJvpcyw2bvggGehvMzPUXKCwZr/YsE53WbhPJwPihMbrqYyukT08W05NtMVyCqmVuro8jDLmoFZd1XCTai1OX10+v2nniafC/ZInjIzuoRQfS2JHhXk98sbVMbK0tRApfzkpa/y008NH2dDpGT/tP2TsAvFp2WOGQZm81LTcKsjkKgAySXJSKXTNnZwsOmlelCnOUrCMVAmgRCo+Q/G0hPbj7ITX9q+5QI+yF+nTKgDg0lRzovH5ulzIJHFHEhwEPJGjm3Wn2zctgKsrtLKyNCxMuNn2ENOjndTIJSlSZV15bhWgVmQkJVdp9RE5uNgYgOfgZK9z+eqJ0yyEk18zB4ABjp6OvIwrvySk8JwtddkyRe4NxdAP7SwAsNkJcXmmXnMdHwlGVvKf1Zukwtu/SNUQOdiJ2k9vwnNwc+anXYiL/ox1GpCflMLAzMvTBrSw4xWhLzSiIZeeixMzxYm3WrqxeeN1UVJ82o7w6NzXRZBl3BHOXONvwwUAgT4PUGWcjk2oNNI1snN16PTcE96E1ccmtH0oZh0ATAjd0ObxMYv3jmn9t3Bc6Ffjmv5w9gCAccMBYG5MeLvnMBgTFOrQ/JfF7JiVjf+kRO2eRcd62qcxbc66MfBduc238d8BAACBQ9CnDq0aBH61P7CzpSOeCz137l3fnWfLq17t/68h2k6UFvugLreIWX9NfamWHgoAXLdX4dbcVlm/KIkjr++xWtpR5ycclwrHr3ca0OpBgUfQbGnM4cvRcy8LLMbYCCnkAQAMvOYtyo/eKz6ys9hxgoPNjZRHjg+17rk4de/2I0WNf2Wc2J4BCP0sO8to9mbclk3pjRunopR9m1NAO4S9ZifU06f+PH0ktUzJgmdg4To70LP5nFyLcTMnZO67cPXQ1svguax0sXbseIfU1Geuf+62uKRVCy4YWDuaCYFWMf1oJ5XpR2L2Nx2Iy0/YvB3gea51sTEAeA7O9lTaFRWEDs5DGhrwXT9cw369/2Rq3L5z4A3QFw0dZ6EHAMqUo0kVdvPfNG9fDiBy87D8MzlJDtHowMXT2w+mt8JzCvlkMb37yKXTR1S0aKTv/GB/C26nK4LnMnWmuPDQtaP7qlztB0OW19gLbRO4cgW972ByWnxsGk9o4eIkbHqhBG5Tp13Zk5BxbJcEtONCRwch+fUhQmNxmn/MkGGYWWf5//Ftmfbv+M7nexJ1D2trqtQqtr4eHC1tDqWj3ZenpcWpf1DysKbtGJn2gD79dTkA1FVs5V/QMaL7dvZN+G9ovSytMRc2vB/DBO1e7fnoxQjE01DnHwlenmS/ZtsC6zZj0akb/NZeFr4T3XIuB0EQT6YHr2GBVh9tXp9Hn4DT17Bv305m4erSAt0eLAkAUAaLtxaNciUB3e0qq3gu7y4eb/3Yg6IEQTyhnsxoTSVy8+t0MJR4GgI7H3+73i6CIP6r/C9mNPGsOS87drq3ayCI59P//D2VCIIgNBjJaIIgCM1FMpogCEJzdZXRZnrPrIzu91wXTxAE0aCrjA6wf16TzkwPAfa9XQRBEMRT6+q8DgsBIl2fWSUEQRBEe4370RwOR0uLjE0TBEFolpaM5nK5en1QTH6gkiAIQmNoAeBwOBwOR1tb28Os9nAWiWmCIAhNwamvrwdQX19fV1fHsuzRbCq5QLvicXerJwiCIJ6BxoxGU0zX1tbW1taq1eq6urrerYwgCIJoyWgA9W31YlkEQRAE2mV0A5LOBEEQGqKDjCYIgiA0BDknmiAIQnORjCYIgtBcJKMJgiA0F8logiAIzUUymiAIQnN1cN87cqYHQRCEhmiT0eQaFoIgCI3SktHkWnCCIAhNQ+6pRBAEobkaM7qurk6lUn1/k5tXrj3dFka83q6LIAiCaDivo2H0uba2NrmABDRBEIQGaTz3rr6+Xq1WVzwkAU0QBKFBWjKaHCQkCILQNF39LnieEgczUFDxzIrpNmZ6CLCHhaC36yAIgng6XV1n+JwGNICCChzM6O0iCIIgnlpXGf2cBnSD57p4giCIBuR+HQRBEJqLZDRBEITmIhndM2oYpZJh1U/YWsUoy5WMqkcrekJsZblSyfR2FQRBNCIZ3SMy9i6e5b/4PzeerLUyeV1A0Ky1ycqeLepJyE9+FDQrcFvak25dCILoWf/zGV0Uv2xS0BbJk+3DViZHvDnFd2l8b4apZPssrylzdmT3fiePoZJsCvJbGq/oib6fbkXk7Q/x9XonOrWTyer8Q3PfWbQ/v+URZfq+pQtmTJri+2ZkQo+se/mRRVN8J0WJa/7R3I+uTXXmLv8pvl4t/83YmN5+rtQNfl5TGhaT+SnKz2uKn9+CZTsuP9HysfK03VEfzF4wJzBoztzIXefkbMftFJLU/E4m/R3K0xEhsbInaMhIL2eUPv3zaZauzo9+SrQupg3H64YQ0mAfIlOGfTcgV8NmBD63btNSmYdvKCwRtZ2/FtFx+KW25woEoMo4fjpvsPdiR6p7+7UP3hcf/MStBV5RP3p1bwH/lOm0HcendUtPiuSTKXBaOk7YLb09Q0zK0YRSu6BJ5s2PKFPjTv5eZvPO6sXjRPrPxUn3XIHNOA9WKZOcy1YOsHYdIxK8bNRFc55L8CYrWdrWqEMJcalTx/gYdN07I9nx6aG6WSt3jBHSYGXJ0as2HDGPmWnxSENleuI5aqizOf10S/PkcpPjJB5j7B9T/3OmxzKawr9fh3df9c+ZzH/K6we9qDtjCHclF8G/oV6tRh3OpFRcahr2VKl0i1D1SSbQX2eRiw5uV2zLUaOeulPbv6fKa6AUnzxfNSrEq2HrwEhiY75JyZCXMSwEIjvP2cEzHfkAFOe2R+8V57FCpyl2jTsF6svRUzbIbB1Ut/N4zq+Lcs6JFUbeK9YHOVDMT1EzNjXss/B9Pt03z6GhfeaugMgEroPn0OLUKwoYu85ftdBVCKiz980NP1kEABg+58B6r8YEUCvS9m4/dE4qY8AbILR8c9FKf2u6MjnCf3tGwyhEfLhvPMBzWfl9qCMXihPhc3Zn20zwE+Ykp90pp4x9I3cE2pRe3hUTK7mtUDDgCUwdJ82d72fN67wTycaANecYAKDHhB9f5sQFoMrYPC/iDHzW75s3HKhMXhOwXTLYf0+Mn7AmP2n37iMpeQoVLRziNG3hHE+LNts5aVy8VOixYTQPAFI3+K29LHD2srn3S5ocwpFTwz7ytdABoBKvmhktEbr62SjOiaVKCMZ9tCfUgW7Vuch+3L+DAx2F6HhFALKDIYtiFU4rvg93YZI+CdpyzTRod/RkYwBQXond+U3yVTmDvvo2brPCFowRpG7wW3u5YV7x2iligHZceGCtR6s7IMiTjl/VdY9wbZXFbFUVoG/5ip2ocTdCfmRRyKE71p5v0RkJUmVfC88FH8xzEQKdrAguIz2xe9/xy1IlBINH+cydO204HwCbd3rLF7FpRTB1n2TZfJGv+vK6KRvSjP227fAXSffPWRpf5Rbx3VIHAGDyk77efyRVqnhAC03tfD4InSwUd7I2TV1nL3StTI64kK00dpoZ6tu0pSyX7N6064xUKbCb5txqbenwRWZ81VD9Q1KGqQK6zrjKtESJ1cydY4Q0ANAij/AdrqABQPbT9l0/ylguCxOvxSF20h3xGVlU9H795YEODTEt3bHgEDNaqC5WFip5b34QNl51JHSbwpKWPXAJD7XL2Lr9RAFLqyF4PTDMz5qWJUevj1fwjYSDeaxaCMiPhOzhrVztYwD2XFRoztRtC6yZ34/F7EpTArT55MVusn0peUzuJtGHoZ6iLhbgOdNTGc0T1Xn051xPq/zilg5XC/V3Km7f09b9Swdo+CTXV1TqXq9saq1FcdBfWVcP1LN1QHXf60oOwOVog9ND9QEA8uLiMwzGbXBp/ISW5WbL+9v5BFgJkZP0bfKRL2Pt9y+0rzy9JSZZCqGjuw1zLlnaaqBW/pdw8tC8I2fO0W+Ns/kpPkmcGeTgwLOdFBY6Jvf8gZOPDkaXZiuEs4I8T+9KSD50fJzrAmtwTd0CF4pKM0/uTWn9VY5NPRBzIlPXOTDMTcAqpJIqBgD62k0LWehacG7XiWzKwTfI1RS0yJLbMpf0fIqu79R5k6AsAA2gVHqzzMhxkpeFvirj+Lfi/duEw2NmDu60E0uvuYttFZJvY9Oa1wsom9ccBWeSM67lY7g5eyP9JguLMWOEYNI2rd2SorIYN3WeSCk+fnpLJAQ7Fzo2R11lyomfquznelu0Kk8hybQPnDXz5g/7UvZHf2+3LbBpR1UtF/8k8Jkyx1OnPK+GApi0bWu3nGNEo72mCbKTkuLXr6I3bPW3UHa6Ijp2Kzbis2MyytTJx0MERZ4sT6keI7DyWhzqIEuJPSJhbHzmeFqBNrBrfYsaVhJ/4o7FW8vtWu/6NRz7pbht+1dnS/L8Zs42TfrP6YTNe2yGR7gO6HhFKM9sWr07HRYuk92QcTrl0GqGt3W1j7H8ZPQecQElcvawlCUmFQCP2dssF3+5cksqIxjuMe1lPlOQKfuTRedrs0NMyu7oE5mMgbXnSIgT0tuPQnApAOxjbwlRJFcILS1av2o0BQDK0/85zQ/auNCCVmVsDTt0wSl8yuiTrGlYU0ADABcy2K/8yIEuPR3xUXzGOF8acqX5lg0+fCZlw6FKj682ufDY7H1L9ic6rzE99gMzcd2GCXzm3IaF1zosRZ6wK83yw+hpZoxkxyaxTqjP0Muy6f9VAY2ey2jL/qDraqWlelQfLQCg6Ov5D8DlajW/gSi6bx8AQB3YegAURwvQYjkAOJSWds8PlDOXT5xW2Lw3uTlHRL4R296hoFaxrBN9QyyV5OYpYJNzVcpC6LNwZbAde4NatPx08wCrcLiHj4n8iIR19PJAVry0jGEAnrGdq7GdICe2g4we4DA50MOxqDzhTL5cUczCmgbPwsXDQqkSt81oFcuqAJYpq+JaO3q5eDZ8Hmih/XghJDmHTmTTpk6e463bdS/0+WDl7FYPDnl3ww6KBlhWZV+TJt6dnZfLYEinnQhedvF8Wa6Ma53RoF8eYz8gWZyeqQg0V6RLGa6ps7MpKpOTrpRD5Dt/tpeIq7KsyVz2fZr4xhxH58ZdadmPJ6/qvh7lxm9dHs8lcN5bDvQ4ZFzZLkm/Kgs0b/oo8VyDI+Y1zQsm5UJKOUR+YZ/4W3BVlg+C1l1IuSD1N73X6YroUMbZZBlLOYWsCx/XKk4M7FzH2+UVxR+RMEIHD0/ndjOVi0+I4RzqadzqsRp5xu9ycC30B7RtyzV/a5G/pzFEhenLTmRKslSuTYvQdkUoTp5NZ7jW81aG+gihHFg+Z2tm0gW5z7h0yR3AYuryT/xEjB07a4O462MipWlJVxiIfCM/DWy15eN1/ZZo56YkkwHPdW7EYheeTD9s0cH81lMF+gJaLZX+ls9YmD/m1mpNG0hFQlTE4TxWrdIdF7FteP7NIunOFZkAUANavxgvPjonZWlrTQMQWFjgsqIS4BpZDOUDUOTIhcPteABo66FmitSCMhRSFpP4AHi2NqLjVR2UweTnVlr6iADwHBdEOIJJ6rrs51NPZfSD+nqAw6G0APAsEPuKFtAP9dh1ArkAtLTfmYB3mhon/YKtd3uokE4pTsel0a4r3ZtzRJV3fuvOo5eliqbPCldVpQLDMCwgfFEEgH7RVMhFSzRwQWtRAAsuBS7Yusf9MoKOri4ALv3Y4TmeS+C8DOWhC/G7bsTv4vLt/ULDA+0ee0dC4cA2Y7/MrbiY7YlX75Q3nwLIsn//9D4dO2cHnjj1akaptSyjHMYejiJAVl6mBmTxy/zjmxsqSxmADwA16Sd/lFtMXWbTdjn1BQIaAE9fQAFMFaMGGrKGKxAZtxonqVAq1aCFRkIuAMrUWAAoFGWqrlZEB1TKUgZcoehxadOG9OTJLKHnxjHN8ygTIudszWTBs3jLv01wA+AKBAIAEOjzAQVTxTZ9R2y7ItTlZZVAXyOhAQAITE15yFSWKcFUMQA90FQIgGcqMgSKuqxNqVQCtMjStPPd5MdRMVUsuEKRiAdAKBLSaJvR4/wn/xx1ZH/YjIPWQXvXTe7sSILI0lQhllb6CgdA6BOxxwfshQ2hNwGAtvKNbD1wJBV3VQ0a3gA03dnBIHXTBDXa7fKrHnnkv1hP7a7KytSsFnf4QABg7lR+cPL+eqka9arGH0msqz1z/v5H8Q3/KX/okWP/XarJPBmXZ/Gmr71O0yPK5H27U6RVFpNDI6LWr575cuP7g8fj0YCyTAk0fk6eBdrUMzT6wPGDezYu9BQxGcdik5pfIi0AnbxB23x65QlbY9PyYO8funL96nBf8zYtu+ikPcre2Y7HSiWn0zIUEI12suAC+nxdLmDmFbZ2ddSnjf8FOTdu7RRJR8UYM218+4+4QiZnAJTKZQ+Avrq8zrJGTyDgglUUK9QAVPIiJaCvr089ZkWoVYCKrWneCFECAQ9qhSz/yc/1ZsRHz5XZ+/oMaXlI4LZww8ZQHzM278yx1HZPqS6WyQGoZDIFQPF0W22RWi8al68/AHhQrGgo/K6cAQT6AvB0eQBboWQAqJXKdrcuUEOlBqqrW06xFwgEACvLlT86yPOka5Pi6dJQVynKAIBRKtvNwlyOS5AyovELo2I+8OxiSJo3xse5+NDWZFnDWSg18jSJnNKhYWllKUvPqASgykvYn1QAcFv2uJuocrOyWQCl2TKYilptQIVW5sqsTAYAm32zQGhppm9qoszLKQegzMqQ1QGgaLpKWQlAJcstBACeueWA3Iw7ABjJjsh96Rwaqkee8bnXU/vRNbKHZ8upibZYTiG1UleXh1HGHNSqqxpGu7Q4fXX5/KbNJE+F+yXPdMOoFB9LYkeFeZm2n6BjZGlrIVL+clLW+Gmnh4+yodMzftp/yNgF4tOyx7wDmLzUtNwqyOQqADJJclIpdM2dnB495N2gKFOcpWAZqRJAiVR8huJpCe3H2Qmv7V9zgR5lL9KnVQDApVsGQ/l8XS5kkrgjCQ4CnsjRzbrTEw20AK6u0MrK0rAw4aa8zaRHO6mRS1Kkyrry3CpArchISq7S6iNycLExAM/ByV7n8tUTp1kIJ79mDgADHD0deRlXfklI4Tlb6rJlitwbiqEf2lkAYLMT4vJMveY6PrL/ykr+s3qTVHj7F6kaIge7TscMeQ5uzvy0C3HRn7FOA/KTUhiYeXnagBZ2vCL0hUY05NJzcWKmOPFWSzc2b7wuSopP2xEenfu6CLKMO8KZa/xtuAAg0OcBqozTsQmVRrpGdq4OQgAoOH1CousW6drm9eQJLV4WerscTThYLFMAraep5Se/iGJeVknOlUPHwX5oZ3uDQqc37L6XZh6K3KR0QMZPmayOtaebKYQqRxGk0vidx3Qd7528oGwejxYIDQDF5YQzImGqRAk0vpAGTq6OsRlX4td9XO1qz2dyr1Y5rwlrGMbp4C0hF+8/LS3Nk6kBRdqhzQqBrVfQONOhjna8ny6nHtxjoxRIjrc/81IhkzNcU59JHvadvV0bUfYLPg46eCA6+AcVwNJ8G7fAcD9zcM3/7Z+zJTw8QYdlB3ot9gRUNjZFBz7e3CdyiUvTK0cJkbFlVZxCUSUKWGbDhbT5lXb2n3lj++qlybSaFXjNnWlM0X5Tkz5f+cEFgWiI0FILKrXQycs0+quo6Bf1hX1NaLCAtc88p5ivwpYBMPdaPLwf8viHvozU/XD1tJe7XoTnSc+de9d359nyqlf7/2uIthOlxT6oyy1i1l9TX6qlhwIA1+1VuDW3VdYvSuLIn9kPkavzE45LhePXO7UeYRR4BM2Wxhy+HD33ssBijI2QQh4AwMBr3qL86L3iIzuLHSc42NxIkXbcaUPPxal7tx9p+tKacWJ7BiD0s+wso9mbcVs2NR26KUrZtzkFtEPYa3ZCPX3qz9NHUsuULHgGFq6zA1v2ayzGzZyQue/C1UNbL4PnstLF2rHjHVJTn7n+udviklYtuGBg7WgmBFrF9KOdVKYfidnfdCAuP2HzdoDnudbFxgDgOTjbU2lXVBA6ODfuY/JdP1zDfr3/ZGrcvnPgDdAXDR1noQcAypSjSRV28980b18OIHLzsPwzOUkO0ejAxdO7GDnlOYV8spjefeTS6SMqWjTSd36wvwW30xXBc5k6U1x46NrRfVWu9oMhy2vshbYJXLmC3ncwOS0+No0ntHBxEja9UAK3qdOu7EnIOLZLAtpxoaODkAeV5ESi3GJyuENHUcul8OgOGtfO2w1pxzKVA6x95s7x7PycPOGEZZFV23bGXT5yAoLBY2bOnutjDMB88oeBuV8cvXpwt9zxdUdRvrjhqxLX+q0Aj4wdYvF/jo56zUKI9KaBWL7n/0Wwu/efvCQ+chMCY7u3TJr23B9dm1BKfzrdeCq3Mlt8JpunGhU0zpTnMjfEV7nzzOld+629He3oM5mPVks/yVdrrtApcJlTYPuHReMXbhjfuq8xi/eOaddGMPLdsHEtL/Lkjeta+gxe7dS6qZlX+I6mc1JnAwDGhW4Y1/jATAAA72W/8Bi/lln81u1p9dd/B07zD2UxDDPrLP8/vi3T/h3f+XxPou5hbU2VWsXW14Ojpc2hdLT78rS0OPUPSh7WtB0Y1R7Qp78uB4C6iq38CzpGdN9/PurWrPWytMZc2PB+DBO0e3VXX+iIf0CdfyR4eZL9mm0LrNuMRadu8Ft7WfhOdMu5HJpGcTpiQaxg6c4w5w7Gr5UnwmftznNcsmvlhIbxHPmRRSGH5A5hhyNcdR5t/pwqF69dHH3FNGj3usnGj2/9z0h3h5ywjA4f182XI/x368FrWKDVR5vX59En4PQ17Nu3k1m4urRAtwdLAgCUweKtRaNcSUB3u8oqnsu7i8dbP7NrFroLo6Ts31nkOrrjA4wCx9ftD2dLNgf57rCbt3+1z3NxGcvfwfwUNWtTOgvwhjuN6smLjmzmxoT3YPf/nXoyozWVyM3vv+sESo0hsPPxt+vtIv4Jno3HNJvOJ4u8omI9lApFFUu1PwPvvwLvteBNVlW0rkBoQH7PVOP05FhHb+tsrIMgCOJ58T9/TyWCIAgNRjKaIAhCc5GMJgiC0FxdZbSZ3jMro/s918UTBEE06CqjA+yf16Qz00OAfW8XQRAE8dS6OvfOQoBI12dWCUEQBNFe4340h8PR0iJj0wRBEJqlJaO5XK5eHxSTn4QmCILQGFoAOBwOh8PR1tb2MKs9nEVimiAIQlNw6uvrAdTX19fV1bEsezSbSi7Qrnjc3eoJgiCIZ6Axo9EU07W1tbW1tWq1uq7usb9rRhAEQfSslowGUN9WL5ZFEARBoF1GNyDpTBAEoSE6yGiCIAhCQ5BzogmCIDQXyWiCIAjNRTKaIAhCc5GMJgiC0FwkowmCIDRXB/e9I2d6EARBaIg2GU2uYSEIgtAoLRlNrgUnCILQNO3vqaSTsRO3jqOmrLcLIwiCIJoyuq6uTqVS9bm+HWV/YNQi6Br3dmEEQRAEtNA0DF1bW4tbx0lAEwRBaI7Gc+/q6+vVajVqykhAEwRBaI6WjCYHCQmCIDRNV78Ljvs38dtXuJ/zrIrpPi9Y4ZUP8MLQ3q6DIAjiqXR5neFzGtAA7ufgt696uwiCIIin1WVGP6cB3eC5Lp4gCAIAuV8HQRCEJiMZTRAEoblIRhMEQWguktE9o6a6TFnNqp+wtapKWVnGqHq0oifEVlaWKat7uwqCIBqRjO4RV/et8n131daMJ2utvPTxe8t8117SgJuk3Pvuo2W+/z4oftKtC0EQPet/PqOLkuZPXrZe8mT7sJWXlkycP/b/knozTCUHfb3nT92Z1/udPIYqbdMy9/9LutsTfT/disjZv2qs9+LVqZ1MVsv2zFs8c7+s5RFl1tb/i5gwef7YiZuOK//RUz7GvQPB88dO3ppU84/mfnRtqrO/fHf+WO+W/yZszGo/V+oud+/5DYtZlbTV3Xu++9SI+TuvPf4lVWetf3dXS6k1v3787r60rjfqKbumbsvuaEJpWqqMfewz/gOdPmN7BalZPfIW7T5dXsPyNKi38d6alk3AX9eREYU/8uD2Eyxz8W0QHgAAXjkFe0CcBNd57bcX1/3w282eKq+R6uoJcc7gfy13pLq331GLNlxc9MStBW6bT7l1bwH/1MBZO3bO6paeFJcOX4Rr2GuDuqW3Z6gqJfGHUuvgSaLmR8pSkw7/XmE7LXT5uEEGgl4s7Ylx9ezGvcaW3U09n1c2wMJz9KAXbA26aK479r19VnfFW7fuSUi64DdySldtu5Uy6/h5ys5ZRD+rJ2xPLROfuGY12nYQt7cqeLwey2jUqwDtP3co0/+AtmHfUR/0c1oLxbsqNSjUq+rREIp16notgK04Vn3ial19H2rMxv4D//jrxx2qWmjV5PJ7rLhGyl8Pn692WuxqBgCoksStO/jbVXlFFQt9U+uJs9+b4zgAwN3zB1fv/TWHfcF1is3DhhnV11a/vevOy7Zs7p+6zqPNci79pHhhyoplwSOpqqStEzY17LMMsULPIwAAIABJREFUmPLphg9HNrTP/vK9Tce5tm8OLb1w5T4GvRq2KsBTCKjzts7bcLgIAGA/PX69m35j/6XifQf3nMsrYKA74AXrN9/7YoYFXXlpybsHrzbssMRvGBsP8F794nCQExd3T2yYuifPdoLXoJxL4juVtLHnxu1v25Ze+zImLi33/l0GuoKBTr4zwvwsdDvvJG3jh/93vhoA6JGf/jDPlQtAdTXm4yVnMGX9hg/tgcpL//fewbTBk45u9hpUI/txz3cHUmR3VdSgISNnLZj+pkWb7VxWfHKm0Ws7R/cDgNRd7lHXXnB2s733q1gO45FeK5d5WukAUCWt/nC15AXPty3vnv81Swl993nHQm3pVp2b2b+2aNHbTkJ0vCKAgoOrZn533zV8y6cu1T+u/Gj9tYHBuz6ebgwAZVfiog9eSpPXoK+endvbkfNH6qfuco+61rDjlhQ1PwmgHQPi17ym21L4vR9PZPV3Dx7fKosfMtWAntUr1maNuX3vQPCqPXcs3nyLupqQd7+v6M35QR+6GACdrAhuddaJw1tPXMtSQn+w7dtzZ8yyHwCAzbuw7ot48V2YuXtaNe+Hqq99/PYu8SCvQzsmmUl/mPp/SX+5Bp9ZagsAjOzHvccOpObdfUANMrV+e0nQdOGvnazNgZ5BAZ6Vl5aI88qMR84N9WzaUlam7dn75Zm8+wLrWc6t1pbOALPBA9ihenuk1X8xwD/K6KydEXuqRg6qK71fWKH7ZlCkp0FZysEVh/7sIzSwFVSDBlCd9d2+rZerARUsvT8LEaXuTL6apb16v96ngS+m7dz7XY4Karzg4hfpZ9GU2vcOLNlbYPsiSivu3sP4JfOmGPz6fyuyBhlW3Ld/71O30q0b47JYCmy/UQFBcxz7tX9G5YUln1Qs2jzJiou0TRE/jY6KdFYVJBxcf/ouQL0wfoa/+tgPt+4aRCX1j/C01dSY7tmxjvqHN3l3z/Fk36mzrtVrWagFnWwv64p0Sy7qllykHgD1pVTpRd2Si7o1PfIdqLWcuKSrBq/NcunX8GdpXt4dXeu3Z05fHvSqcWnWgU1xV1mg9ML6mEtZjN4oF8uqc5eyWn2nK6gycB2KrDOX7g5/zQ6yHy9kA9B92TMyNGC6fb8Onq80767QM9hzIHvn0u4TeQDAHTh+VsDyOa+atX1/sKk/rDuR/dDWN3JZQPBbNroPqwGgr/V7IQHL37KgAd2RnstDA5YvcrNuNWPW+d+qHLw/DJk+w/EFGkBpXlaZgdOkt5cv8nXSuZd04JvvbnXVibXX9OUhk1zbfD4pO2c7fVSmp8sAsDeyMllYjRk5CNXir7asP3Ov/2jvD/1ffUF2af2qw2lMq/kqf/3up+pRU/5l1aq8uxJpn3Fvzx3dr+DKD2u+bzWSoL6XlFRq5Tt9+XxvNxEFVIu3bVl/RtbH1m2W+8DKa0kfr4rLUXe1Ijp2Ky5k3Wmxop+Tj8eMcRZ00Z+lasDKLTw0YJbjAICy9QlYHhoQ/pZ1q4AGK/n/9u4+rokr3QP4LwwJGEKiIa0kLZCNFdiatAUUiuCC3I21NqsWsVW2Skt924q60tZqdUvparXF4vWtRbFuo67gqqgtUkt6Ba4oCwpYSbuAhQ1gCbZJ5CUEmBC4f/AWXrW+xr3n++EPmDlzciZn5pkzz5wE1eEqtzkvelkfqW0WAGANOIctlRcqJFHRQZ50ZdqOVFXjsB1hOLP/reQCDddn3os+guvFyfGfp9UCqEtJTFVVmUUT/T1rstKrbrY7aFRt27blTFmb2D9qTkiga4OmxnzTQ2IA47mU+BNlWie3aT5QnVYPPMHs7AHc8oPuQSj8G16xa5Ym/MXfcOTbQrrm8KHqwA3rt38Q7Uvp2wBYGvVM/7WJa5K2Lw3VZHxVJVC86CP6rTzuVSkuHFPS8h2Ja5IS53ueO5ZW21erA/RG8ay4dTFbI5gpR9Q0BWh1Lq+u2fSia+Hh1KsBS5MS1iS941WY/LV68CsOpju/O50dk7g+KSHC80pBo1w+WeC92IYDNO7lOLqLo4ODI5gSlmQCo+Oa2UBTw9z62lMMgGFmAABlz2Deh3/U1VycckYvWyDvjSPiP8QceokJi5mmfRyuFKgvVV+9DtlVdQkN4QsLEpZ70VeYf1yb3Zu9Ej0dNEekVV4yB04PglpVcsNkBDgiL7nIi19+KnXwA0OudF5UUGBtY9qZGs11HQ0JC2zPKUGeN8yq/QUaq4K02UwDbcbGJmpc4PP+CicAAEvgJxfgUuXeE5UObj4KuWRA9cIXohOirRaOn5n0GZMF0LTZr6VYlVxZXmHC+GEr4U/wV0yo0586lWMVblgTfPy451XFpdpX3WqLK4yUa8hkVzSeT89vhJs89vUQMdXuaSpd9o/izO/mBU7uHkprTqvyOP47QrjWzeMER8S+KGU1ojD/YF6xWvOqm7h7DVu+PCa2Z1s0F2TmNsLt+fc2zPKkzJ6t76zPvphZOkt8fdiOGFJh5nkNzQxZuWZTmNX1UuAll3uV/6RSXmoR+gQpJg/YqDHzRAEmRyusv/yxpa5IXQfKTcDtX5Zyi1w+SyGCuFa97ETZBbVZ3rML/TtCl5qpNlKS2L9Eh4+FYWxDxO6y9Jy68LCSvCpAMmPjhufFzV5tr+5RjfxMRFeUnm+Cm3zrpjlWVz72yIfEACWXyoxgyxfHrJ3C1vA3vXKwxnqtgM9jWSrVl2qMEjfOcFWMxN5LKmEBGOM+HsXaX6qrWtzniQAwZVJXh38BFNeFKtsdX8BiQa9rkRqBnh3RlFbXXtGufDsDAN1q8r0O9HYB5SL15gLgiN1djtXVwoXFdZc+DkB3VTNK+rwAAMaOk1pOafSuA19xME1N2WNeniwAkqgNEljUObezp/fVvY3RduM/xngAYHQ00oUft/8C27lcab9W5bD8E8J6zzxz+dmDiceK1dd7zhXK3GSG0WiiAZGbEADLzVVEoS802IFFMQEzKHtQoC03e/A4iu0MgLK/afaNExwR+13D3hxV4hUVKK7fnNc3vep109NGNLbfGNh49dvNn2XlVTX2joxouv1mdQxus1eoL1t1QV2oG6e50ghRUODjwLVGvQWoUS37o6q3oEHXgq4MVos6Nb3OM2KptP9+Cvg8FgAnngsTaDYZLT2nKMUVP2aVJ2lo0FvAGisQUQCYHkIuoNcazCN1xBDMBl0LKBexeKgbmuGUqlK/d/lDgk/vW204vS1idxkNtueLsxQDvrWX4rmMAQCXMVxAZ2w2d+/+gI6wNOoaAUeBUAAAfDchB2U6QwOaTUaA5eoqAuAkFAsw8v7gRoMeYLm5iW//FDIbm82gXMTubACixwUs9IvR/P+aNT97l/KLTdMPSmL2rZk3drh6mCyWqakVGAUAaDYZuw5sKzSGukUv/XpLNve9hAWeLFP6+g81/VeKpy9NihgyydJzbHSge+BPMR2G38lhWe75ffk9co9zHZr/NhyJ0qfM+3lPsDH/nBMFtLUCXEbXwBAO4PCAps7We9qKobSUpXxZ46mQ+43qWXLj/O7kArXRbd7qmO1bVi+e0H1kcDhsFqA3NADd58n9wHJVrF7/5fHEowkLFI+3FB4/lX69ZxUFAEPfx/U7e+uO7zqVUwm/yOiELas3zXQbXHLoSgZi+gV6cejKvK+Li65DHODrSQFjuM4U4BEa98Hq7Zu6f5ZP7r7aaVUZmfCJmjbwfKut0RoB6LSaVsCRzRku1vB4LhTo67paCwBzlbYR4LnwmTfpCIsZaKdbei+TTP6YUbDoNZpbn+ttUh07r3tKPmd83yJ+6IKkhOhwD3P5mYzsATM6LDrNNQBmTY0OYHKcrC4z1rtGcQVcoFWnvQEAhlqtERDweXBicwC6ocEIwNKgb+xXNzpAW4AWU1tv5mEMzwWga2o0g3MRt9qbTI4TExaT1gAAxhsNA4KWMV91vNQkli/Yvj1aMUJKmnILnKDPTK80AoCp8MR5/VM+nhSA9jJ1JQ1AV1EFodhF6MHSXq0FYCosqm4DYDS18YUiFlBbnKMB3XWRtgCA2NtdX6zWArDoVPtVauv5LZY6dWkjAGNFRdNjrlYXSoF0nFmtbgSA2jI1U+I5+BVZbE5zYxMAS125ph0AxG5eNWUlLQBdqVx/MKcRsNxBeue+uLfj6E5zJefGRQZAUQw7ewbQhqp/Wp6OoII34F/FcJYznhB0aj/vvO+fmTDkZKTT0rjprgNXjBJ4TXD/zY381Jrus531lFTGUheqjiU/5o/snCHOkH5M5ReKy5uhqWkHUHXpfLoOzmKfkOHuQWvLVN/r2oyVegC6yswzTA4l8AvzEhYffzvbPvBpoQvTDAAUsy8ZyuNyKWguqZSnpS5OwsmhEv5wbaEAii0cL/ES1B3/V12/VYMraanLy63QWxrLmwGLrlB1voliin38pQJwfH38RhXnncymIZg32Q0AuDLFRHZhfsHxc6NCx7HbDPryKzrZai9PAHTl8S9rxNPnBzoNbA596dhb2yqFFQVqC8S+XuLhmu0knTaZm5P97Qeb20O41V+dM8EjROEN1tihO0LgKmChruTst6pmXdrVvmpk0wLEKlXOZx/HVwSIoS3SuCz+YFZX2lHAZwN1hWdOpTUKnMd6yX0EAFCVk3KJPS3Ov9/76STwnCAI/11G2kG95jpgPanDUpeydVfTBHPe2UaMkvr9dripQYKQaV5flJbtfX+/3heFmWX0KIkixBVjzYGPQ1367SfH2IHXVZk3gO7bDp5QAFwvTjsjFF4oMQDdg3qBr3zil4X5qvXrTdOe5jZVqJsmr47rSuMMcUjUqb7ILtFV/9sCXC/eu0PvIg2NCXOVTfTiqIqzD6ZKb/DyTgyceVlbrTVSrnNmBfndJGXCDvxTdNXulGWLWgB7zoTQ95Z1pe/tRSjbHK/S1pnEryyVsgQurwjXb9yUJxCMF7lzLcCEIMWRAyvXFgjFPopZ3F1fnFL/RSKtPb5yB3PryoiYK5+vX1XgDHCmRKwbZfVqlAtHc2z9ezqtgTf/bR8WCnrXSF+OkG5LWnaBCZoZ+KdoTxbbecArOkkVAdm739vjIRC4uHJhAQRBy2ce3PL2pmQwXabNnz+G1yRO3bX2OOuvcwYfsTbiXuejGSyK0e/1fvq4/iw4vgpm6Hy06SyVnzXlfMHrvL/TtC01x09Uiqat6ZcvHRO0PLpyy5Hi+KXFfImPbCwTXcewIHT18poPPi9QJukDp0ulVwoGTTS1rlmfs/+gsueJR+GJg4WAMMJ9uBhNl6o2b+t5dFNbsGtHAVjSuMleQh6XVZPzRV6DgQZH4CaPjugb10iCFk8v25WtTt5dDCf/hCmSwKEHpK5zlswq361Kj9+QKZAEil0AqzA9uJLGEuWO4z0P4mrSdhwE2IoP/KUCwEka+hQzJ9+MsdLQ7jEmV756ddvnx1IvfLvrLDhcnvi3QeN5AGDIzUhv8HpT4TawOYA4JMiz5nz6NYgD5qx9eYQwwA5ZsWItM0V5IVtpZop95G8un+VJDdsRnOAZS7Lr9hZn7DT6+3lA0xN5WN5zEtbZ7zp4PufLUzlOAs8pPqKeN4ofOiMqP/X4la8TL4E1cUGgj4ADc15alkYi3+QzVKilmEA7BlyeKa/wUOQcK9NzJeGL5ymGn5MnnL50q/Fg4pfFyhPge/gsfn1+uAiA2/zYOeVbv847lFo10T/QrUbVdatESSJfCSpKKsj8IiNwsrsQ6qbuariKt2LovcdSLhQoS8EXekWKepo6uDfRUKLK7p7KfaNSdaaSQ0tjwlw5U+av+77hkzPZiV9Iwid6sc4MMYN44KPRITlJ5q1ZP2/QYhffmXFhfW+gMHTB/tDu32MAAFEJ7/fM7AwKeQkApPu6Zj4hZNnqkKFfjOk1M9oq8eK/aZ9/969jpIs/kC62Kjr4FQOXrQnsXjCnqzbxC9FJL/RtoojbqBj6dW0Fo/efGTY3N48+GoQ/ZvWt/PvUO6i580aDpY1FuY5iDFjRbu5obO1o6wAYYNnbOY+yY/UUaTW1G9oZfC7leAcv3Md6X6wYs/dE7DTF7Fk90g0dcRssNcqYj9OfXv33ZZJ+uegLe8I2FoteWn/o1SFit024nr3qjS/5b26MmzxE/tpw4uOZyTWBKzclTO+6qtcpY95PviaNS4mRjxpc/CHVqNr4fny+a8yeNfNu6//lqZPfTxm3flPY3f2oQV1q7AG8M0Jy/D/fvRtHM8bwhq7cnmnHZw49cHZk29+Hf6eog/v85dJB+VLijjWanH83c61c8sA+knC7jDeYvi8vmBYw9ANG/kR/vyOVeTvWBCd5xf5tdfhD8TGWX8Oo2jVzm5oGOE/5PHu70VC6+P1Nd7VVAADXeYlr7n6tD5V7neuwReLQ58UPug3/mcZ4hc/3etCNuB0c76Ao7+FXu4Vu/3uQ4bq+0Ww/cAbefwTO5IX7PU0OTlyh4NdMgyHui3uX67ABw+Q6CIIgHhb/779TiSAIwoaRGE0QBGG7SIwmCIKwXSPGaBfP+9WMe+ChbjxBEASAm8ToSX9+WCOdiycm/flBN4IgCOJOjTj3zuW3mL7nfrWEIAiCGKh7HM1gMOzsSG6aIAjCtvTFaIqiMIoPY+3IGxAEQRD3jR0ABoPBYDDs7e0xPhyFu0mYJgiCsBGMzs5OAJ2dnR0dHTRNj7qShKtpaHmQ//maIAiC6NIdo9ETptvb29vb2y0WS0dHx4NtGUEQBNEXowF09vcAm0UQBEFgQIzuQqIzQRCEjRgiRhMEQRA2gsyJJgiCsF0kRhMEQdguEqMJgiBsF4nRBEEQtovEaIIgCNs1xPfekZkeBEEQNqJfjCafYSEIgrApfTGafBacIAjC1gz6TqW/KvH5afx840E3jCAIgugZR3d2dra3t4/6qxKXynBiM8SuD7ZZBEEQBLrG0V2D6NbWVifJPBKgCYIgbEf33LvOzk6LxYKfb5AATRAEYTv6YjR5SEgQBGFrRvy/4MXleHcvrvx4vxpz9zz1BD5cAh/PB90OgiCIOzLi5wwf0gAN4MqPeHfvg24EQRDEnRoxRj+kAbrLQ914giAIAOT7OgiCIGwZidEEQRC2i8Toe6PVZKg30ZZbLG021jcaTOZ72qJbRDc1GupND7oVBEF0IzH6nig8HDfzjbhdP9xa6frc9SvempmYa7i3jboV2pSNb81cdSDnVq8uBEHcW//vY/R11bKot7dcvrUxbFPuqgVLguNVDzKYXj4wM3LJXGXlg6/kJsx5e94Oi1dp70Xdd9YR5UfigiOXx18cZrWlOvmt5a8cqe5bUl+yK/7d6VFLghckptXf1kvehFa5bklw1E5V621tPbg3LaWJbywJjuz7mf5ZycCtLiaFRS7p2k1jzs6wyCVhi95dpiy6+Vtqqdy1avnMVe/OXf3u3NXvzl2XlPqjzd941Wet2nBScwsFjT8WFdrAWMnaiPOj//OZC09nlbtNXfsM8+7W6xedkBt9y6VHT91+cOrdbcDtEkZ9tDfqrtT0S25qPkL+FCS8K7XdR8b8jOMG75jn3HuXGC6pUssapLNi104RCUY/wKbdMoonCw6mG2ovnKs0OEvkviIXb8EIxTkBUfsltTn7dyZ/m5n9B99w/s3qtxv3alxs+GgAMF4+sOzzzGc3zxbfrcY/UGX/m5n3O1+/m74D99Htxmh7Ic4dxbMAgFYaP5ZgbzJ2qvst70Zj4XQY1yFNjjem4zNjz3IWEvdjtbhftcnrMDoec1n9FhpzsITGYXm/hWolfJLRfpvN71afn5prClwU2tUI4+WTm48VFNY2GM3gi7z/MD9q8TNcANpzB+JT8stpQcgL3m1dG1qK4qOTqrxltKaaM8lfXHE+8xdB+Kp3YmRMY87O6Xu6xiy88HUJsbKu8qWJKxLT7GSK8brsIh1cA958a6H8EcBSueutLanXAQBPzv9yw9TuY8Oiy0k5kHyuQmMCx1ngJY9KeFHCaspd9caBwq4sxDdbgr8B2P4JexYFUtBmbJl7qFIaNkNYcT7nWgNrrHzrR3OlhqLEfafyNDqtCRyeMHB65JsKCWf4SvI++/Pb50wAwPTdtH9ZCAXAXLjv3VVnEb4hIfZJoCn37ZgDeW6zj26cIWytTj90WPnPGq2ZKZT4Rr06X+HR7zqn/kZV8khQki8bAC4mhW0rcpk0Vfpzfk4tRLIX3ouRezoCMKu2/jn+O4FcMU57Ll/dAH7wsmNLZSyrysUTgpa/NjfwEQzdEYDmaNwrJ3Qhq3ZvCjClf/z2lhJhzNYN88YCgKHo5CdHz+fVmuDIk02OiIvy5V9MCttWRAMAVNuWqADWMwu/XBPM6Wu4Nj2jxDl4xTSrWNzWbAJ4ns94i0XdZZTr4pKvSRTPswq/rdA7uimiFsUGCIBhOoIyqTMO78ooVjeA/7hszoLIqCe5AOiqrM2fnsqpg3jKNM/eD/laitZHJ+W4zjj00Wzxj0fnxquaJq848ycZAJiq0w8fU16s0LYyhSLvOYtfn/dI/jC9KZRHLpQ35a66UGkY67dkqbznStmYd2hf4tkKPc87apJVbzlyxW5cejwv+ceWpmbg10QozgRvj4YrWgvEplLlnpN5zYDZyS/i9cXPmFLf26eRebRdq6q6MS78d1CX1pX/xAz/8zKFQKf624GUaprVAZdnX4pTjEp573P69Q2LPYDWovh1RaGbX8KRfSkVNLoLSHojglr5brLJR2jR6+vqOfJFcSFm5XtKrZilafP/cIl3Yb9qJaza3PidKi1XIHQb1WYRAFrlhhTn2NhwPuhzO6MrXzgU5ab5Vrnlf+oAe5fQyDi3ot35NU2afeJlixSiX/Em3FO3PY7upAFWXVbjki/bOSLH1/7I3rEDnGVIaOxb3h1A25jFtHNgRyfQDlifxxaAaq81vZHQeq17iV3ND6Ps/9z8NweIp/M+fQ4pCQ0Ha9Gud+L8kQW073yn6Wu6u2hTNa8d1O22vkv5N6pCflBSALvrT11VZZWT95wIiRCV6Wm5yr0nfbcv9GvK2rIvVw1B4JRxxv/NVVslajXNgvnjq5VnzzvMCJJlq9IvlMbIZBxvedxSn7Jzx1IHJ6MNFdpHImJCshO/zd2bESyPkoBynTZvoVhfmppSoLEqSF86tjmj1HnS3LjJvLZfKvKamwHA0XvhooXymtzEjEqWTB4zWQimyMvqLVCfK3B+bkbsdOhrwAJgqFDXCwKnh3ry2gszTqqOKEVPxi92G7YSr7DItV66vLSTOU29VTJlE2X8s7lFJdV40p3+QV1ihqefjxCmnD07t+SbPae8MF/UkJmRtSUBLh8vDGT3bNdUkJJt8lsQ5mnVPO3lUr+XI5ZczdiVf/SDU16HXu4ZqFq0qhxe+Iz5CsfG8lYmYMr5284t50xi39Co0RVf5ajWb2UmfTjbs2HYjhha5cmV2zM0TGGIPEgMXXlttc7iyx8Xum6pVJN/SnnZJP39fMU4OPC9rQI06MuqwzVukSu8rYcJbR0AwBpwtFkqL1TNWBIpTE/NSktOkT25Qu48dEcYzn7+1qESePjPm4yiswXJW03Om2PDx2pTklJUNUzxpGDPn7LSa/qfG0NoVO1J3HLRxH8yOMqL23StVPOTGcP35pCM+YfjM0qNfIlCBtW3JfSA1RQTAP0rvxJC+8+icpGXmII67Vh5wMqkKVwYslZ9dLpcNhXQt7mvjJsL1da3U25s2B8jLD8St/tyY+joY3ubgv/2gT/HXLlrwz/SJq0N8bPfUqRd7CGkfyi6Os73zZJ/rDTLkz6QsSzVyrjDaZPWdl10AYDCv+GdECNjGbJW/VVVGCx3QJ3e/YOk33ON+Un9q33T46sMo3xtUhjXeC4pclCyBwAMubtVTjEbN0gtlcrP8gtDXggfX6yZbUMBGnea62jVO6gKHFo76RNlzRf3Oa0Mx84vepc79iTXKDCGr6KJyivgqLv/YIBB4TvOZWDi053tgOZ7ztdXAdi/CAD4VzHn6+beLe1GqvYWmIpSzupkc5/rjSPi51YcmsWExUybfR1+yFd/V331F8gq1CVmCH+/MCHam/6B+ceNWb0JVtGTQXNctcrv6MCwYJSqShpajABnrLd8LPgVp4aI0c7SeS8HB15vTMuq1vyioyFhge0ZEOxZb1YNiNG0mQbamuub7MYFhvkrumIfU+AXEozLlXszKh1EfooQyYDqhfJFCZFWCyWzkz5isgDabPZrLVQdqizXmCAZthK+l7/CS6v/xjpGg+Xt4+ecqyop077sXltSYaSEIROFaMpNL2qASB47P1RMtXu2li47VZT5/fzASd1hRvNtZp5TwI7JXOvmcZ6NiJ0hYzWhsOhAXola87K7uHsNW/7aitiebWEqyPxnA0Qz3ls925Mye7a+vf5CQeaPs8U/D9sRQyrMPq8xM0MWvbNpCrtvKd9bHoLyOpXyskkoC1ZMGrBRY+bX+Zj0umKs1bJWbVGpFpSbwLl/Wco9Mnq2YizEdSXLMkovlJrlPbvQvyN0qdklRkoSG7so/BEYHm2M2F+afkEbHqzOuwZ4vLBx9QyxyattZZJq5GcihsL0IhNE8q3r5lpd+dgjHxIDlFwuNYItX7BybQBbM2bjK0errdcKRvNYlgr15WqjhztnuCq6dFR8sTEujUJbkw6i0JjFU4XQ5VToyks/XXYWQLvR4qptAygXLzc2AI4zz0MsBODszGtrba6t0Iqe9OYAYEpkbvrsasyb9BSS1doXBZqLNeMDomqvnqr9vm5l/GkAdGuL789AX48wvbzGsQDwPMajWNsEUALP8VwAg6ptQB3TczoXAMd73G8ymgfvB6pryly9PZkAUxK1WgKY0kfe8QfhTvPRFBj2YDi0VrTk6fGa2PJYz3J7B3tHAEA7PWJGgmFn78DsV5LRNYSxoOv37kDcCcDekeXYVReN23u6YkV7NjOHGZAQ3BtHzOW5ysSvitW/9Jylw4bkAAAMHUlEQVQrlLnJDKOpmQZEj4kAsESuIgp9oYECi2ICNCgm7EBbBo5LBnJ0cgZAMVk3KQfOsxGxPzTsvaBK/EEFiueneH3Ty943OW0A0SP9co7GStXmL7LyrjX0TgGkzb8+N+ToHSpjqy6WFBrGab5vwNigQBFQ26jvAGpVy95Q9RY0GFq6h4KtJakqradimbT/wFDA47EAsHkuTKC52WhB930QxRO7WhVtatB3gPWoQEQBYHqM5QE6bb15pI4YgtlgMIESiN3ZI5Ua4MdvUksFf4jz7X2rDd8mRuwvpcH2nDG7X+AGYMdz4QGAy2guoDOazL0j4X4dYWnUNQEOAiEfAPgiIQeluhsNMDUbAdajriIAbKHYBagbsW31DXqA9ZiH+PZvHs1GkxmUQCxiAxCJBCz0i9H8KbPnn9+hPLJx+jFJTOLaeY8MX5PduFc3xIaPhuFc0sp8oazrnaF4IQvXxjzRW0iXCvTd6o7cbJFPoCUlr9ZVU+k2LYqJqxD/17IkxUg5dAB0d7X2rOFuQSw9KzrQ1n8NPWiJzbpb8zoYTHsAnR1dQUAcYd90Fi1n0XIWNzZhhOhi78ks7ilp/hLPjxS+mDu+7C7ZkosP7+z7klpLU87UeMrlfo49S+pzdx8sUDe7zVu6YvuG2MVe3b3LYTuxAH19PQA0NOjv6FVvGVOoWLrhy/3/fTRuoUJkKkw/mf5LzyoKwDCHV7/TQHt8/8mcKviFL0rYELvJ6gnYTSoZ1BS/Sd4cc0Xe/xQW6SD29fWkgNFcZzvAbWrcmtjt67p/lk/qvtppc05nwicqdOAJVltbZwRgqNO0AY5OnOFOWmeeix3on3W1FgDmqusNAM9lNPMmHWExA+10S+9YlMkfzYZFp6m+9SkHJtVX53UT5HOsBqP8yQuT4haFu5nLz2ZkD5jR0aHT1AIwa37SA0wO2ypOWO8axRU4A206bQMAGOq0RkAwhge2EwegGxuMACwN+qZ+dcMC2gK0tLT1pnRG81wA+qcqzeAkz632JpPDZsJi0tYDgLG+fsCYwliYefxHkzhk4faNixS3lpLmT4kIN2fsvNAICKRic1FxNQDUFylPlBiH30o0zk1fWmoEYK4sqXHxcgcgDPGj807lqyUBfo4Qj3fTl5RoAVh0qsMqdb8BmbmsrIIGYKioglDMHqFanoewobyiEYChtFTTAYDpwDTpmwCYNRotALi7ef1UWtIKmCuVmw/kNDEdYIaNTTy9S/M6HGWMKS64ltVxHQwA17Iaoo9256PNBo4RDsNt2K4xRX/c0p2Pph2K6RHiuTlhdePX3Yci9e9/38kDdsOFjHSzLC5s0KQDR4GXt8dv6vNTa7vPdtYEqYxZUphzLNnVHxeyhzhD+jGVXywqN0FTawZQ9V1uugHObr4hHsMUv16qKtW1NVfoAegrMs8yOZTAL9hbWHL07Txm4JMiF6YZAOxYfclQLpdLQXM5U/mY1IUtmjxZMuzZZAdQbOFvJF4u2uNX+w86B1fSqs3Lr9BbGsubgQ5dYU5uE8USy/ylfHBkvn6ORXlfZ9MQzPN3BwDnpxTPsAuL8o/njwoVO7XV68q/18mWeXsCMFceP1MjnhoZOGj8Sn939K09FUJNvtoCscxbPFyz2dJpk3g5F1Qf7DCHONd8lW+CW6jiCbAeGbojBI8KWNCW5KpUJl2a1fQzWai/OEeVo/wovipAjNqiGsHiNbOlFAAIRo8CzIVZJ9OaBM6PeMtlAgCoyU65zJ72VkC/95Mt8PQShD97Ou2oTqMDrI85izbl051N3ua83AY4yvzGDzeWE4SEen/xY+nehH16GQpzSmlHiWKyEI+YA0VQ/6j6JN0p8OfMzPreUfhoIR/4pTgtSyS8WGJAzwiH7yd/+lRhkWr95pZpE7hNGnXTxNi4rjTOEIeEVnUku8RQ9W8LoCvcu0/n4hUaM0Uoe8abk1OUfTRFWs/Lyxg487K2VmukhHOmB/sNd7gOtXfhrwRnJp7Me2ZhYPjCkM8ORMfbsyxOfuFRHAx7W8mZOHvx9wfeis91sND8sMglYwFAPOmppnVZnqujWAAmvRTzw771G/KdAc6zL61ztN6aKULp5q0q7S8m8dxlUgrqYatlshQz0nd9En2B5yEReNmBtghCwlzjk3fWPsYTOQgdQIMfvHy6ckv8xmTYu4RGzndm1npz9yYlOi+LjfK69Tfh3rqzGO0oYjwfAkcXvDafeqKpLfa4XWtXUsKBzRndM0Rn20m7RyB2vw3Ei109R+NfZQBgz2JyRjv0HPp2Pq3I0gz3agzH0aNH9wwXZF64pr7NeR2W6uMZFaKQd0KsM4yjg5dHVmw5VRz/VjHfw0f2CBNVAAD+1NXRNR8czlcqdYFhUukPBeqhK+2qWZdz+IDyevdfhRkHCgGhwn24GE2Xqzbv6Xl0c71g174CMGVxk7yF3NGsn7K+uNhgMIPDd5NHRvSNazyCF08t3XWhJHl/Edj+CQGSwKEHpMI5C2aX789M/+TdTL4k0E0A69zA4Eqa1Mp9R3sexFWn7TsAsBVr/KV8gC0NfZKZU2TGI7LQ33QV4MqXxrYdPpZ6UbUrFxxnnnh88HhnADD883R6k/ebcveBzQHEk4M8fzqfXgux79y1s0fInLJDFq1YyzysvJitNDPFMvmbr832pIbtCE7AC0suaPeWnN5pDPBzg6aquxbWE3MTVjJ3HTuf883JHLbAM8BX1PNG8Se/EFWUcvz7jMTLYD2zMFAWzIE5LyNL4zFtk2yoUGvHxODhFeUdHoScr0r1zpLwV+Yrhh8yCMOWbTUdSDxTrPwa/Md9F0dGho8F4D5/6dzyT0/nHT1c9UxAoKha1XWrREki5wYXKfMzU08HTnIXoqRnhM1VvLGSPviPlIv5yqvgu3pHCnuaOrg30VCSk9U9lbu+UnW2kmOWxkwRcgIi1z1X/8nZrMQjkvBnvFlnSwe3lnXTW2tKErMttu9PtxlJ27p+845as8F64ua8uLVdvwQu/TCw662YEZsEAAiJjg0ZUK1oRpJyRs8f3JCoQQV6uEhnx03p66beVwElGFit29RNH/Wf1TplUdKU7l8XAwDEv1+U9Pu+9WLF2qOKYV74Aen+X1nt7e3Nzc2jxyjw08m+lY/NHnY7e1f63DFW1xy7drrzxystnya17fzXGHth3/IenZ+tYqhmdKY9Z/2MrzNhRYf9m9SAuXeXlZ2TkhntwMRFlrxXkfAa9e5VAHjxLwM2R3thp3AVQzfizlnvixXjhaSIfaaYrbG3eENH3CpLtfLdj9KffPPvUZJ+SauLSWHbikSzNvTN5bA1v2SteucU/08fxk0aIn9tyNgy81BN4KLNCWFd+Rytcl1ccq0sbs8KuePg4g+pRtW29+KLXGO2Wk2isD3qQ3EpHhs2TbnLH2iwZbc7jm7XmgP9eyMkBbtRoEaDMWB5z2swH0X+z4y/WA9EWGCOxsu1sZ3WJRmgHgVFAbi05wbzU4Ap6HpmeCJuwOaA3RjYj7qttuvgPv816TQSoO+6JpPzs7PXhkhu+lDU1hgbmL6zFk7zHfoBI/+ZAL9TlXn73gpWesdu7/7sxn8SY87OmXtKaIDzpN+zN3lQ94BJX4nf9KDbcJ/ddq6D4QSW069Ybj/UtZk5/DREStDvycuQm98m8eQZ4rtXG9FntHf4i94PuhG3g/NEcNQTw68WTd3+abBBp2ukmQNn4P1H4EyK2i9pdnDiCfm/ZhoMcV/cbq7joTBMroMgCOJh8f/+O5UIgiBsGInRBEEQtovEaIIgCNs1Yox+aoTHKDbvoW48QRAEgJvE6A+XPKyR7qkn8OGSB90IgiCIOzXivA6CIAjigeoeRzMYDDs7kpsmCIKwLX0xmqIoPDoGmpG/IZEgCIK4f+wAMBgMBoNhb2+P11/A+5+TME0QBGEjGJ2dnQA6Ozs7Ojpomh71VyU+P42fbzzohhEEQRA9MRo9Ybq9vb29vd1isXR0/Mr/a0YQBEHcbX0xGkBnfw+wWQRBEAQGxOguJDoTBEHYiCFiNEEQBGEjyJxogiAI20ViNEEQhO0iMZogCMJ2kRhNEARhu0iMJgiCsF0kRhMEQdguEqMJgiBsF4nRBEEQtovEaIIgCNtFYjRBEITtIjGaIAjCdv0f5tfAr8LGZGgAAAAASUVORK5CYII=;" parent="1" vertex="1">
          <mxGeometry x="380" y="30" width="481" height="254" as="geometry" />
        </mxCell>
        <mxCell id="71Q63tBEPb4N5u0GWB7H-6" value="" style="shape=image;verticalLabelPosition=bottom;labelBackgroundColor=default;verticalAlign=top;aspect=fixed;imageAspect=0;image=data:image/png,iVBORw0KGgoAAAANSUhEUgAAAWwAAAA2CAIAAABsnzTLAAAACXBIWXMAAA7EAAAOxAGVKw4bAAARO0lEQVR4nO3dfVQTZ74H8G8SZoSdiMSjjqtJq+Eo8VRwN2a3gAfhlsQjpRdfDtVdq1eKV1BRt1SvlV6rrtrVpWVdwVd6RdpazooeeTmlWAldUk4Bz0asoecYbAl4k9LGehmgzKITktw/IAgKgiJQus/nL5w88/CbMPOdmWdeFLndbhAEQTwp8WgXQBDE2EZChCCIISEhQhDEkHg9+mMyYkIQxKP1GyLu3kayJoIgxpC+Q8Ttdrtcro6Ojo6ODqfT6XK5RrgsgiDGCtHDRxmdCSIIwvlaSt/g1XJvVAojCGJs6CNEXC6Xw+E4d0Niafb63VxMYUalMIIgxoYHr850joB0dHToG0iCEAQxsD4u8brdbqfT2XKPJAhBEAPrO0TISCpBEIM0wH0i3SwcPjShoWVYixkWMyZgTRCUstGugyB+pgZ7x+oYTRAADS340DTaRRDEz9dgQ2SMJkinMV08QfzEkWdnCIIYEhIiBEEMCQmR4dfOcxwvOAfZ2sFzzRzvGNaKBklobeY4frSrIH7qSIgMO9PpLWtXbTlzfXCtOf3BNfFr9+u54S1qMGz5b8SvjTtWOdj4I/5FkRDpobFwx5L4DOPgjgJa9bteWh6zvXA0t3bj8bVRy9efqB39TgbgMB6Oj91eaB9SJ7bcpOUxSw4Y2p9SUf2xXtiRlGPtMcF8eltaWR9rhbWi+tFLZM7cerDUAV6/b2O25XGzuDx1/dGax5xndAz2PpEhoqVYMQ8LJ4OlIdxDjRVZ12FzQvUr/DmgV0vOgg8o/EHRe/4OpBXg845hrdFhulhsefbFLRrq6fYbtDmrcPOgW8uiDnwc9XQLeFLyFScurngqPdn1+eUI2R7JPpXeRpxqXZrq4anO+sqLVcrn1axk5Cv6aRmREKHw6kK86O38ew1/ptn9y2ekv58l2S3B5n/A7XTChUvlLV94Tr0dDmkj2t6qAcb7JIX54JuWYzedcFO3OsYPb5GcIf+ztvlbozrjizfmpH9QbrI18QJkikDdus2rNX4A7KXH004bLAIbsjxQ6JzRWZW2PNU6V+34xsKELlTcLDXYp7z45qF4NcVfPvD7w9UAAL/ot7MS1Z3ta06t2VMkUevm3K64Yse08A17N4WzgLM2KyElvxEAMG/9+4eiuu6Pc9orTx8/W2q28mB8Wf+XknavCqBb9btWHTd17twKU2IKASZs97lkjQT2vJT1mbWqxbHsTX3lrWZqWsyeE3GqO1Wn0nOM39jtPBiZXLMkYUNsANN/J8Z31+wr5QGADk65uCNEAsBhOpK46xKiD2UlzgNa9fvWHDc+u+q99Fi2vb4kMzO33GJ30OyskBWb1uuUvYLYXFBoZrWpz3c9RsEZc06e1l+18tQkZejyhPiYmQwAOAx7V6cZ2fBYlb3UYOYgi3zjvWQ1LMUZ7+RUNkL+whL/HvdRC9bysyfPl3xlc0j8lM8vjd8Yo/LttxO6tSb3SHbRtXrOSckmKcMTdsU//xjPdJhPbMybnZ4ytyrjnXyrkxYEJjQhWWPJLvraKttfKH0rRtWZI0J90buZJT+AviuwS5K3LZb305/DWnQ049PbtEQQpkdt2apV3NXvS6lmJ3NN85I2TCo8+GEdzbKqiTwoALBePn7qY6sgEfBg4/hlwrmsL3hAwDNR25K1oxVnIxEijMKlHS/6srL1na99JGK4b7V8872X9EcfdH5JcLe0Sr9s9bQWUyKM51xuwC24gH96f8mJAInIC6LhLNJSUGiaFJka1rVuNdXV2sYHRq+ZzeJmyUf63L/kBGVvCmotzkjXm8FqXlDxpXpzjwNU24/s0jmW3Eul9LJI1eXCEkNNvFrNzF2yLTm47rP38x8eELlTa2fXxuuKTxXpz16MDN8YAIk8Im6T4k5N/unynsfSQsX76Xk10tC4bREywW42tvEA4B24Yuum8IbSU3m1lDomPlwOWuHfYx0yf1YujXk5cQm4BtAA7phvNE3RLIlSTnSYLn5kyD7Gzktf/Wy/nfhHJWyZazd+lFPZ/XcBpVqgkV3Sm67VY95M4Xr1DQHK4GAWfOXh/RnlDmXky4kKznCxOGMPZCc3abo30tbyvMttQQkvKjvLa7hwcP8Fs3eAbllA25XikhO723wzUiL8uho7bYbLsujl63U+zZZ2CrDlp71naKAUoVp/6yclDQANAGivObP3cNEdeciyuDlOU1Fe9h/bf3F8r1bWdycwfXD4bAU0KzfpZsBeV9PU9iTj1vayT6y/2ZG6koW9uqiOU8Ys0XxsCOlOEAAcB01C6qKZdKt+X3KxSbee7rOjO/pTBeNWHzkY5MMb391+pixk9wLgO7vsv9ISFfVZG+s0b6WtUDhMR7aWAOCKzxT7xb+7SUk7TEe3nS0LSbnfuCptHbMic5eGdlhKDRwP1vcJFuspGIkQ8R8P2tVhvjOBGicGAIr+sv4uJBJx97dP0d7jAAAuCG4AlEgMiAURABEl9hr+gRu+Kq/YrvqPpUpPSYqYXcdWUnA6BCGEvm4wG+ssdqhuXjULYKM37d4cKFynknYWd58Ss/O00dNtuUZBE6XFV4XmJp4HmGmB4dMCZTdz+ggRX/XSOK2msbnoUr3NfltAAA1GGaZVcg5D7xBxCIIDEPimNkmAJipM17lx0mzQIhbGm2fzaml5iG5RwAPds9Gv7V7XY+KsV1JPUDQgCI6g9kpDZq2ljsesfjuRPReme87GFfQMEdDPBQf56g3VNfa4mfZqMy+Rh4bK0aovudIMRcyGdVEKicO/vWbHuUrD9fWa0K6DEevH+VelCw94YsJS+rlZoEK27toSyWCR9LWNOVdLjHyE1pM5TPjmXYmeeWEvNN4ClC/vfCtWwQcKa1MNDgAQrunLGiFbtGrD8kAaanxdnXWt3Niq1fn21QkApwNAW8s/MVmtC9MyT7THlqnn49DbB39YqAkO1oXK4bz9YAtfGX3zo0PlNEVz1rYpgifxHtRQb1UEqnwAMHPmTj9VZ8OCcZSvv0oB3K2ztfsvnQaAUs2dTt8A6upvNJpPvlkDAO2gJ94GPI0lqtC5OafePGxeEBIaoVWNUoJgZELkrtsNiESUGACjRM5vxMAv4MapPNQBEHutXIyVnsYln+PodyNQVC/24oJKOnz3C579IRyWz46ePF9ltnt2WRJHmwM8zwsA+4wCAP2MnJXg/riaBLSYAgRIKEgguAZ6lZOPVApAQve9nvXAhMUlmrizZYWnrheekvgFxSanxAUOeCzOTu01/sB/XZB+/JOrt5q7rzQLwuPvjX0CQ9WMoeKq6U6A1dSMaVqNArA2NzkBa+GOVYXdDbk7POAHAO3V+R/blC/vUHmWs4njIJnIPsMAACtnJbA03W4CupZIIlNM67Hx8208QE+VswAYuWIy0AgAPNfMA/zl1LWXPS0lHNcE+PbVCRD0u6Sl373/SUn2wUvZYGZG/+GtxDA/PCZ6VmzqUa35WmVFQeqO6vWp6x5sYC/KzMeq1P2BjFCVtq5ycL06ur4YCdXfmkDPjtmzX3v/L87bPI39QranBzXUGK/oT27X6/60SzdKY04jESLWJqcgpuZNRU4L+Futr33rmKry2znb5e48nXF1XCpr+XtbZ1txy70Rf1SuvSa/wKJ8KSnIxzOF02dllpupgKXJL2tYyvzhgbNmAGAYhga4Jg7wA8eN0HUZWq5LTtNt5e3mytyj75VcyCmJOri0c3URA4DQ51y9dra2oqM5lQ1+mjXJLz7n56jIPlhYf//DR3TyICooNJApu2osrrTboVgWopQAE/2kEkARtW1dsMxzyCh9pmsTtZecNyB456L7a/dEmRTOJvu3PGYxsNvsTtATp0j7+4WMlAGEFo4HaCfHeR5fYGR+DCCNWJ+ok3u2PZp9xCbEBscfCo7n7ebq4qwjhUXZ+brQOOVjHo9Yyy5YZiwJD41SKfgdR+o5yOGEw3n/q+ZbeNn0KQzAXak0C47Q/i7HzJjpbzWb28OCfHjTV7flv5YDnoMab4WcLrU0IkjBm65ZBG/Af7a/tdrUqg3xdViKPqp7Lk432dNPa01+qUO3TB0+Q0Vbtxqt+DmHSLv13qfN1L/PxU4KFa1SKYP500TocLZ1jpOJRd5SPz/PnoNx4P9+GOQ6/XRwhgslwvxtUQ8Ng/lM8Z+rVHCf51u7dtr0vPkqutp0OfvstDAYiq0DXLTjLRWVdW2w2hwArEZ9yR1IZ4aEKPtp3lhj+Mou8GYOwA9mwyWKEbNBkYHstex9ZfT8IMVE2gEAEprqXvv9/KQSWI0FuUVqGaPQRAT0G8BiQCJlZ8/2n/xt0Q1br48e7qTdZiw3c67mujbAaTeV6NvE4xTqMNUkMOqQIJ+qq3nFAtilC2YCgK9Gp2FMVz4vKmdC/aVCk73uun3O64FKAEJtUYFFHpWg6XHgpIyMVBbmVGYeyGgIaLtSbHEyIS9o+i2bDdQoYDYXnrwg1XyfX8Z1nSHQvw4PZctL/qE3sOGqCQL3vdV8i139dkB/G5HlXGpeiypo9hTpXQdcAN3jO+yLYCvet64cAECpVu6L7qxlOn32LzuLJDSctOqVZFYC1Yz3st7Ipg7EdS6gMjKK/tPbO4xTFM9rl855/9zp6rg+f8sk7avLj2a8uYeWCJi+aksEg7uejyQB0WsUB/dvM05mlb9USp2ATPvqqpsZKSlFPoIwNWqLDug+gvRVsN/++b+TztO0gKkxW4IetUTDamQu8Xqf/LS57bfj/22WVwglFu666hr5Q9ecX3TQcwBAEvFbRHS35dxJJSLbiL1e3llfdNHMLjoU0vOUUqaNX2dO/1tVWkKVTBmsYilYAACTohKT6tNOG3JP3tYsVquul5sf1fPtitPHcxu7/mXKO24C2Fj//kJEuFGQcbi6Kz0by7OOlINWb1sQyE6YSP1vcW5FEyeAmaQMXxenm+SZRxm5enFNVtnVs0erwITtDgvQ9L1tyKMTVtUdKyjZu7FsUoBmBgv0yJGHO2mtzk3P9gwb1xcdOQ4wuv1hqkkAow4NoiqvOMCqQ2d1NvALf32f8D/Z+RUFWaVgfCcq5kQqJwAAV36+pCVww0sze9UyI3bPm8LJbL3hQi0lCwjfGLch8hFnFjOXvh5X9875qx9m2jQLNYp6Q+cJpI86cX8yk3neUJhtcFKMTD4nNETWfy4wMqm9ND+rqJl3UrJng1cnLFH02xZQxP61ILb3pBMpABCTkh7Tc6pu7wldr0WL2p3puTwfExwNAOpfAYB294me7SjF4uTUxT3rC0s5Hdb5Ixux6a8RXZPjO8tZtCl1UY/GdHdjv5DNB0MesSAj5cF3rHa+G5Hn+bWf+p3p8Y29WvjgnI/Hda+jvc3pENxuiMReIsrHy5sRi0Xuuz/ca+99cu7lO268VATA2Sa0/gifKbT3U7hydSam7+l8Wep/pvPxmX+8v2UST4WzPnfzzpKgfcc2Bgw47kOMaSN0sxnE47yYcQ//MpH3ZG/vfmaRSGlZvyfLT0sTlMuS5oeTBHnqWtuYsFe2LCIJ8vM3UiHyU6WIiH3UkS3xxGSB0asCR7sIYiSQZ2cIghgSEiIEQQwJCRGCIIaEhAhBEEMy2BCZMWFYyxheY7p4gviJG2yIrAkaq5ti5/87QxDEMBnsJV6lDHvCh7USgiDGpD6OREQikVhMxkoIghiUvkNEIpFMGIfb5EXfBEEM5MEQEYlEIpHIy8tLO6Pjb1+RHCEIYgAPPoAHwO12u1wuQRDO11L6Bq+WgV6vQxDEv7I+QgSeHOno6Ojo6HA6nS6X6+E2BEEQ6C9EALh7G+GyCIIYK/oNkU4kPgiCeLQBQoQgCOLRyP0gBEEMCQkRgiCGhIQIQRBDQkKEIIghISFCEMSQkBAhCGJISIgQBDEkJEQIghiS/wcd6yjeSA15NgAAAABJRU5ErkJggg==;" parent="1" vertex="1">
          <mxGeometry x="380" y="298" width="364" height="54" as="geometry" />
        </mxCell>
        <mxCell id="71Q63tBEPb4N5u0GWB7H-7" value="" style="shape=image;verticalLabelPosition=bottom;labelBackgroundColor=default;verticalAlign=top;aspect=fixed;imageAspect=0;image=data:image/png,iVBORw0KGgoAAAANSUhEUgAAAXMAAAA7CAIAAAAGpP1wAAAACXBIWXMAAA7EAAAOxAGVKw4bAAASCElEQVR4nO3dfVQTZ74H8G8SMkInYuKhjtcmVcNR4tGEuzFdCT0IdyVukV5Ejy9di1eKF6yvW9YuSmu1arsqW8r6hoor0pZyK3rk5ZRiTeyScgp6FrEkvcdoS9ANtRvrZYAyRSckuX/wIlTwNUjZPp//mHnmmV/GmW+ePDOJAq/Xi27evkAQBPFQBHcmCMkUgiAeUT/JQhAE8YiEQ10AQRD/gkiyEATheyRZCILwPZIsBEH4HkkWgiB8z+/OReRuEUEQj6hPspAn5QiC8InbyeL1ej0eT0dHR0dHh9vt9ng8Q1gWQRDDWteTcp2xwvP88Uti0xW/lltDXRdBEMNZV7J4PB6Xy3Xsosje7PfCNIyhh7ougiCGMyG6p1c6OjpMV0isEAThA113nb1er9vtbrlFYoUgCB+4nSxkypYgCF/p53mWHnYWH1hwpeWxFeMzE0ZhqQZK2VDXQRC/VHd7BneYxgqAKy34wDLURRDEL9jdkmWYxkqnYV08QQx35HtDBEH4HkkWgiB8jyQLQRC+R5JlcLRzLMvx7vts7eLYZpZzDWpF94lvbWZZbqirIIY9kiyDwnJk7bIla4/W3V9r1rRjadKy7SZ2cIu6H43FG5KWJe6vvt9MJIj+/eKT5Vpp2tykvTX3N15oNW16fn7cq6VDGQE12cti5icfuDT0ndyDqyYracGrpU6fdmrPWxcXszizyqedPrjqXUt3VPb6u9W0I7XAfmcc37BW2+46AORM21bm2d2NxanpxXc5UueykrNqB9xLfxxVtb498g/qbk/KPSJKgkWhmPkkGAr8LVgdyK1Doxuqf8eukD4tWTveF+P3ir7bdyCzBJ93DF6BAFyWk+X28XPW6sS+7VezJrd0zX23lsW89XGMbwt4WPJFB04u8klPTlNxJfSvzmJ80tvPXGB0elY/i/mvTGU3luhVPvrKzAB76Ye7ofrkWeUMLSPyzZ4fwqAlixgvzcQcf/ffrNzRZu+/PS353STRZhHW/B1etxsenKps+aI7zV0uyTW0vWEFRgasjgjANy37L7vhFV/tGDlY5XVizcWftU1fF9OZaVxNwZ73Ky2NTRwPmUJtWL4mQScF4DyTnXnEbOcZ/Xw137mh+2zm/AzHNK3rGzsdPlNx+YzZOWbOazuTtGLu9Fu/y6oFAEhj385doe1sbz20dEuZSGuYcr3qnBPjIl9+c1UkA7gv5aakF18DAIQmv7czpuuxYbez+kh2/hmbgwMdyAQ/v3rzkhCq1bRpSbal8y2rND2uFKAjNh9L1YngLEpPzrmkem4Bc9lUfbVZPC5uy4FE1Y2zh/YU1HzjdHKgZXLd3JSXF4TQA3dS887SbWc4AKDC0k+m6UUAXJbdKzadQuzO3BWhQKtp29LsmvFLDu9ZwLQ3GHNyCivtThfFTNIvWpVsUPZJZ1tJqY2JzpjRfVFxDca/5hVW2Zw3KUaujn0lNX6S2PHButUFTv1rx9IjOOMbSXsvyJNyMuPHAa3Wwt15ZRcaWLdYFqSMTNmUNINGVcaC7Wc7j795+3wzQOlWvbc9mgZnK8rJPXnWxkI2fnpsSsqiUCnqDi97vVbxK7HjMjSz1c7TJrskcv07q/Qy8I7K/IPHjV81ukRS5Yz4pJVxqkAAAxzD+7wyW03bNjQm7FvIn8jK/YIDeDwds365pLigtt59/VDQhhVR0q4zriov8yMrLwL/xPSkDUs0A/XP1ua/82HNj8AT6oTURF2fvSTK7aV7D5mdoHg/5eLUZL3EtC3NqpwGp/O6oy0kaWui5HRe2dcO2fZSSYrM+G6xw03xPB2ekroo9PF9LXCwkoVWeKJHCr6sbv3z1wEiIbxXW775p5/khwCg8/zztrRKvmztbi0UCzCS9XgBL+8BfvT/khUAIoEfBINUHwDAXlJqCZqVEdF1uJvqLzWOVMcunczgsvFDU+G7BZq8VZrW8r17TDYwut+ouDMmW6+xaOMPTPwUe+GpM9S8WarTpUazNUmrpafNXZ8aVv/Ze8V3TrLcuORkliUZyg+VmfJPzopcGQKRPCpxleKGtfhIpaNXQ77qvT1FVkl44vooGe+01bRxAOCvXrRuVeSVM4eKLom1cUmRclCK4F6npu2zSkncwhVzwV4BBeCG7WLTGN3cGOVol+Xkh+a8/UzonoTxA3YSHJOydpqz5sOC6p5/F4hVz+pkp0yWCw0IncjX1V7koQwLY8BVZ23fW+lSzlq4QsGaT5bv3QLZwVW6nvO2tbLodJsmZY6yq7xm87ub91ZxstDoRVOl3BWr4x88Jg04TrS8n5VfBd3iVYYJcNZbm9pcADA5Zm2q1lFZUFjDqWKTDZNBBalpgD2VtTWnFsqI+ChYyivzt3L0vq2xANxOdtQCjeSEuVQcO0/tPGauqF2mD7cffTOr7IZcPy9xittSVpS3tf2J7Deje74H8tNj+EDc1rJyelHOJh3lsp8xs6Kw+Nkl9XilJ1YAF9s+Ov71TB0DW866/Io5mln992T7KM8evu0vsVL2dHbuuUZdUO+VjcXZ51V/zFw/DlxFRlpB7fSUEfjuuuT1HQnjXNW71hnrXlwfN1f3sVn/RpzsRLrjmbSMxQyctWX1LDD8kyV4JChPh+3GKPEIIQCIqS8bbkIkEvZcCWLKfwQAwAPeC0AsEAJCXgBAIBb6Df4EEHe2qNyp+q/47rMfirhN+xeL4XbxvJ6qM9tq6u1OqC6ft/FgYldtXqPm68SrN5b3fHxlQqNjn2osrOF1MdH4qtTWxHEAPU4dOU4tu1zQT7IEauMTo3XXmstONTQ6r/MIoUArI6KVrMvcN1lcPO8CeK6pTRSii4kwdJ4PFKOZzaDmcn7RJUquN8wO+Un3TOwrm5f3WjjpxYwDYgrgeZemvdqcc8lez2HSgJ3IpkYYpjayJb2TBdTUME2gyVxrdSZOdNbaOJE8PFyOVpPxXDMUcS8vj1GIXMHt1rRj1ea6ZF14V1g4Pi4+L5n5Vs8VdaPaeI6DIm7L24nK+xkFuF0A2lp+xJNaQ0Q03blJkDpyttp+rbSwhmO00YbwzqZO86e1nChkxebUWAbs2ObkfVZjRWPsVEBEq6IW6t0lZqgj58udJ2pZto2/YKq4BtnsJS/PV1PQ4uva3AuVNa3RhsABjuEDEanCpxUcei3L9qw+PCpaFYg7ZjrEslF80b63jBTlutbGR7UN0JHTVg/lb6UAZLNXrQdwrtdKrsF21dH0broZgJvDKCcLiVimVDEAxLJA8O2328q007Hz7R3fz9SFhRnC5Q/5uh7KYCXLTa8XEAjEQgC0EgXPCIEn4MWhItQDEPotfg6LuxsbP8e+7wapkAE5y0uqqcjNv7n9fmL/bN/B42dtzu7ZXJGrzQWO43iAeVoBgHpazoh6nS4iUEIxwEMkhgi8516/xBcgkQAQUfd8M6QjEldY2PyK0kN1pYdEUs2C1PRE9T3fbpixfeY0uK9L9mR/cv5qc8/Nb55/8BvbAepwLW2uOm+5EeKwNGNctE4BOJqb3ICjNG1JaU9D9gYHSAGgvbb440blwjRVz+tkWRagFMHy+/twoXlhdfx3731izNtxKg/0xNjfv7EiQtp/U3dzUyvgP4YJAgCZXE7Dyjb1mmEXUQAojIAIvNvFsc0cwJ3OWHa6pwHLNgE9yTL2UeaFpPpX92iuWGvOmQ6+ajL8aZPmJ+v52vx9VtWurbEMHAXr996tq4En/kQQ+6sTdqXqeg4mVzlQW2rSgox90bYL1VUlGWm1yRkp6gceiD2swUoWR5ObF4pDx6KgBdzV1le+dY1VSTdO9ng7D5mn41RFy9+6IlvYcuuxfyu53VpcYlc+v1oT0L2ENeXmVNrEIfGpC3WM2PbBW/k2AKBpmgLYJhaQdl4hjwMlN6RmGtZxTlt14b7DxhMFxpgd8Z3nvBAA+H636nPdNpbtK6i+ItUtTZ0zVeqqyttR2nB75V06+SmxJlxNV5yvKa92OqGYp1eKgNFSiQhQxKxfHibrHlxKnu66+J3G42aEbZzd6xKVyWSAw1Hf6I7oZ8zidgEuvr1X6jFhSTvDkjinrbY8d3dpWV6xIXyAwY5IOjoQcF53skAQ2O8aOUA+esDTiZZJaUASlbzCIO++xiimd5g8ypRnq7W4wmWYp42coKIc62oc0HS9um4urg0MIwP4hvO113ntQB0xquAf879yQsmwZ7L2OuM3B/da6T8xOOj4+TqXTivm6kqL2BkJz/TXhxsuNxyVJ+wT5kaGx6gUXNruBhbqxzahPljJ0u649Wmz+D+nYaMYVa0SCY3p4wTocLd1/giMUOAvkUq7c5l24f++v88T3TdY8wkjP319zB3jw4AxwdOUCvbzYkfXCUGFTldRtZbTefnjImAud9zjnh9nr6qub4Oj0QXAUWMy3oBkol6vHKD5Nav5KyfP2VgA39vMp8S0kNHMUjMX8rZVUNM1itGUCwBElLjnjJdKJSI4akoKy7QyWqGLChnwMhICIgkzeXLwk9+WXWzss+rOTtobayptrKe5vg1wOy1GU5twhEIboQoCrdVrAs6eLyrnwcQ/OxEAAnUGHW0593lZJR0eLOGbnPV1zil/UCsB8JfKSuzymBRd7yFWkD5SV2A5V7rj9R8jNVKu/nxb+Lb1s+jRzBgKjbYzJWbu+idf325uP5ZR1KLSTB4juemCB6Buv3zZaBpwWcoLylrHSMaoI7WM/rfqYzZr/pYsVgvLaSsfEGKIkuP7/g8J9avIcKbS+HeTmYlUjeLZfzpsV5mEt0Me/Hrjzx9YmZwHAFRgxNrNYwAgUMF8u+v11ccpisfYuLUayAJC+D9n7JCkpcfKAYDWGmYUH03d8slTEw3Pz8IHh8tCI/rtXfVCsvKdjFdMwEhVQupE1PdeKY9fG525d2NaAQU/5bxUBrj80+1FStWEw7kb8pa/NLrq3Y1lIgpuSvVi6uO8Tzd4d539D37a3Pbrkf8xyU8vFvI3PfXXuJ0X3F90UFMAQBT1a0T1tGW9q42Cxsf235C4G8pO2pjZO/WBvRbKopOW2/Z8dDYz5axMGaZixLADAIJiVqxuyDxiLjx4XfecVlVXabtbz9erjmQXXuv6y1KUbQGYBcEDJQt/sWRvVm1XpF6rzN1dCUq7/lk1M2q0+B/lhVVNLA86SBm5PNHQM4ennJXwnDW34nz+vrOgIzZHhOj6f5uVx6Ysqd9fYnxzZUVQiG4CA/QKlzs7aa0t3JPXPT/dULY7G6AN2yNUQQCtDdeIq8+5wGjDJ3U2kEb+YRv/17ziqpLcM6ADRyumzFKOAgC28rixRf3y8xP7FiM1/HETn5NX/IW58CJk49TznqIA0BELE8zf5l84ntsWqRkPh72rNS2TOM8U55Y1c26xbHxYQsrcngcSZFELF507XGY5cagGlG6VTsswz6Vtadt/sORsYRFk48MSlqfEjsNAyYIA7YrtqXTOcXNpntktpmXyKeF62YOPU/Qbjp3ou2TzAQBQrtmh7710auJf8hJ7/U3rVmbqejqJAoDYzg2zdvTpTqZNervXkCYo9fCM23vBpLj0PXG9WkekH+lKKNXKA+kAIDW8ecAAAAjr0/LxEfT8CC7Hccs+lR7tVcZLpQNvdz88tzra29wu3uuFQOgnEAf4+dNCocB78/tb7X0/8PsFjhgpEQBwt/GtPyBgDOXvgxvxRwc4pFxFxn/v4ZJythqC+m9APCR3Q+GajUbNtv0rQx7b53ni52kQn5SDcIQfPeLOHQj8n/T3H2ATkYSSSQaxJABAE5TzVk+PJLHic61tdMSLa2eTWCEGNVl+rhRRCxT3bkU8OJk6dol6qIsgfhZ+8d8bIghiEJBkIQjC90iyEATheyRZCILwvbsly4QBnqgeFoZ18QQx3N0tWZaqh+v1OUGKpeQeBUEMnbvddVbKsGXmY6uEIIh/HV1jFoFAIBSSOReCIHzjdrKIRKJRI3Cd/Gw7QRCPTAhAIBAIBAI/P7/oCR3/878kXAiCeFQCr9cLwOv1ejwenuePXxKbrvi13Os3jAiCIO6iK1nQHS4dHR0dHR1ut9vj8QxtZQRBDF+3kwWAt68hLIsgiGFNcGeCkEwhCOIR9ZMsBEEQj4g8w0IQhO+RZCEIwvdIshAE4XskWQiC8D2SLARB+B5JFoIgfI8kC0EQvkeShSAI3/t/EGaP7KfSaKwAAAAASUVORK5CYII=;" parent="1" vertex="1">
          <mxGeometry x="380" y="400" width="371" height="59" as="geometry" />
        </mxCell>
      </root>
    </mxGraphModel>
  </diagram>
  <diagram id="7hUPitVL5zziPcmmTL6B" name="Customer">
    <mxGraphModel dx="3790" dy="2295" grid="1" gridSize="10" guides="1" tooltips="1" connect="1" arrows="1" fold="1" page="1" pageScale="1" pageWidth="827" pageHeight="1169" math="0" shadow="0">
      <root>
        <mxCell id="0" />
        <mxCell id="1" parent="0" />
        <mxCell id="Psk-8NPpbo2hVI2kaLZC-16" style="edgeStyle=orthogonalEdgeStyle;rounded=0;orthogonalLoop=1;jettySize=auto;html=1;exitX=0.5;exitY=1;exitDx=0;exitDy=0;entryX=0.5;entryY=0;entryDx=0;entryDy=0;" parent="1" source="Psk-8NPpbo2hVI2kaLZC-1" target="Psk-8NPpbo2hVI2kaLZC-15" edge="1">
          <mxGeometry relative="1" as="geometry" />
        </mxCell>
        <mxCell id="Psk-8NPpbo2hVI2kaLZC-1" value="Customer" style="rounded=1;whiteSpace=wrap;html=1;rotation=-90;" parent="1" vertex="1">
          <mxGeometry x="-90" y="240" width="120" height="60" as="geometry" />
        </mxCell>
        <mxCell id="Psk-8NPpbo2hVI2kaLZC-2" value="Cria Pedido" style="rounded=1;whiteSpace=wrap;html=1;" parent="1" vertex="1">
          <mxGeometry x="220" y="90" width="120" height="70" as="geometry" />
        </mxCell>
        <mxCell id="Psk-8NPpbo2hVI2kaLZC-11" value="Editar Pedido" style="rounded=1;whiteSpace=wrap;html=1;" parent="1" vertex="1">
          <mxGeometry x="220" y="190" width="120" height="70" as="geometry" />
        </mxCell>
        <mxCell id="Psk-8NPpbo2hVI2kaLZC-13" value="Finalizar Pedido" style="rounded=1;whiteSpace=wrap;html=1;" parent="1" vertex="1">
          <mxGeometry x="220" y="280" width="120" height="70" as="geometry" />
        </mxCell>
        <mxCell id="Psk-8NPpbo2hVI2kaLZC-17" style="edgeStyle=orthogonalEdgeStyle;rounded=0;orthogonalLoop=1;jettySize=auto;html=1;exitX=0.5;exitY=1;exitDx=0;exitDy=0;entryX=0;entryY=0.5;entryDx=0;entryDy=0;" parent="1" source="Psk-8NPpbo2hVI2kaLZC-15" target="Psk-8NPpbo2hVI2kaLZC-2" edge="1">
          <mxGeometry relative="1" as="geometry">
            <Array as="points">
              <mxPoint x="160" y="270" />
              <mxPoint x="160" y="125" />
            </Array>
          </mxGeometry>
        </mxCell>
        <mxCell id="Psk-8NPpbo2hVI2kaLZC-18" style="edgeStyle=orthogonalEdgeStyle;rounded=0;orthogonalLoop=1;jettySize=auto;html=1;exitX=0.5;exitY=1;exitDx=0;exitDy=0;" parent="1" source="Psk-8NPpbo2hVI2kaLZC-15" target="Psk-8NPpbo2hVI2kaLZC-11" edge="1">
          <mxGeometry relative="1" as="geometry">
            <Array as="points">
              <mxPoint x="160" y="270" />
              <mxPoint x="160" y="225" />
            </Array>
          </mxGeometry>
        </mxCell>
        <mxCell id="Psk-8NPpbo2hVI2kaLZC-19" style="edgeStyle=orthogonalEdgeStyle;rounded=0;orthogonalLoop=1;jettySize=auto;html=1;exitX=0.5;exitY=1;exitDx=0;exitDy=0;" parent="1" source="Psk-8NPpbo2hVI2kaLZC-15" target="Psk-8NPpbo2hVI2kaLZC-13" edge="1">
          <mxGeometry relative="1" as="geometry">
            <Array as="points">
              <mxPoint x="160" y="270" />
              <mxPoint x="160" y="315" />
            </Array>
          </mxGeometry>
        </mxCell>
        <mxCell id="Psk-8NPpbo2hVI2kaLZC-21" style="edgeStyle=orthogonalEdgeStyle;rounded=0;orthogonalLoop=1;jettySize=auto;html=1;exitX=0.5;exitY=1;exitDx=0;exitDy=0;entryX=0;entryY=0.5;entryDx=0;entryDy=0;" parent="1" source="Psk-8NPpbo2hVI2kaLZC-15" target="Psk-8NPpbo2hVI2kaLZC-20" edge="1">
          <mxGeometry relative="1" as="geometry">
            <Array as="points">
              <mxPoint x="160" y="270" />
              <mxPoint x="160" y="415" />
            </Array>
          </mxGeometry>
        </mxCell>
        <mxCell id="76ib0m7jjXTHwsctD9vv-4" style="edgeStyle=orthogonalEdgeStyle;rounded=0;orthogonalLoop=1;jettySize=auto;html=1;exitX=0.5;exitY=1;exitDx=0;exitDy=0;entryX=0;entryY=0.5;entryDx=0;entryDy=0;" edge="1" parent="1" source="Psk-8NPpbo2hVI2kaLZC-15" target="ikQi6uA9pfEpCmxSpY5e-1">
          <mxGeometry relative="1" as="geometry">
            <Array as="points">
              <mxPoint x="160" y="270" />
              <mxPoint x="160" y="-171" />
            </Array>
          </mxGeometry>
        </mxCell>
        <mxCell id="76ib0m7jjXTHwsctD9vv-5" style="edgeStyle=orthogonalEdgeStyle;rounded=0;orthogonalLoop=1;jettySize=auto;html=1;exitX=0.5;exitY=1;exitDx=0;exitDy=0;entryX=0;entryY=0.5;entryDx=0;entryDy=0;" edge="1" parent="1" source="Psk-8NPpbo2hVI2kaLZC-15" target="76ib0m7jjXTHwsctD9vv-3">
          <mxGeometry relative="1" as="geometry">
            <Array as="points">
              <mxPoint x="160" y="270" />
              <mxPoint x="160" y="-66" />
            </Array>
          </mxGeometry>
        </mxCell>
        <mxCell id="Psk-8NPpbo2hVI2kaLZC-15" value="Front-end" style="rounded=1;whiteSpace=wrap;html=1;rotation=-90;" parent="1" vertex="1">
          <mxGeometry x="40" y="240" width="120" height="60" as="geometry" />
        </mxCell>
        <mxCell id="Psk-8NPpbo2hVI2kaLZC-30" style="edgeStyle=orthogonalEdgeStyle;rounded=0;orthogonalLoop=1;jettySize=auto;html=1;exitX=1;exitY=0.5;exitDx=0;exitDy=0;" parent="1" source="Psk-8NPpbo2hVI2kaLZC-20" target="Psk-8NPpbo2hVI2kaLZC-29" edge="1">
          <mxGeometry relative="1" as="geometry">
            <Array as="points">
              <mxPoint x="360" y="415" />
              <mxPoint x="360" y="485" />
            </Array>
          </mxGeometry>
        </mxCell>
        <mxCell id="Psk-8NPpbo2hVI2kaLZC-20" value="Criar Pagamento" style="rounded=1;whiteSpace=wrap;html=1;" parent="1" vertex="1">
          <mxGeometry x="220" y="380" width="120" height="70" as="geometry" />
        </mxCell>
        <mxCell id="Psk-8NPpbo2hVI2kaLZC-22" value="1" style="text;html=1;strokeColor=none;fillColor=none;align=center;verticalAlign=middle;whiteSpace=wrap;rounded=0;fontSize=15;fontStyle=1" parent="1" vertex="1">
          <mxGeometry x="170" y="90" width="30" height="30" as="geometry" />
        </mxCell>
        <mxCell id="Psk-8NPpbo2hVI2kaLZC-24" value="2" style="text;html=1;strokeColor=none;fillColor=none;align=center;verticalAlign=middle;whiteSpace=wrap;rounded=0;fontSize=15;fontStyle=1" parent="1" vertex="1">
          <mxGeometry x="170" y="190" width="30" height="30" as="geometry" />
        </mxCell>
        <mxCell id="Psk-8NPpbo2hVI2kaLZC-25" value="3" style="text;html=1;strokeColor=none;fillColor=none;align=center;verticalAlign=middle;whiteSpace=wrap;rounded=0;fontSize=15;fontStyle=1" parent="1" vertex="1">
          <mxGeometry x="170" y="280" width="30" height="30" as="geometry" />
        </mxCell>
        <mxCell id="Psk-8NPpbo2hVI2kaLZC-27" value="4" style="text;html=1;strokeColor=none;fillColor=none;align=center;verticalAlign=middle;whiteSpace=wrap;rounded=0;fontSize=15;fontStyle=1" parent="1" vertex="1">
          <mxGeometry x="170" y="380" width="30" height="30" as="geometry" />
        </mxCell>
        <mxCell id="Psk-8NPpbo2hVI2kaLZC-33" style="edgeStyle=orthogonalEdgeStyle;rounded=0;orthogonalLoop=1;jettySize=auto;html=1;exitX=0.5;exitY=1;exitDx=0;exitDy=0;entryX=1;entryY=0.5;entryDx=0;entryDy=0;" parent="1" source="Psk-8NPpbo2hVI2kaLZC-29" target="Psk-8NPpbo2hVI2kaLZC-32" edge="1">
          <mxGeometry relative="1" as="geometry" />
        </mxCell>
        <mxCell id="Psk-8NPpbo2hVI2kaLZC-29" value="Mercado Pago" style="rounded=1;whiteSpace=wrap;html=1;fillColor=#f8cecc;strokeColor=#b85450;" parent="1" vertex="1">
          <mxGeometry x="460" y="450" width="120" height="70" as="geometry" />
        </mxCell>
        <mxCell id="Psk-8NPpbo2hVI2kaLZC-32" value="Callback Pagamento" style="rounded=1;whiteSpace=wrap;html=1;" parent="1" vertex="1">
          <mxGeometry x="220" y="520" width="120" height="70" as="geometry" />
        </mxCell>
        <mxCell id="Psk-8NPpbo2hVI2kaLZC-34" value="5" style="text;html=1;strokeColor=none;fillColor=none;align=center;verticalAlign=middle;whiteSpace=wrap;rounded=0;fontSize=15;fontStyle=1" parent="1" vertex="1">
          <mxGeometry x="360" y="520" width="30" height="30" as="geometry" />
        </mxCell>
        <mxCell id="ikQi6uA9pfEpCmxSpY5e-1" value="Cria Conta" style="rounded=1;whiteSpace=wrap;html=1;" parent="1" vertex="1">
          <mxGeometry x="220" y="-206" width="120" height="70" as="geometry" />
        </mxCell>
        <mxCell id="ikQi6uA9pfEpCmxSpY5e-3" value="Opcional" style="text;html=1;strokeColor=none;fillColor=none;align=center;verticalAlign=middle;whiteSpace=wrap;rounded=0;" parent="1" vertex="1">
          <mxGeometry x="90" y="-186" width="60" height="30" as="geometry" />
        </mxCell>
        <mxCell id="CwLyMrU-MZQjoY-OAHLn-2" value="" style="shape=image;verticalLabelPosition=bottom;labelBackgroundColor=default;verticalAlign=top;aspect=fixed;imageAspect=0;image=data:image/png,iVBORw0KGgoAAAANSUhEUgAAAbMAAAA+CAIAAAAu1mJiAAAACXBIWXMAAA7EAAAOxAGVKw4bAAAP2UlEQVR4nO3dfVQTZ74H8G8IE4FQGKjJAsESWoQVaQEVWaktmoOVmy1XL7ZeV8vRe0HrC7W6tfXqpdtaaT22uGpfxFPLHq2tcitQ3RxTWW2UYnERFmSlsCA9kUqQJgpBSYBMJrl/8J6ClLaA1t/n8E9mnjzzm5zJN8/MPCQCu90OQggh/TiNdwGEEHLXoWQkhBBHlIyEEOKIkpEQQhxRMhJCiCNKRkIIcUTJSAghjigZCSHEESUjIYQ4omQkhBBHlIyEEOKIkpEQQhw5D9vi66LSMaiDEELuHgL6rh1CCHEw/JixCwUoIeT+MXwy2gcag5oIIWR8DZOMdrvdZrNZrVar1crzvM1mG5uyCCFkHN0pGbti0WKxbL9dmmWu1vPtY1YWIYSMo2GS0Wq1br9dWmq98blPgtzZY8zKIoSQcTRkMnZdVbRarVnmaopFQsh95U4zve12O8/zer6dYpEQcl8ZJhnplgsh5D70Y+cz9irvNGxt/vqflhujUc2oekw08S3vxyMnSMa7EELI3W7E/zd9j8YigH9abmxt/nq8qyCE3ANGnIz3aCx2uaeLJ4SMGfquHUIIcUTJSAghjigZCSHEESUjIYQ4omQkhBBHlIyD0anTlKn7L3LdDy9+tCouKfX9uh/13PaiXcqkxc+f0P0ilfD12f/13xuz6n9WJ+f3LotL+rmdODBU5L2elvrcH1Of++PmrUeLR763purSSsMvWdEoaMxbuyO/ebyrIONhxDO9R8xp6kl5nFLQ/chova5uOZt8y9ABsK7TMrzDF4k8WEFnk+X6p8bCtLbmDsCFCcmQzFw0wdtHwBv5Zs2twmQjMh5KTHYotqPQV1fW9MtXzFXmnNHK562ZyfzyfY+QqeB4/o3QpP8IGO9CBuLrs9MO6Z7etPt1Pwac9vjeXW/k+O97RiYcQR/av50sf2pGGM27J3el0U9G8AA6WguXNTXByV3hO3fdxDht59E0zFT7zIrk6j747ssy3kvh87uXpIm+OLKsDckPxq1jGt6sO5FrcVf6K9O95mjbj+6qO5pnB+s979PfuKu/U31gskJw2zga2dVcpDpjmrZxngxAa8Ebiz+q5AEAx7ctPg64x2zJXRMpBHSlh989prncaBFJQuY+k7wmRiZqzHt+c/a3AIBvczbG5UAoSdjz56QpQHu9JvNg3lf1egsjDY5KfGG54hFG90naKyeZMC9DrUmu+B0KVVWi6cv/tD1W2ldKoyanQhy36Qnvrofm2txDH+eU1DaDlYfHr1mRGOEJAHzF/sUZGuGMhLnm4vwregsTvf7tl+JRnrkvS32lxTt00eP9d89c+9mhjz8v0TZD5DdZkZSyRCFhhuzEc9BXiPvHac0DyrcT/BgAYAIXrk1/kmGFjXkvHNAHiRo6YjZtjqh5f5+qxgIeXnOWrV8cxOiK9r+jbuDBWdjZG15M6Dxx+Kt6U12m7JU1T7SrM/cV6cFwzvLETcujfXo2Y6nP33lQowfTzkkT165X+vUWUJu5OdcS42W62tJgED394ktKCVfbv5OlOJRWGbczeTrKM1IzsfKDTeFM5aHNf52avnVG9yHTXHF457GaTgYWcdiKtUtmGvuKXy8v3L5Pc5v1D/CDBWEAWqvyMo6V3cYgjTfHsj/jWCN3rTFIRgDosN1U277rsNnVNyYnu8sjnUVKt8dmCW68+e3xNLsAAtuRb41eoQuXek5NN9f5Cpxh69QK28qZ5vL6A1mWziYPFwiuVwM+fCfgct3eqBbwEDgBguG3PULaz9WVE+ekx7oBgGto4saU2dpzWbl1ounKpLl+EMkChYCl7vDWvaomSZhSKfu+RKPK3AF294vy6BUp7I0r+e8XaL1nLEmKYJ3EgX4AzMUZ7+wv4ALnLUh+yFiYc2Z/GrwOpEgBztAqiouQ5haoLsYkzpbkFZwrbopN6IkG7qJadTUg4X9Du97MRvW+HZkVeCQmYS4q1UXZr5rF+7fMl/XU3VyquRybkBzDtjca3WEqOPhubpVJEqSYhkJVRc91AehVe3d8WMWExS15htX97YRqZwbju3PJlME7GUrLNZ34kTn9EsGN9QbAMGhsefjt9ARP7nxmnkWZ/l44w9fnvXDw1OOvKVrMwSu2ro5w4y5kbsypiH9VOT+0RLd0jWJSY94LFSH/k75eBpNmb9onFdM2hfeElxFRK9LjA5jWgh3rT1fOXx7WMyZlhNBx8k1bFzDXTqS9XaRTRhW/17+TqtcflaiqGxHB1bTK/PkrDXy4+PJVNuLZ3k/SysOHtLO2pC+UQKdOSztROz2ut3jTqYx892d3vjVD3KR+Y2UjgNrDR7RPvpw+zxOGM29sOaHt1/gnHWLkHjBGyQiByGXCBDh5L/P2dbEbqzvcIz3EsPxL48yg63AXNWjMSBRPjLQXf2qoS34o5KOHg9K5xqKO6+pbZVmdnehq15WETkKM0pluW6lKbQhZoQzsrkoSFh+Li1eyc+tEk6IU8UHdzS6d0+jAKpdveTGc4aOwfFv+2YKyNaHRs2Jl7Ux5ZoHWQx6tjO1OrdYSzYVWTFImr5wnE3KB5qq0oyWFl5YvAiDyi/7POdqzBfrfxix6EvkFV4y3gO5kbC3MLcLstYruXgyFX1SYhEHJ29bM94HR17hub5XmbOP853pGUqLQpB0pip63anlGlQlus1e/vDrWTfdg2saDXRcZG4u/qDIJg5I2PKvwAudnKHu14PyXdUumBA3ayR1w/GBLhZLAUE8ADVVX9RW6bRuOA+DazWFNEPuwur/s23GcEbXVm4Shlr4X/GrNVZ3xnW2FAHgzWEML0D1q9mSZmmMZXzEikVHXJuUGbkoWImcAeLDi9kZLq2MnneGTRfuvmJo5nXusAiW1zWamShS22q3n2Qat1i34aQkA+ASH2I41tPUVr//OIA2dLAYgmRr8mwrAUFNj0F7ek3YSAGfiZfr2vsbk12qMkpFllS1dYwx7x4XrX6Zb7OsAQABnoOunZQTOEACwA07VbTlTKgIWeQfO8pik8JiZ+EBQ5PUjqe2Dvhd/YXr1yWJRzJa4YQ56U7PRAsj8/RgAQom/D3DZaGwDvAdr3WI08sA1ddpide8y4w1zXwNhzx+A3syoVqsuSxR7Zoi7HvKtxluAq1QqAQB2kp8YVS03jUBPMrr7SftGeZypjYNQ4h/gBkA6ScKgHgB4o74F4OsOpzx/uKcpc8PIoeeDZkAnQ5JOklnO1eoR1HPib9b+wyCd7gYwIlH3ItnvX0xf3HsR0ax59UjL3Ne2KDxReSj1SL++hBC5Tl2ya03kD65R6lUHVXg2/a1QsaX03eUljquF/T4bf9gJXxd4+1zlJQ6hS8P4ouzLVbg9eb6PYx8DdRffP/S741jIRm94Lal3ZA2Dqt+ekl+lsTqbbj27SNfQYeOud+irRSKIReXtbfAOUE4o0nTwACCUK1zR0f59ucAt0jsk0PptVuu1rJu8CzOnbOospYvUpf16x2hX2V6l+rw+8N9XhrkOXC4E+kUWALE3KwL0DQYOEoY36JsAV5Z172s8gBcrFgKT4tavimJ71oof8kT+HUoxn/+/c8aIpfHBvTV4sh5Ak17fDEhgbGw0Af4P9jujHbBdRuzOgDfpbwJymFqMve9wLw+gNShx67N9+/ignBm8k6FNnxef9c7+o8Ev/SFIDLM2d9+uc5O3RMT0rvcPlRtVFfrFcVLecD6rRJoUZbrNSP09AXNlYZWJl3FgRODAA67ywIknyi5xkdMZ0yW1qjlqiaI7T01Gs5e/RAwYL5TUWizR/NDlDdJJQJi/4dQZBK7yZHl5S9ZpLnBBYN/TJSFBXPblVjziicZvapjJs91R2bNOFiDRX77CYQbT+E3N95BCEhLEZRXXY0oAmkvz1EzfOJ38eo3ZdcZbGidDh1AAF1cIAPDqm6UX2DnrpE+j9V9lNk+Fx7REoTHr+0vVTg9/Kolfar/65oQKjdV5iluAr8Ba1m4c9VgEjGdPaCzh/a/0d2NZsRC6kpN5qghWLJumCGIj5ihkBar8jzJEMf6NRaeaIFXGTOsaRAhZ1h24VqL6jA32EAfOmhHoGaGY6VZ5oejUV+LoIDfupkF7yRD8Sui0O5Ry9bTqonj29ph+ySeJ/rfQvOqq7LTMlumozK/iXIMUc4d8iwZHhYpPlRYfPBTczJbn9M438pv9VFBuZt15VYlopoxpN+hqvrE8uTVMPsJXShiQmL4S+w9ufs4MgA2NXb1tgUxoKOtZz8xemnRp3661X4sB8Zxlq10l7O/lu3Zs0/pLQ+Yro/+u/vh0+KJHPbPf2SF+eUvChth392xLO8zAWZ6wqe9edeBT85htGWkXJf6z5iSEHsn7sCIsNVw8eEF+P+wkOJzJ2M/GTwIgF9ec5uZPHvD6LF0anLEn7bwIncy01LWBQlNvMornLlQUHHjlhdNSf7l0EsAjOCkleueBzRsYhheHJa0UD/iUJL9OgqF+KLXrpw5MJpPXzUO6gJTe5bL6j0a2BaffnpTPj2n9q+9N7YB04y0sF5HxUNQid5ZFp7Zde6ShIJ3v6GCsrPWxD/yjlGKWFViN3M0iw1epRp12ggCAj9sz1309s64dTLH8xJPr/vsyAF+fnbKteNZru1f9cIqMoXjvvsNn6/VtXO+9ae5aUfb7OZrLBotIEjJ3QfKqWFnPKEynznz3cInWwPXdm26r13x4RPX1FV0bxJ6sLDR2ycYFXqq0jUfY9Z8t1K7bpnl004dPFq169Ypi15+TwrjyjI0Z9crd7ymlA8ow1352IOvzCm3XvelVKxKn97s3LYr70yd99yiA1uL392Sp60yeQfFRolPqKukf0ncnB3Tfmz55SdtkhqunVD41/vmU+VOYIToh5D41+skIDgYzXMR44AfjUyuHtk5wNkAAxhluLhAJAMBqQZsFnA12QCiEywSIe57bbsZtG7zcf/IdmKGS0aTZm7rbnPSXLYpxn2HXdOaNlcfYzbvXz3YbvjEhZBSMwdk0A8kQNzScGbCDJZyzCOwQ17dd3eA6+JqfyQh5wvqIJ8Y9FgFTCxO2dOXsWRSLhIybsZq1c9eTKRYkjncNXcRTYhOnDN+MEDJ66P+mCSHEESUjIYQ4omQkhBBHlIyEEOJoxMn4mGjiaNQxNu7p4gkhY2bEyfiW9+P3aL48Jpr4lvfjw7cjhNz3RjxrJ3KC5AvfhaNRCiGE3CXuNGYUCAROTnQhkhBy3xkmGYVCoVToetV6a8wKIoSQcTdkMgoEAoFA4OzsnOw25fXmv1M4EkLuH0N+owQAu91us9ksFsv226VZ5mo93z6WlRFCyHi5UzKiJxytVqvVauV53mazjVllhBAyXoZJRgD2gcamLEIIGUfDJ2MXykRCyP3jxyYjIYTcP2i6IiGEOKJkJIQQR5SMhBDiiJKREEIc/T9CpKh5vPY7egAAAABJRU5ErkJggg==;" parent="1" vertex="1">
          <mxGeometry x="360" y="90" width="435" height="62" as="geometry" />
        </mxCell>
        <mxCell id="CwLyMrU-MZQjoY-OAHLn-3" value="" style="shape=image;verticalLabelPosition=bottom;labelBackgroundColor=default;verticalAlign=top;aspect=fixed;imageAspect=0;image=data:image/png,iVBORw0KGgoAAAANSUhEUgAAAaEAAAA2CAIAAADh3rHaAAAACXBIWXMAAA7EAAAOxAGVKw4bAAAQdUlEQVR4nO3dfVRTZ54H8G+45CIQk4GkbZKVl43LS0+DcyIUi+iS0omHWkan0O5AFdnFAemKS6HVactM1bZMHbXYrTiCbF0p28LuCqwuvhzSceBQyqpguja2QI9ZLC3B0xCGGILc5Cb7By8BDcgIhkKfz+GPcO9zn/tLSL7c+9wnCcfhcGAK06wiCIJYEDgkyAiCWMQ85rsAgiCIB4hkHEEQixnJOIIgFjOScQRBLGYk4wiCWMw8p1lHLrkSBLHQuc44x2RurokgCGKuuMg4h8Nht9ttNpvNZmNZ1m63u78sgiCIOXHnHOCRgGMYxvtqCb6uwZBxviojCIKYvTszzm63W61Wr8//AOOXiNwOnnS+KiMIgpi9SddVR0bfbDYbvq4hAUcQxCJw59wRh8PBsiyGjCTgCIJYBFxkHLnIQBDEojHd/Dinvq9w+T30dT7gYh4AYSgefwnCR+e7DoIg5sfM3uewQAMOQF8nLr8330UQBDFvZpZxCzTgRizo4gmCmB3yflWCIBYzknEEQSxmJOMIgljMSMYRBLGYkYwjCGIxIxk3pked/Ytd+1qto7+2VmxYn/18iW5G2w5dKvhF9pqcc11zUgnbXbZtx+YT3bPq5LPS+PXZs+0E1pZDu+J3qvXOJQb1ocINyTvWrN9R0DS7vu+7QrajaFP2mvXOn4SD2juaaEt2rVmfv68VAFoO5q9Znx2/qXCvuvfenbdXb96pdn4QRWvFhjeazdNu0XbkN64fCkNHY7vl3nu8p/6G3NxTXXPQ0Y/UzOYAzwY3GVvedGbprc9x9W18qYOyHsuv46MM3AYAPP7fWAE0qhG37c7g/fw5XP7qAVdpbatt7Ax68tUo7gPe0b2Zm85WG8JyNgbMdyHAzeaqTxH3cqxkfMmNy5UXupkVySVZEdKH56kqShDxVCxj1H92QWfky1SrJEK5aJrmkVtf/7enNWVvVatPXkyN3xhKualMRttcY9gQF+7jpv0RU3jwGQeHFfD85mj/lS/h+dCSyJd8Yt7CzU1WFlw4rA6MhIqddXgAzMBJS22b3eHFfeLgUvGXt+qOWm3wGLr+kwddY/+lqguWmB1xwQBMzbmbKtpYAMDp/WtOA77RB6oyYiigR1N85FTdtV6GK4pQbsjLjA6me8tz9pSNHO3pTm1efwqUKOXA2znhwFB3XVlleVO33sqVhCjSX0xJlHG7KgszznEj/QxfDAYmrkL9mQ4vRcr7uyeECHrrarVL43PW+Y38atHWVhXXarT98A+SJ2elpq/gAwCr3bepuI5SpCgtjfU6vZUbt31PoQotZR8Undf1+YWlr5549yzak1XFpzWd/aClssTUtCyliJ6yE/74ZtrTn3zxcGzJqgmvUrPlFgupPEIeJHZ27rLCr6s356t7VijT6fZKTS/DlWUd3JUSZJqLCsWqjDSVqTm3UWeUKrLyVKOP3mBH+e8rKq8O0OHKnwucXdN+omA/RYS0utEwdOs+nhsA0Fue+0GXPBCGAX0v1uVuS5JZ206UHmq1SsSBEgYAwHTXvFtZ9z3oIatk49bdq/XFldoO1lAkys5fqS8/dKrFDDA+kWkZmVHOx9N87dw7x6700VyGCkzPS4nzbt75ulby0EDfii2FUdf3/l6tF4gkwT7DrBAA87X6nWOX9HDV+FnxFJUT7sg4AHAMf+Wr/yPgYLziHJIn7H6063b2Ht7339kdXvbbgMPANXzqZYUHxQHnwZbXeUrdJootWesDAEvCtvxTmqqruahWRytUOUoxuJIwCmB0xW+UVt0URSaogm5q6s4c3wnBR9sD4tLShAZdTUlzp58i8wW5kPIJlQKwNL53eF+TLTR+fWrgQH1Nw749EB5NkwCMwUTHR0j/q7mqNTp9tbC8qbnxZmzKI6OVMK3qj28EvPDrsJEHyHj++CtlWsiiU5S4cu5S2V7L0sN5SeOfltCvqdPGpv59tHCot88X5qbKvbUdZpEsUQH1GS0z1kp/pvSV4x30Y8qsZwVdfzxb9W6xl3hPZrjrTpxMlyrrLZFZT04+8LECwIQl01fIaJrVa3+WtV2E7wxLPea6wkmsbScqyloNvJBopaC9+jMTMPEAiqYpgJ1q23vzQp85eMeBTL65qfQf/l2bmG4oa5G8ejhFTnWX5TT3AegfQFRqiSqANjXvzG9oU6WkqtSdyMhX8rUlhzvX7iiJ58PQkPvbc52K5LGHtLf66JXg/IJCGYzq4m0V2pgXAb1BuLMgP8jacqjYnLirJIFvvlD6whUAvZVHtRGvFOyWwtxQmv2xNiZrvPH9368fAzdlHLDEy2sJuDJa9hjH/q3VyFAS1+08KQ7AsXIAgPLkcN3wQeuDmsrzfRFpqtFnHi2KVInQqjtWq/MKUCSqZKPNrjbX9cA/IeXAdjnNKvCr/TUNzS2ZGXGrYoOHuC1lzZ38wLiE2OCRxiZN3UUTAlT5W+OCKVuopT37PzT1/5uSDoAWK5+P7Whs7gmJTl+L6iadwQSMZpypvvYSVmckjmaEob5ea6Zk+b/NSHoExkcGnjvSUdfYm5Q69k+bDst5Ky1x7MCr5VCHGT6qzJxX1/p0+RdurhgZ6uptrO8wU7KcnA2JfmCkhs/2Ntc36DLDZS47Gdd1Rt3Ci34/bsIK1tJ5+XofuMGi8YX3qjBk/YHXnh7/U7ecnMsKJ2F7r1w1gA7L2pOR5GcKLSjYp5m42lvoz0V7e0u7JfKxv/DkceRZQQnl4XwAvOBA4cnenm59T4A8lAYQIA/17gLAF9CdpwqauDQ90GUWMc7tDdrOvk5tSfY5AFazXaK/jdCRpB78pnMwMCkIAPzDlwvrunsgpPmB8mUABm70eIZu5APgPSb76xoLBr/R3tD3HdpfD4C1QGDog89YY2I6bso4j5D9CAEAjt3EtO23fQ93jYrcm/6cupGOPhA//WsI5v4BBgiWimkAlCj4EcAw0DcIuDwk7Tf1sUC3OnuTenyZ0TDkbECN/QAYf0G0q6uuCX9+QMEb+ZU1GUzAEpFEBAD+ARIeOgzGAWAsQXwlEudxjdU8aAUlDA70ASBdJqLRDQDsQE8/wOqKX8wvHmtKGwaY8cIndTJmSFtV1xv63Db5+L27cS4j51QnC96KjZlrxmLiXhXSD4mFzk7ntMI7WfrMgK8kiA+AL5F6Q2ObsJYb88sNMdrqqp35VQFPH//D1KNy3p70kM0E+AMAGLMFtA8NAGMDtXYwrrbTn6mswsaSN8N4jGbvryblKyh+XM6unHBXm92N4nqN3GDH9shiGIAH6CXhmfsyYsYrH7zkbExMzV3nql3v9V/UOOzD7J+/9GRtfl5LbMO3AT7HFxgG4AWeAPjWcds95Uww1FF5ujs0cUuk9+TlFDBS2hien4AGenr6GIho1tBzE1giEPo6G0/ix19KAcuUu7cq/MfWLg3gQ31XSyeL+mSzYUVycsh4DXwRH7hp0PcDIhh79GYg2H/CUNOk/XJ5vlywFr0RCBpNZACgBEI+YJKl79q4cvw++gfQrjsZpVefrYeicN2EsfxlcYVFspaTFUVN6srWn+1ezZ1hhRP+BcxlhXfxEfIAw4DxNuBrNfYPOVMJAKxf1Klb+vlx2VvSFYHB03S4LGKl9cOa1rj8KB8Mddec745ISKNhAturbTchgG++fv3WX8VKpZB2d3cy0XLo2tqHEIVbJotQKuQBxosaLWNVjpwX222AWL7cVnS5G+EB6NeUn+cmp8pH/4f5Boby1dobiJTBeO26eblSivHrsIIg6UBNpwkyvvFaRxcbAO/AUNHZlqvWGAXXfFVdaVRkPj6Th4VwW8ZZdbz+yxyAojgenhxgGDf+h/3pc9Sa3+ArDZaqOH8jcug/cMzFpfa/iLHxbB0j351w15CtgM+n0NWqLj8jF/pKVitl/itiE6XNVeqKAvrxoJ7LNTchSYiOGXkhUgKhL/DtlaqTfLnAJ3SVIpQfkRjl03bxUnWTt3K5z7Cxr/OqISIv7IlpSrnRWNnqs253tL9zkShuXdiJ9o5je473rURbfQfjLUuMm3J0OSIqjKfWNFRUyfsFLbXjs17E656SlZfp6s9o6Cix1+2+rs724bV5kdMM4jC66tPdwQmpMROPnigfSUhY0jPyE00N+p4BQDR/FfaqTzR8Yfjm/1jgpubY+31CuTInXrxyBb/8jLb8WAOW68pbrZMzbuhGtwl+sUnPyO9xXZWSZb2uKire/3yJDfAOXZfxmtIHMIES8rpOFrxh0BsFqTsVdIAlPap4X+5+oVgSFCAAaw19Skn/rji7VRS8Kjb10ery49qDa5czB0sKfLMLX0iLO/hhxk4uzfpEvrCF59yZOPnF6HeK9+fSGKaWb8+T07g0toob8/z6un1FGQ2CoFBRGAWGFafmxO4t3p/9MRdUYGqeCJjZxKYfPbeNx3FoatKFA8/v9v/5AngrE7nKVAwbWN3RW40nBA73ztdju6trddJ1u+LuPk+VxWYmdBQ3aMuOaOAbfWCtLIaWZe3OQMnpuvPn2riiiGfS8jLGzuSosKS0aO3HmrrjFXWUKOWAIpTPV+XlDX9wsuqzT4ovgMcXBD8aGyK4ay9O1paaP3XJVIWKSZNXJAnbDporik5rymvhH6TI3JqaNPXHM/PWpr52beDd8w1FJ2RJUWH0+Y7RTp7NeZ+tKj5/qfy4BUv40uDwJOl0U2SMn56tGwh7OdHV5BUKXgBjd54GzkOF7MAX6oaafgBAv059Xsdj5Dnx4si0rZk9FZUXqg93RSsV/K6LE89VGYYFqBlNDKKDYl89EHvXYm7YhozxS0OAT0zmrphJDZQHSpWjNzcokgBAfvxfkwEA4vQ3C9Jd7YsXriosUk1YEF34L9GjN4OUhUfHOswAAISoCv95isbE1CZ9Z83IlzkMDg7+5D9jselPzlYfPTmLXTj6B9hhmhJ733lx1Ga1m27bh+0AB7Snx1JvD3qsyW2LzWjj+POpJbPYsdPE+zKBuaH0ucOWnNK8xOnmV7nFzYbcfzzt//Lbu1fP93Qqtrs8Z3/dT/M+ypa5GGnUndqce84Ut+3jVxS8u9f+YA1q971YXEerjpcm39f8uN6q/A/x610TMo5YMNxwHMfxE7jeiyfXw5/r+sBtiY+nG75OwoDA1O3ydfMecIC5n7vyl2nrVs13wAEwWZb+7YZXVa4CDsCyCJXsk7ILpQkXuHGvHS5c6+bi7kfLwfydFywAN/TvFNONxE1HnFK0a26rItzGDcdxPwBTHMcR98dsMBgGbfyHxf7e92487xhDb8+gJ18k8Ped/zexEO7ntvE4YvHgiUS8H8DB7wzRInHwwqmWmHPkPfkEQSxmJOMIgljMSMYRBLGYzSzjhKEPuIwHaUEXTxDE7Mws4x5/aaEmxch3SBME8WM1s+uqwkeRUPqAKyEIgph7dx7HcTgcDw8ySEcQxCLhIuMoioK3P8w981IQQRDEHJqUcRwOh8PheHp6IiQJbUdIzBEEsdBNei8XAIfDYbfbGYbxvlqCr2swZJxqS4IgiB++OzMOYzFns9lsNhvLsna7fV4qIwiCmD0XGQfAMZn7yyIIgpgTrjNuBEk3giAWuukyjiAIYqEjU+EIgljMSMYRBLGYkYwjCGIxIxlHEMRi9v/nxUtXjTbzlgAAAABJRU5ErkJggg==;" parent="1" vertex="1">
          <mxGeometry x="360" y="198" width="417" height="54" as="geometry" />
        </mxCell>
        <mxCell id="CwLyMrU-MZQjoY-OAHLn-4" value="" style="shape=image;verticalLabelPosition=bottom;labelBackgroundColor=default;verticalAlign=top;aspect=fixed;imageAspect=0;image=data:image/png,iVBORw0KGgoAAAANSUhEUgAAAX0AAAA6CAIAAADTMR5mAAAACXBIWXMAAA7EAAAOxAGVKw4bAAAR/klEQVR4nO3df1gU9b4H8PcyzAi75A7o7lEWY7f4cUUKwR8k0YH2kSN3T1wNPaZ2SLtQiiFmUl48dMzc8qGw1Ew8BT0Wptwjklwe92rWJmEUQgpHgvjRs5AsEouwKLsLM7tw/wAUFFC7sKZ9Xw9/MDuz3/nMMPOeme/OLILe3l4QBEHYkcOdLoAgiN8dkjsEQdgbyR2CIOyN5A5BEPZGcocgCHsjuUMQhL2R3CEIwt5I7hAEYW8kdwiCsDeSOwRB2Jvj6KO/KSq1Tx0EQfx+CMjzWQRB2NlNznf6kGwiCGIM3SR3eoeyT00EQdzbRsud3t7enp4eq9VqtVptNltPT4/dyiII4h42Yu70hQ7HcduulGaaq1psFnuWRRDEPWy03LFarduulJZaWz+bEiV3nGjPsgiCuIcNnzt9vTlWqzXTXEVChyCIsTXifYO9vb02m63FZiGhQxDE2Botd0hHMkEQ4+GW7t+56ly3YXPbN//iWsepmvHzMDP5TbdHAydI7nQhBEHc5vNZd2noAPgX17q57Zs7XQVBEMDt5s5dGjp97uriCeJeQp5HJwjC3kjuEARhbyR3CIKwN5I7BEHY2+19jk4QY8ZQnvv+YW2dGYDo/jnRLywPlt1eA6aqUt3k2f53za0RhnOnzf6hnvSdruO3gJzv3ECvSVEl7DvD9w+eyXh+fkzCnrpbeq+laIcqZunqPP2YVGJryH72PzdkNoxJY/3GtsJfzdaQnfKxbtbadw+8s+dA6pq5+qzXc/S222tD9/mxc3fRR5Rt5ce/qOfudBW/EeN8vuMw45h8vkrQP2S0XtS0fxV72dAFsM5BaW4Bi5mJrKC7mbv4qbEwpbOtC3CifdMkcxdPcJsisBltbdrLhbFGpN0fHXtdpV2FU/Vnm8e+Yr4i5wudPCJ+7p0/LJkKjp5o9Yt50vNOFzL2+O9Pau9TvRXlTgMArVi0Vv1HmqWactd92OLFNHaFJG2aWb1nb341Bxtcw59OXOpF64v2va1ptIHn2NAX10d152V93WCqS5e9Ev+YRZO+t6gFNO8oj05aGTzl6nzMNQf2flJkAnh4LUp6aTY7MKImfdMRLsTVVN/eaGCeWL9RJeFrhjTifzbt9Za/pK7yNJ1MSzgg+/tHyxVc6e51P0T+Y6UPBQBoK89OPXzODAhnLEtaHli5K+H7iD0v+cHWkL36oHRHclDlod37f+AY8BO8l21Wtb+vqThP785kk55Edurh6m4anMh/1dplc0356/bqZ8m5+nr9JZ8Ff0LNeb2ugV7w9/VKGfTHMzL/R89RPDwi4jeEyc6kbzhBK4wG6erkZf72/quNofG+zrIB6OoofLq5GQ4uyqmPvzB5vq77UArmaqbMC+Tr3v/5y7M2V+WURzZKo6fi4NOdiJ00/wW68Y26vCOci8pDpXYN11kO7ag7lNsL1i3i0z+4aH7Of99kheCKcTySoa0o/wtT0IYIGYCOgteXZlT0HYSPbl16FHAJST4SH0gB+tKs3Ye155s4RuL7+JLY+BAZ05S7elP2TwCAn3I2zM8BJYna+U7MdMDSoE3fn/t1QwtHS33mRK9bqXyQ1h9IeeUY7e9qqDHJlY+gML+SmbXy79vCpNdKadLmlIvmJz3m1j/MXyjKTs8rLGsyUWLpQ+Gxm5b4iztOJCVknveLPZS8QFy+b3GaVqxSf7Tch+L1xz/OPFRS3WyGs9jjoUWJr82XUbdUoWxm+DOJywOnYJQKjd/mZGaeOnuhA2L3INWK2JgAlgJs5fuWpmmp2VGPm4tP1LZwdHDiWxsjxcOu5vYLetGD4ey1F4SsGwCaRlP7A2+po8T86fRcTqV+L4C2NeSu23/80S3KdrPPqs1rZgr5b9M35JRHvqpa4FeiXxGvnNaUu67c97/UiTKYtLtSDpQHJQX0bxo2YzsTEv9eiIwy5K/bpa2fHS3vnx9NQc/LkzYvpC/kpbxVpFfNKX5vSCNvPeVNp9cb4dlYCcUUfU0bFK21eu8ZCqq/hZqDB3Whm1OjxMbjGZ981xR4/VOM5rP5ZYoXU2Omw1RWcK6dVS6Zk8+5J8YGVO96STcvWb1IAr0mJSWvZtZ8wMApXk5chdOvJuRfUqdudtdlbsoq6VA6l3xyjI3ZGadg+IpdKdnaORvFMP1MK/cl+zv/io37N8Qe/TtdPZc0PT939fRqWr1jXeSBjoxK+PA8QesbPx1N6RVA0HPwJ6Or36IV4hlqc91UgSN6unVU5zm67VzDh5lcd/NEJwguVgFTbN2A08XeJo3ABoEDILj5vG+T7jNNxeRwdZgQAJz9ojfEhepOZR6pY2apYh53ByNTUABXl7V5V36zxF+lkv1Sos1P3w723fXy4FVxbGvtiT0FOrfZy2Jmsg4ihTsAc3Ha2/sKeEXEwtj7jYU5X+xLgeuHcVKAN3Qw82dKjxTknwmJDpXkFpwqbg6LGjhW82c0+fWeUX/z69+FOsszk9O1BqGPUhU0mWus0us74T/8Tg0YCjJ3F1S7hz2zaabIpK8+bzIBADtihbvf3nfSLJsXEe1aoz2hSUuh1f9YwoxUoSlv+7Y8nVtAVKwfXVmQf2BXu1CtXureP+u2Uu35sKjYENbSZHQZbVXzw15VURKFnxhAY2V9S7l+64tHAfAWs38zRFNY/Ud7tx+lmc4GE+V37YKls766Xm98e2shAJsZrKEd6I9vinWlKj95tYhh0N5q9u0cMiuZr5wGMJEVWZq4jhsacZ/hazyls8h1rbIF81qKK82Bv9RLAxYOHOwM1XVQ/LsYABsZlwig4LolEfrPk+S+td0UNic4PCRUTqOq/406ndDnCQkATPHx7Tnc2AlQEsUDQgAiMSvzcgcgYlnOYkJdfU1TbeYrPwCABcwkA9wAhbfvXR46sFO/soBxmjABDm5Pu0116jVWdbkEThSB+1HrSKPv6ME0as2IFk0O7C3+1FAXe79vxgNear6pqOui5vLZzO5u9E3XlzMOFMbpGqizNF9j8F2l6j+mMRL/yDCcqc0+UsdMm6OM9OqfrOyUVg9WtTJ5fQBtm4OVW098VXA23i94XpjMQp9LL9BNlAerwvo7STtKtN92YJoq9rkIGcUrzJUph0oKy1YuBsC4Bz8VrvuqoOXfQhb/EScKao2Xgf7c6Sg8UoTQtcqBrlb+zKnCZrCRa7dcPZiPwsZxNvBdxnaO9nlEFRrV9w6hbNgKO8tOF3Rg2sLE15YoKF7RlbBDW3S6aolyhAprvizQcXTwipXRj4rwuEj/fUbxlyX6pQv7W2P8YrbHKUcKxAHSaTLuVE0LvAbO78y67w3SWUKAZpj+l2R/Xq9eerXT2Kx99WD741uSlWJUfJxwcFBbFBjnGct2xAdSuF5VXvqXbOLOOAVj1m5Kub5Lixq0IodphPd/QF9dVqt39l7wEK39vLLiF/isEQ56/4h/h76uQWlU0ruPNlR8V6JVby1ctSVx0mgr5FpH69CloH1VyW+Gia4On6EZhrnzXQD/b/boV2ZZVfsDCRb5ioz7qG8vfqnm+r6nWXAt9ASOEADoBRyqOnOmlx+Ku1ByzOwQ6DI3Q7Z0j/ONG9S4aNEcK2ZCouffZKcxtRk5QOrhTgOgJB5TAIvR2DnC1O1Gow24oElZuvrZxQkph5oAs7HVfG0CauAHwNWDeJUm/7xEuWT21Q2uvd3IAx5e8lva5qaEP/P8bIWlMjctbdPy1QmbNbpRvi2yw9huAz1VIqUA0B7uLGBsucRfm2Bohe2tRoAvfuelZxevfnZ5RrEFaDe2Xz15cXGXjnqa029WRCSn2XeozgQAZt2RvTv2lxkHnQF5+MmN35e3ALAZTn+gqbGYTFdoqYcYMFcUVppsPA+aAQ8b4CxXTK4/W8YDMJVpsrWGa61cMfGT3KUMoC8p1oGzjlzPMI3QPv5szdESzs9bNM3btf5kcaf3oM/OJL5e5przBgDGk+nbDzTAWYTLRh5AW62uFUDHuUNf6Jw9A1VL1kRL9JUGUH29DhJfL77mfAcANP1QTXsrRlldXt6Kn8sqOgDwuvxD2vpbWLF3CbtcZ3V8tVjf2NXDX+xqqWIYiJhzlk64eaomFGm7bABAyZXO6LL8ck4gDHTzVVh/yuy4kHnJ5kSHn50xT+UkdbJc7BrvKi2V+Z81KP7jueuvnClgUCAAELmxDNDSaOAhoW2GlmbAmWVdrk08hCsrooBp8xOfn8MOjBXdL8aJUUoxn/7vU8aZKyJ9BjXjytJAY109jxvPdzjYAM5kulal0Gfx+tTFvLG+tjgrI7MgJ/d0+MYI4fAVillXCjUXDS02KCi+sckIsOwkGheGL87VlQVMgbFro3wGCpnAKvp3quHaHxblGa1+Dvv2b/qrGQDrF7Zm60IZZTg7MJ4OXRFTtnfH2m9EgCj86TXOEvbP8h3bt+o8pL4LVMHfaT45GbD4IXH229tFLydHvRi2e+fWlCwajvKopEGfqz8Urjz44etJRVL5HOWT4qzMnJodS3yYYcoB3G9sRPSQN7e7wCdWDMbbB7XZ0xYqBi2dz4qVitRdmz4H7vNeluQJl/DQf+7f/lq5dLKEdQdvE0vFtekvnoIzDUdZ1AZPiA2++oOvv0Mnr1rhk7Yz5TSDbjooYa2CMlWMtJbcwp75a236K1tPOPPc1Ij4BUDLra3e3zz79O9c1joYuigBnJwhAGDTXCr9lg1/QfoEOn482yNWTgyKpoyZv5RVOTzwqSRyRW/9GxPKtVbH6ULPqQLrWYtx3EMHMH6Vp+UCElXu149gWREFfcmx3PyZrEgWpPRiZ4YrZQX5JzLSmBCPpqLjzZCqQoL6tmaKZV2ACyX5/2R9JooU82YrxDOVc4UV3xYd/1oU7CXkLxl0ZQafV/yCRiml/mT+GVHotpBB3a6g54Y/JinVnty71RYR9AdTY5lB8XJSlEwolQhhayjMKaBxquJq7nQUZaZWus71lrnSXH8cDGTEcBWGhoqLtZrd2/jgifXaAjPkEcrpQNnw1fn8KUSmyas4ftIDflKKb9FVVjup1P43rLebkgREvxoQPfSlqJ1bBn4XByckBw8aJ4qIT40YGAgNAwBs2bO0b1i1ca9qmFk4e0XvTB2YRVjw8mtjFM+nJvfPJyw5o2/BbmhEplJr+l4RKlM/Ul7XuFtATGrAoGGvZWnqIROo4tVD2pu95uPZfb8te3PwG4VXlzow6Z1AAIB0cXJfW7LIOHXkoGnnxu2ZO8yC3nXs078jAH3dcbBE9SOfdv+c2EmRG9Gts+jeqC1Q23pBV79QNwEec16QLPybwGrkLxU1fZbQYcaEse9CHsLWcPxwrXTBluAbr7EeDFum+iHrq/LsXaVwCUkO8wpkvJap47EnR6vJq2AkvlFxsc8PnINQfpGrQmqySrQfZGgpSZTnbIVYHJq0mfvgYP43mqyTEIlZmV+YYrRvcOTP5ZxsfFC1cdbQ0xqXgNjt8XR63umCvBpKLPMLV7oAoAOf+ktw5eHi/IN82EyFc13/kZNhXVGvzSpq6eRpZ4l/VNyysKu5c2OFwuANL69h9ueePpnL0bJZqtjEJQoKI97g47Mk+VVkZZ3SZpWbIGTd5UFL7ppb94jfiOH/X2jflyubTCbXSx/rPeOuvi5ryLjN9nkYzHAS4b4bAs7Ko7MbfA8gAO0IoRMYAQBYOXRy4HvQC1AUnCZANPBeixlXeuDq8qv7lQcvy2Am7a6Ed80xHyUr7/ge1PzF688dZje9mxgqvPnEBHF3Gu/zHRqSEbppHWmww+WHIwN2+EtwOAsxPp8gGiGPSpz52B0PHcDUTvuveC50Hgkd4l5Gns8CAJlyYfTNp7IH0fSw6Ol3ugiCGGfk+SyCIOyN5A5BEPZGcocgCHsjuUMQhL3dXu48zEwepzrs4K4uniDuJbeXO2+6PXqX7r19/7fvTldBEARwu5+jB06Q/O/UReNUCkEQvxMjnu8IBAIHB9L7QxDE2BstdyiKklLO9dbL9iyIIIh73vC5IxAIBAKBo6NjrHD6a23fkeghCGIMDf9cKIDe3t6enh6O47ZdKc00V7XYRvnmKIIgiNswYu5gIHqsVqvVarXZbD09PfasjCCIe9VouQOgdyi7lUUQxD3sJrnThyQOQRBj6JZyhyAIYgyRO3QIgrA3kjsEQdjb/wH8z4g3ILpNiQAAAABJRU5ErkJggg==;" parent="1" vertex="1">
          <mxGeometry x="370" y="-206" width="381" height="58" as="geometry" />
        </mxCell>
        <mxCell id="CwLyMrU-MZQjoY-OAHLn-5" value="" style="shape=image;verticalLabelPosition=bottom;labelBackgroundColor=default;verticalAlign=top;aspect=fixed;imageAspect=0;image=data:image/png,iVBORw0KGgoAAAANSUhEUgAAAh4AAAAzCAIAAABXDJbcAAAACXBIWXMAAA7EAAAOxAGVKw4bAAAXIklEQVR4nO3df1BTV9oH8C+EXCSEZCHpShiBbHwhdgzuRBQXwReWbhxLqW6BbqGKdOii9DXWYlvXlm7VXdmyarFr4wql9ZXSCt1X8IVGcUjrwriRFcHsq7EFnGZBWsDZBJYYguTn+weEH5Ig1Shiz2f4Q24OJ8+559773HPOTfSw2+0gCIIgCPfxnO0ACIIgiEcNSS0EQRCEm5HUQhAEQbiZl6sXyBoMQRAEcXecpBb7ZA8+JoIgCGJOuz212O12m81msVgsFovVarXZbLMSFkEQBDF3eUwcl4zkFZPJ5HO5CNeqMNQ3i5ERBEEQc9Sk1GKz2cxms/c//oy+rxC5BcygWYyMIAiCmKPGnxAbWVmxWCy4VkXyCkEQBHHXJj18bLfbrVYrhvpIXiEIgiDu2u2phazbEwRBEPfI5edaxum+xsX3oGu//8G4Gyccy18B5/HZjoMgCOKHZQafxp+jeQWArh0X35vtIAiCIH5wZpBa5mheGTGngycIgpibyHeIEQRBEG5GUgtBEAThZiS1EARBEG5GUgtBEAThZiS1EATxKLKqC9YXK4Ycvw415a0/2mid9k/OFT97uM3ZC9rG812mew+pv37btuqOe69nLiCpBQDQrcj55Y6CZvPor81laxNzni3SzOhvh5ryfpkTK63tcEsk1q6SzVs3HOu6p0rOFyck5txrJTA3HtyR8LqiZ3yLVnEwf23K1tjErXnn7q3uu47Q2la4Pic2cfxnzQH1bUXURTtiE7cXNANA44HtsYk5Cevz9yh6XdQ4tZnOfL9e1le9nhP79EG5fkal7+SeOqL92O7YxK17zs/sre71YNZX7cyJTdy6rUYPAJrqDU/n5JzQ3mVlUxgUsoTEnIRn38opUj3Qr87tV1edve6G1PJDMoOPTN4Lego2/m48f938By7vxVcaxNdh4Tf4NAu3AADLP8cSoEGBuM23J7t/pOLi1/c3SJhbTja0h/585zL6fX6jOzOcO12pFUrXBc92IMANZcXfEPdqDG9sS+fF8rNdpiUpRZsign48S1HR2BFPxJj6es6f1fSxBJIVPI6IO03xyBff/ORJVcnvKxUnLqQnrAunTSkxtZkPm4ezI6ZjbqlTdqx9ku/uepmxG4+G9zTIZCWnFPWp4uTpet4lddFbJQYxz6bVfTfATMraJeH2nSt785Pr3vO5In8jKABGdflR2d+NgBkLE//wcvD5oi9a1F57jrHzk+nlB6sbDYCJEZmRlb2MMVat4WrtOx9c0lF0Ey0kMzctzkf5+ptq3mMDuiUb85d9s+ePih42l8dnDFs5AEzXFO980NQDZ4WfCXTT3ppl9zm1wG4GvK4f6b/0Fbwemxf5CiP697ix3mwFHXazHSPXcpvV7gmYBk4YT7bY7N70nx3wC/zqpvyI2QLPoW9+dJ9DRH9TxVlj9NY4PgC9ctv6spaRUXPNvtgawDdqf0VWNA3oVskOV8uv9pro3Ij4tbnZUXyqt1S6u2RkbKOp3pBYDRo3bf9e6SJgqEteUl56rqvHTOeFiTNfSksS0DvK87Nq6ZH+2iuDIUkrUHeqzVucdmjXxItar/yk2i9Butp/5Fej+mSF7KRK3Y+AUFHKpvTMJSxgZKQvk9PEafHGhjpNj5ket2V3vgSNJR8VntHo/IWZKyc2z6g+USGrUbX3gwoSJKVnbIrnUi4rYY39mbrmiys/jilaMX7ywGC8aUWQKEIUGjheudMIr1Vu2K7oXhKfSbWWq3pNdMGmAzvSQvXuiDBQkpUh0Su3NWj6gsSbciWje2+wrfSPZeWXB6hF8U+zx6um/Ll8f3FEUGWDduims86f3Exzh6Li4GeqKzeMmMfiixLffiueT3PZy4bm6nfKLrZ8O2AwIWCB8OkXN2YvY6mLduSM3LOjrSAtpwAQZe0tSuV2lO3eUK6Le+P9/FVG+du/KVAFSovz0oIAfVvpoROVqq4+Kz2AG7w6WyqduM9n2BFOKzlfnLBXNXKvrdibowCoZRk1v4thWnvlBz+uuNzb3W/EPG74yid3bolxfTDrq3buKLwq3P5xbjJLXZAmk7MlRcUpIhoMrfXvHjndqNGbKAZngXjTmxmS+SM7nU51KuWtT0qpCSE721fTnBF9F6rfPaZs/FYPVmD0mtRXnxcF0AAfFj+UZXqcXdJqvDkI3FVqAQ3/hHD/jhRKW79t5xctcTGNn1yPfisvM9jccmjP5wCseh09amdhFJ+mrdhe/HlnXuYz4gpT4K4XRO1F+e2rthYlsKCt3/bb2nZxiuNmpbfyyCX+9rx8AfoUss1l6uiXgB4t5/W87aHmxoMyQ9KOojUsw9ni5y8B6C0/oo54LW9XEAz1xTnH1dGbxgrfVYseSvc7tQCAffhr354vAbvJO87O+5nNn3JeztbN/Nd3Nru37RZg19K1f/M2w5PmAY/7G157taKFG1O0igEA84QbX86QdCgLT2oosUQaHwg6T0gDTBrZ28UVN7iRayShN1TyU0dfB/vTLcFxGRkcraaqSNnuL85+XsShMcKDABgb3nu/4JwlPCExPWSgrqq+YDc4RzJ4gEmrpxIigv5XWdEclbmSU3pO2XAjJm3+aCSmZsXxzuDnfyMc2UF9Z46+VqKGICotHpdqm0r2GP3ez00e++LQfpVcHZP+QhRnqFfnC8O58j0n2wxcQZIYilPqscF7z6ni1462UYvjNz3D7vjydMW7Mu/A3dmLnFcyTt9UXmeM3PTzybf5ZgCYsGX6CE0qpWLVLzZt4eI7rZ+nuyOcxNxyrKykWcsMi4pnt1ae1wMTr84URQOcTrLf1kyt8uBh5RVejPRVkd9g75WrQwYAYLnoZWg1mk6mMGWDgAeN/Liy9GD10v/OEMan7+RrW05UKm4EJmVJRExwwtnO3ntUS9lHJecR/auMJD56NG3aQct0ETraC0zqCOeVhMe/kSvqOFdd2jwkeiotKRzeXCETAHrUreawVZJkPuvm+doSRUUBX1j0jMtmutBb+acKhVaQtiU9gjbQru66ecvxir94dZCqrlb9wrrx0k73FcfVGTFY+9o7te3+orRMoXersry8+E2fvKJURx719AJgmn7VZDpeQpGAAuAfEgZVz7+udw6FpAUBoEeIAr2/BmgsDq3t8J4mioJOOyQyjO1qrbpd164uyqkFYDbYeD23ED5yTA5ebx8MSQ4FgIBFCznyrm5wKFaIaAGAgc5ur/B1LADMxYKfVBkxeF3d2aM7uK8OgNUItlYHhqPwo+NBpBZgnrf3PNAFlGCxh+1bc5+J5mL2wYvmAXiYPQCA5uVBfwD/e/KgqvyMLiJDMnrqUtxICRfNmg9OaryDxUkSwWixy0p5NwLWpO3fIqKsYvx6X1W9sjE7K25FDH+I3liibGeFxK2J4Y8U1qvkF/QIlmx/MY5Ps4QbW3P+oqr7v7RMAFRg/LMxbQ3K7rCozFWoPKfR6oHR1KKvO9mElVlJo+eztq5ObaAJtv82K3k++uYPpB5ukzf0Jqc7TjBKKP19RpJjmNF4sM0AhiRbunMVoyMgf0PZyDJGb0Ndm4EmkErXJvnDFKQ9v0dZV6/JXiRwWsmYjlOKRmbUobgJL1iN7Re/0YHO545tvFOEYYn733hyrKsbT7gzwkmsvZcua0EJN+3OSvbXh+flFagmvuzDCaCjtbWx1Ri5eNKA4PZmWs3DVphuDejMdNGKX0ieGhlUM/hOexngPy395Fd0WM0mk9j7cpO6+fq1G4hcJE5apDd9Wam4wRY9EXOHyAFYLQBu6o14LCJpVQxz8pTdzDrCRSVcoUQibP9OUdo8xBPHJI2NFGmi7e+LKR/AZDYEaxXNtR3XegGRq2a6CNtssgFmo05vZq5YmimJH79hpLHjJOL6w8rG+PG5Haf7igPnZ4S6Xtluosc9l/bCSgbiGR2qsoZ6VUfq6AwbN4BNWTXq5i6DIJg5XYh0ijLevAX4AAAGjQYfht/kEiY4W25urS2oZ729PyOcMsrz/tAx8SUaK066Q7poyp84RaN7j+4rx0y7FcMAPEHNW5RdkBU91teDTeOFHxUPIrV4hu1DGAB42PSmln2Wf2HqjPds6alVNFBR+xPucAEw9A+YAH5QIAWAxuXPB7QDukHA6QCsX6+zAl2KnPWKsW192qHxAjTHD0aObgBAq6LiKufp/eLRs8Wq1+qBeVweFwACgnlMtGn7BgDH6erL443fxZsNg2bQOPwQBoCgBVwKXQBgHejuB6wa2UvbZY6ilHbANBb4pEochtQV8t7w1M2isdZ11mZJq9utYC5Zlx3ruDrfKULqsUDOeKVujfB2Rp0B8OWFsgCweEE+UE2896dHP7c2Wl1Z8fr2iuAnj/7ZseIytZnzY6RZmsLP1KUH1aWg85atzX9DEu7j6k3N7WfLCk+o1DccT3/QzDfNrgq7FPlcRlp3ZZWiMu9MJXyDk1/eun2V42icYUdMX8lU2rbSQyc+v9zb5zj2KJPR5OJYdokWnJL9ZHtRg+LYUcUxUMFR29/KSnIsEfqtiFl9VCY/N7Z4ead9NfmM0GkHAHPDobcaDjkK9A/orODTACDgiXXp9bLSY/lrygTSD3eMDfqnRhi9WFcq16zOEDBhbDmp1C1JDaehHZY2tca0RkRpv+kEbzWH10Epr3UjMtjYcun6sA9gMA4HCIMooFvV0AGeFaBGRr1c0UJL4cUuLApGv6r0DD0lXTR6tvqGhLMU6k5ECtB39RvDwvggGB1xsEODBqra9RCw+q62dViD4RMSzj3deNkcLaYbLivK+8TZy7/Xrp8bHsiEWMd7/RdUdtuw9d9feVkt/t7zLMO3AJaHLzAMwBtMNvCt/dYda3K3obbymq7wpI2Rt10+aMBIaA5MfzYFdHfrTOBSVm33DWAem+M7XngSf5YfDVgQv+tFcYDjVb9gFhRTSo4zKk4otUtSUsLGYmBxWcANbU8/wEVfd48B4AdMmFqZ9L50pi8dVmNPHxA6mggBgMbmsAC9IHPHuqVjbQwIppxXMqpHcboO4vzVE2ayF8TlFwoaT5QVnlOUN/9i10r6DCOccLVyZ4RTMDhMQDvQdwvwNff1DwETn8gwX5ErGvtZcTkbM8UhfEeFTpoJhuiZzUefMfd1auqPlxWeqyltjMlPYDgPo195uKRJTRek5SZGz6ery2QlrVPKTJ20sZoBi2lowmV1vlhaIJYOatWXGmSHFFWliqSVozP4M+2IaSuZquWzj0ub9bxVKfmSEGa/suBgk27sNZd72wwrYDJOzAcBy9bt/3CdSdvVoqh+p6xJdiIqKTdk9DVKmJTAyfpcRVkRPsN9NQHHnw0Yo1/ISgtzNJBiCx2xGS4oKluNfElG7jqhcLrlFkb0S1mdh8tzfj0EeDEXx7+dMzLV7BWEtnf2KHp6jfwNm0UUl7OBl7c3v5HLDQsKYVmBxTFJn3388s4mHl+ctI4lO1at/q1A1F358iH6gRcy4g58nPU6nbIyIp/fOGHMFJjyUtQ7sn3bKAzTFm7JFVFocrxEj342UV5QmFXPDg3nCmkwWQPTpTF7ZPtyjtNBC0nP5QIzexh1TnkgqcWsYfZf9ABoNA9PLw9gGJ1/t/40lRb7Fr5WwU/i8R9ce89HduOdq3KvvobTcpNo15opj2SwWSwaOpoVpadEHF/eynhBwJKYpCBlhaIsj1oe2n2x6gZ4a6KiR65/NDbHF/j2UsUJlojNCF8hDmdFJC1jtFxoqjznE7+QMdyna7+sjcgV/myaUDobypsZq3dFBYxv4satFh5rbftg91HdUrTUtZl8BElxLp8eiVgmZCpU9WUVon5248mxIzVw9ROC0hJN3SkVtSzQ+5auo711eFVu5DSrhSZNZU0Xf0169MSxAo3BCxMmPyU6dq6+p3vAsX46KxH2Ko7VX9Fe/6cVuKH64JCOI4qXJgQuXcIqPaUu/aAeCzWlzebJqWWos0sP/5jkp0TjV1unzdQ3FR5o4ywT8P3po1P5no56pvbyyHYfrnBxyE/6L1R0TbwJ9/Fj02HtUnxWj4V0TnhUdCidG8il0Hvl7BeKQW3VtfGi7X8pLh8QRIZx/W6ZYQPoXhTt+3aE60oAbgAD6G05U12l5/rNF0rEXG8AoHMWLIxYyLhSdr1n4njFycHsw+MyYO2qO6mkoGwZfwJXW3WgsiNEGMFjDw+bAVDUpAcsw1fHiCorJz0Y7nxfOSF6Yjn/TG1LXX0ohEGelu6OVrWPpGjx6KHVfb3HQAtMWRcTKZi+GsBXkLYjL23KZs7StbsSxqPlxWccjR/9txQAkLl/d+bohpi4XwGA6EPxyO+Zv8vLhBPMRZL8QsmEDVH5H0aN/jM0Pv+I4w2yAABhkvw/uSj8qHgway0eFG3SWrzXd/v+fRbMpUn0+HQMa62aIzcbjrHtD/ZDNtauypOaoNU74qbOHAhiste0yerVJYdV8I3av0oQTQk27cpCUY38TG0LnRvxVEZulmOWgiZMzohSH1fJj5bJady0/eJwFkuSmzv80YmK81/IzoLJYvMfjwmbbinX3Fj11w6BJF886eTkrdl8wFBWWKMqPYmAUHH2i+nJrpdVmavS37g68O6Z+sJjguRlQurM6Ce/eM9ID1krZGeaSo8aMY8VxF+UHDTdM9Z9fzstHxC+muTs6WcavAGTbXyuaRYitA5cUdRX9QMA+jWKMxqmSSRNCIzMeDG7u6z8bOX7HVHxYlbHhYkTYiaTFaBNqtN5M+lsDq7Ljzf1DJqpedzIpzKyV42llim9vChmS5am4DPVns2qAIE4Yj59wq0nPS51bVyXovFURYsVoixhdCiXGZu4qb73A9Xp9w1RkaHocBT282f0fKmQndIbrPSAUHH2Jgn/+3eEq0oABMQnZl6oqLxcW9gMallGtJgrem5jWneF/C/7Umu4kcs5PFrvhFHL1IOZHv3s2rjWmoZTlaZYkdBH0zJalOKwjVXyGnm/0URj8MWSLc8JgQkf5AlakbSkRq0yA4D/NPvKmbB1+9+A7LhSflxtACOAF7xyyoPG1MMzq04442G3j66V2+12i8UyODj4o/+Jwfq/jhf59Of3UL+9f8A6TNECfW5/zMtitulv2YZtgAcoL08/H0/KUeSW0dJn8Qhg0ebdwxuPm9iWCQz1xanvG6XFuUl39wijG92o3/ZfNQGv7t21knHnwveVtatUuk/+09xPcwROZt411Ru21erjNh9/TTzt8ulDZlBd8JJMTkmOFjvmiKZv5sPgkewI99Ar9u7ecyFQWrwjjfw36w+x+z1Q8PBne03NKwC86J4Bfl48theP5cVhjOcVAPMYXkHuyiuuaRGSviV19aznFcDQT1/6XMamFbOdVwDojX7/uXZnqosL7oIIiYDed7Z4zb1/Gv9BaTywPfZZmVxLD48Vj62y3KGZD4NHriPcwqCQJSTu2HPeyFws/pmr1Xvi4XC/Ry0PARejFuLuGLRa7aCF9ePAAJePTj1ETNre7kEvFpcd4Dv7X7XgXnOrI9xjUN+hNXr7snjch+A+jJjWg1lrIR4dTC6X+RAM9WaI4gby506038vc6gj38GXxfe/4QSHioUC+npIgCIJwM5JaCIIgCDcjqYUgCIJwsxmkFk74/Q/jvpnTwRMEQcxNM0gty1+ZqxdoTjiWvzLbQRAEQfzgzOAJMc7jWFN8/yMhCIIgHhGTRi0eHh6enmT1hSAIgrgnt6cWGo0GnwAYumcrIIIgCGKuG08tHh4eHh4eXl5eCEtGy2GSXQiCIIi7M/5FLwDsdrvNZjOZTD6Xi3CtCkN9sxgZQRAEMUdNSi1wZBeLxWKxWKxWq81mm63ICIIgiDnq9tQCwD7ZrIRFEARBzF1OUssIklQIgiCIu+MytRAEQRDE3SGfYiEIgiDcjKQWgiAIws1IaiEIgiDcjKQWgiAIws3+HybaVp3WHo7HAAAAAElFTkSuQmCC;" parent="1" vertex="1">
          <mxGeometry x="360" y="280" width="542" height="51" as="geometry" />
        </mxCell>
        <mxCell id="CwLyMrU-MZQjoY-OAHLn-6" value="" style="shape=image;verticalLabelPosition=bottom;labelBackgroundColor=default;verticalAlign=top;aspect=fixed;imageAspect=0;image=data:image/png,iVBORw0KGgoAAAANSUhEUgAAAaoAAAA9CAIAAABz+bruAAAACXBIWXMAAA7EAAAOxAGVKw4bAAAQlElEQVR4nO3dfVhT590H8G8IJwKhcqAmKsFCKsJErKACA1FoisUnV1ktWqt2DDeQilpfefTC0TKV2scNW7Uv+ljZ2rKinUp1ucx0tVFEcbxUYFKpgE9ACShRCEoAcxLy/BG1KC/KKijm97n4Iznnzn3/DpBv7vPCgWc2m0EIIdbH5nEXQAghjwfFHyHESlH8EUKsFMUfIcRKUfwRQqwUxR8hxEpR/BFCrBTFHyHESlH8EUKsFMUfIcRKUfwRQqwUxR8hxEpR/BFCrJRt76tP5xUNTB2EEDLAeHTDK0KIdXrA7M+CIpIQ8vR5QPyZ7zUwNRFCyADoLf7MZnNHR4fRaDQajSaTqaOjY8DKIoSQ/tZj/Fmyz2AwbLxZlNFa3mBqG8iyCCGkv/UWf0ajcePNoiLjtW9GRHnYDh3IsgghpL91H3+WI31GozGjtZyyjxDyVOrxsmez2WwymRpMbZR9hJCnUm/xR+c6CCFPsYe67u+u4lvadY2n/2241k/V9J8XBMM2uUzxHyJ63IUQQp4Uffub30GafQD+bbi2rvH0466CEPIE6Vv8DdLssxjUxRNCHjm64wshxEpR/BFCrBTFHyHESlH8EUKsFMVfFxplinzpzgLu9tOC3QkRMUs/rnqo17blbZHHzHnrkOaRVGKq2fvb363MqHkknT1SzUdXxMyJfF/V/DCNObVy94bfrloau2pp7PrtB6r0fR5OW3yqhntws4GjLy8q0z7uIsjP1rfr/vrMZtxhjwg57/YznbFe2XQ87oa2HWDtJ6a7TJglGMrybl0x1H+ly01paWwH7BjvdFHgrCEuI3gmnalRdSM3Tof056Lj7qu0PXek5uyVR18xV7b/mNpjemIg8+j77iN9zsGj13xiXnN/3IX8LDrVp1sOsXFbPvB3AbSlGclbM4b9cVmYQx+6aCw9cozxCnV//D+SO9T/PFz88mRfuop0kOvn+IMJQHtz7ptXrsDGUTbyxSXDItS39qQgUDki2J+r+uTSd2dNzrIRv1wtjh6JrDdbEPdsxBKm9r2qQwcMjnI3eZpzuLptz5aqPdlmsC7TvxruqLyk+ERvBO+mrj/eDY15imP6iSunSwA052yYs7vMBAA4uH7OQcAxJPlAoj8f0BRlbt+nOldnEIi8X5wdlxgiEdRlv7V270UAwMX9KyP2gy+K2vpBzFigrUa14/PskzUNBkbsFRD9dqxsNKP5a8qaw4yvs7ZC7yH7JXIV5wWTYt/dGCb+qZQ61f5SYUTSVBcAqPh4acpBzj8qRP+vHHUL6z0zfnWcjxDQF+zf+Xle2WWd3gB2lI8sYeHcQObUO0u3n2GjPrKMXrR93rZT9hHv/nmcatY2zfgJhqpq4ZQpbhdO5F4VzXgnNWYS022FMJ3PmPf+Uf4EmY82/4wWriFxafGhIyyVWGZ953fOitkJeCV8kDanpyTQ5v69xj9hsb8LAEA0IW7Le3pHB5zasfIoI9VpxW8lT63dnfF3jYHPwW164sowCWqObv5c1QCmjRNHL14mZ1SfKMvOMdsz2KTZjCJ939mbgEHou2Dx3MC7GVqXvfjT2vEeuKZrqMfU1csjR3MVf/30yzw9wMFzZtIq99wV2/Rvp80dDRhKd76V5/8/Pqp3S6TjBZpqTdOIcNmw6rKLGo0hYNEmubTlfPa9o1TsWHvAEOKsr26q1QpeWb7aNSfzZI2+aodkTaJs1KP+DSQDaCB2fts7ris7LmUbf0i6VtvOc/G3FciHvhDMu7bl4sEk/f9l3SqMv3gk2ySc7zRurM2QkTxbdNxS81uKmUvv1Xw2suizpBZjOa9eyatXmW4BxnpznZJXr+S1tvdDqepvlGXDwqMtcxN7n+iV8YtmeTKAcJJ8UVL8omXTpXzAUJW5bpuihJNGymU+uKDY8f6O8xzYoAXxi5aHSfmAaPLcVfGLVs4PdQXQmp/+p53KOmHwq3ExIezlnJ0pXxS3AACnbRZM8hNrSxUFQlmoqKHgRH6n2SxXoFRUu0fO9ukU8q3FZ3VBsfOnDteV7fk0s4ADoLtYWfuMT+SC2EUJIeJrpdnp+8oMDv4RAUJo809UAeC+LyxugXjaFF8BANTeFAX5oEJ5osEv3Bs1quPne6kQALSVDcPlMZGuhuqcvfurAEheWrBo1bxQCcB3lSXGL0qKnxXI9vgNNdVprrpKvTtthJOTkA/wob/EyP6YPNf12JeH2ZitqWkfpc61U+5VtaJRh4AFaR+lpm2Zrv/62zKTSDY7QOwjXxY3QZ2ZpZ62Im1ratp6v4pdh9Smn3ploNVLX1/2TlLyG4wiq5Qz6ZoEIYkfpaZ9ujxIfVBVLZr6krD4uyoA3LlC9biQiUIGV1vFbySu3vy6W4FSPT522cYVMlNefjUquozC8KHhPOLWLU9ODmj6R57GTx7pIwpaTNk36PX37A8AwBPYDRkCG5c3XUbamXXl7Y7+Q4Uw/KiyZcAHAAhqVa2IFg7zN+d/pa2Ke8579/OeaVxdXnu98sbZjFu3YGln2Ym24aOf9oJaihRKrfcCufR2VSLfGWEoqNx7oEowKkA2w/N2s5ITKg1YeWzy8gmMKQCx648ezzmb6BMUHCZpY4p35KiHegTJwySWxs2FqjPNGCWPWzhdwuekredT9hTmlsTOAiBwDXojXH08p+EXIbOm4WhOpe4GMOL2y3IP5CF0sUzSuT7Gf97CqBkOnGNl/h/yygpqEOgpmZn04TwGJo4zBAhK8ioKqtVX4RsYEuSSpzpdWJHgrj9Zoue7Rr7kCRQBEPuFz3Cryy4w+L8ShnPKC416fQ8V+gcDAJz8ouLC/Ot0R5U1tVcbOHgKx06WjW3m/rnn1BXWKyJM5vTAbysHU5dlfEA6xtseOFddUVeZseYHAGiD4FktnFjmwr70k4xAoNO0iDsd8tNeuKBVn9uachgApzdJGtogdbzboch7nBMA4fMe7NeaBr6PM//8l+/kCQRoutbq3QJ2Wph4TWGFydNwSuP1YiyDQoGzh5sLAJYd6ir2ZAAHoSPX0NbNKGJA4u3BABjKCtvqDF03hwxOAxF/LCtvsswPzO1n6r9LM5iXAAAPtoDl/vk8W/AAmAGb8pb9Y0vdZ7lIg4eOkg0NjH7G078+a2nbQPzGNSgP5wtCkiMe8IbWN+oMgMTNlQHAF7mNAM7pdC2AS3etm3Q6E3BZmTJHeXeZ7lrrTw34d74AGO4sLFcqzolkWycL7+mLcXZxAMA8ywr50Ov1AKc+tjvj68KKK3dSgs/pDYD9BNkUkUpRmP/9GP33rRg1faoXbmcQH4wNAxhgw4APzsQ9oEJ7ByEAG+Y//MThu0qHayrOc7LgOx1oqsr47r5gBAKBZRHjLU/eFHZ3Sxv+tl6B19M2+QgNRdtjC+/tjQ1akRozttuR7vRvAgeg/NCO79hlW+OlglbV2hQNAKeA0OeVuSWlgsteU/0Y3Hf3Xn5vo6gB8J+cA4/kkRmI+GtvPj5LU9vewdW3N5QLBBAKitta4OIuH5KnajcBAN9DZo/2tqvFPAd/F2+p8WJG8+WM6yY7JvzsuGC5ndiurb4/dnXv0XZe8U2N9FcLfe3vXc4HOuUSAKELKwAaarUcRIxJ23AFsGdZx58a38OZFfKBURHLEgLYO2uFzznhaC+ltJ76+oTOb/4Mr/uX117WIlCkr9U0meAsFKIxJ3NHXoXAMypppv8IpuLz9L3lt5t6/VeARKnM3bWPa4Z0dojk/iEeokI8xOnrB38qiYJ+NUax64v852KDJAy0RRkbsriYNMueOAB4jpFeKilrDgty4tSK/erx86S6Vmc3kRDQnSmsMBiCTADfMpDI25PLyK/BWHc0FmUrmchfT/jp48FUd+GHZoxy0ldW6t3CxTdLuGd9xAJAU5ivhtgIgJkYMUaRcVAwaUFM1x9Tp4K7jtKlDSPodkpLBpsBib+OGyobbTufBzt78ACYlNeLzrDhS8SvoPnHsx1OsqETo/m6jKsl5TbPfyWaMd9c/d6QUpXRdqyD+0ie8Wybrt+zD9AdP6QyTFgmd71/BcsK+dAUHs5W+LFCyUSZJ+sXLpPkKI7uTheEuNXlHbkCsTxkouX9zGdZR+ByoeJvrNdQoTR4stTJTxboUHYm78hJYZCnA3ddqy7Req3xmdhLKdXfKgqEoRtDuh5Rq8jctr3eo+FkKQcn30nuQDUA2Iul4z3cmk4rLnfaU/QKmzpKube6DnzP0GldNqqzHiqU9vYaByHLwFR9KusYPBnnX4T4e/Q4OWJli1e3Z2WmrM3kADtR0BtJvwl1QMGd1S5hv/l15Y4164/ac4aR0xMjIXl5OrM+PaVA5BYcHuWTlb2r1HfBGG9N1oYPmOS4+KDNn61dwTAmoW/MwnumxnyRUJ21ZV1Dw3U2KnkyM5yVZX22ISlP7BEge80pM2N/xZbZXn4B0huVzi894Ey6V0zPo9zGSMc77f3T+8L/To727b0z8kQbmGN/PDD3feAWyn/k0p8LiHt2xmrcUrep36vMSTOZwVxYUjUEbgFLRK/+nmfUcdfz6r5Z2tyKIbzue35UTDVH9lWKI1ODuu74jg6bK/8h83jp3m1FcAxJDvP0F3jOTUvEx/tVykNlApF3VHxcwoTb736+z4wFIRWZhapdu1V8UZT7ZKmTU2jSOsOuLMVpZea3EDqxEp8waW83kOWK939bO1q+elLXQHEIko/THf9W3SbynRc7N5gBwmISKndmFW7/XSE7OsB7OIO7pyzgGvqy595dVcz4KVN7m/sB6GuFAJigN2YH1SjPKr4oM8Erwcffo5drQBipPPZd+b3LAuM/Drz9UDIjPm1Gp1UeEcl/ibj9eObkSADAoi8mWxZEb0qL7mmU1xKjRtx96hm9dfOdlmFB8wCAKy9VPxc+ywMA4Biy+i8hAAD3ubuTLD2E/mFzKAD43DeKNGFzsuWRU1jybgDAnNSP5/S8xWSQ6P7fnFvudK/X652vf6Fxj7+7XFKzu4/9c9C2wk6IZ7rkrJFDyy1wHQAPjC0c7CDgAYDRgBYDuA6YAT4fdkMgvPPatlbc7ICz43986qPztnSmV21b+mFrzJ+TZY/9Sq4rxzYs3Meu/XBZ6D1XxlkufJFt+t9FgT298n76I+kJ6ed9V32YLH/w6YlBrk7x9mf4fWqn+Ltfxefrd5xho1KW0+lacld/z/4YiHp479kyYLuLMVsBWEE3ywHYO8C++zU/kw4eUcv8pj727AP0TYzv/IWhwX25KrgL7nJpfkll/telnFOIbNpTn30AXKM+Su29hdeC1A8XDEgtZPAYkJ3fJ55E9moPu1QDTTg2LLr7M5t90HRm3/ZdNYyTe+TK+UGOD25PiHXq753fJ0tPO7+EECtEtzwghFgpij9CiJWi+COEWKm+xd8LgmH9VMcAGNTFE0Ieub7F3yaXKYM0RCz/5/dxV0EIeYL07cIX/yGif4yc2U+lEELIQOpx9sfj8Wxs6MggIeSp1Vv88fl8Md++2nhjIAsihJCB0X388Xg8Ho9na2sb5zD2D43/ogQkhDx9uv+rDwBms7mjo8NgMGy8WZTRWt5gauu2GSGEDFI9xh/uJKDRaDQajSaTqaOjYyArI4SQftVb/AEw32vAyiKEkP72gPizoOAjhDx9Hir+CCHk6UNX9hFCrBTFHyHESlH8EUKs1P8Dbj3aNO/OrtwAAAAASUVORK5CYII=;" parent="1" vertex="1">
          <mxGeometry x="369" y="380" width="426" height="61" as="geometry" />
        </mxCell>
        <mxCell id="CwLyMrU-MZQjoY-OAHLn-7" value="" style="shape=image;verticalLabelPosition=bottom;labelBackgroundColor=default;verticalAlign=top;aspect=fixed;imageAspect=0;image=data:image/png,iVBORw0KGgoAAAANSUhEUgAAAiwAAAA4CAIAAABRzTQaAAAACXBIWXMAAA7EAAAOxAGVKw4bAAAX0klEQVR4nO3dfVRTZ54H8C9ecpUQk4FkKsnKy8Ql2NNgT4rFQXRD7YSjFnUqtgOtyCwdLB1QK60OHTpV27Jl1EKrOIJsXSkzhekKHpxYPaTjwNHIimBmNG0Bj1kw3QROkzDEEPQmIfsHbwF5sRaJrc/n+Ifc+9zn/u5zyfPL89wnwcftdoMgCIIgvGGWtwMgCIIgHl4kCREEQRBeQ5IQQRAE4TUkCREEQRBeQ5IQQRAE4TW+d1+UrKMjCIIgptddJSH3aPc7JoIgCOIhMXUScrvd/f39TqfT6XS6XK7+/v4ZCIsgCIJ4GPhMPrIZyEAMw/hdKca1avRZZiwygiAI4gdviiTU39/vcDhm//0PsHyJqExwRDMWGUEQBPGDN9nquIEnQE6nE9eqSQYiCIIgpt0US7TdbrfL5UKfhWQggiAIYtpNnYTISgSCIAjiPvkWnxMaYf4Klz6AuW26g7n/+BI8+Sr4j3o7DoIgCAK4x29M+J5mIADmNlz6wNtBEARBEIPuKQl9TzPQgO918ARBED8s5LvjCIIgCK8hSYggCILwGpKECIIgCK8hSYggCILwGpKECIJ44LVUbdyhGvnmyqbytW+pbZMe0Xzozdxz4+0wtda32KchpO66bdtq2qehoocdSUITMKgyfr4zv8kx+GNT+drVGc8V6+7q2L7G3J9nLMs63T4tkbj0pS9v2XhMPy2VTStr9Y6MZWsKldYJ9o9pw7vk0uYnZSxbnbFsdcaynLqRfuda1cY1g9s3lnu0hlW9bU3GMs8e6h64Wgs2ZSx7sbzZNUmZ6bgRF0pWrM74znfT0VC4c8UOlXFki0lVmLc2ccuy1VvG73lnIEJXa8GLQzdudcay1Rkr92vHFNEW71y2Oju/CQAa9mcvW52x4sW8ParO7xbxt8No1dXa6UhCxDS5pw+rfhesRGx6eyT33fw7rryLL3WIq8WC6/hTGm4BAJ78CxYB9SrIXx6bKP++AZe+us9ROppP1LeFPpWzmHWfTzQ127nPqkwRWeuCvR3It3WvbUiFJGSmRXVry0ob2z23i6Iztwebv1Lln/JOPn6AbkSXuvI85K/FCoe3dFyqOKtnFiUWb44UPeKlqChe5NOxjMV44azOwhUrlgj5UsEkxaNe+u0fV2lK36lSHb+YvGKdhLqHU3aWbfuoXRoCU4+xE/HbXl4vdjQfKylscgiDQoQMAIDRV79fofwGdJ9DuO6lXUuNRRXaVpepQJCR/YSxrLCmwQYw7KiUtPTF7OF6bV+cfu/IZTPNYqiQ1O1Jcj/1jt9qhT/uMS/alLf4+p7fq4w8gTCMfdvFB8BcU713pNGI8Qo/G3QPV/WwmfEkBLcD8L1xuPvyl/D98ZyoV9kx76DrRYcLLLgdbgz0WP0u9yyA6TluP9Hc757N+un+uUFf3lQedjgxq+/6j+53jN2NlWftMVvkYQCs6m3Db5BP7l12EvCP3leZFkMBBk3RoRrlF50MSxAZt3Z7enQY3VmWtbt0YLykq9m4ugaUIGnfu1kLgT69srSi7Jze6GAJw2WpryQliFntFXlpp1lRAaarvSEJS1B7qnW2LOnALo/OBZ3KE9q5K7LiAwBAW7wz46Qz5pnomxfVbb28yDUpeb+M4AC2ppr3yi81f91jYxA4P2LNS5vSF/uq9vxmz0VeUsHA2TV7NpWo/OI+LIlQJpd0PCZlrt/gLF0S1qau7eKv/+3OLBlr3Ajhai3YVFhNSRMeNdVdNEMY/druFMW8gUgGRkCt+UkZ+YA07d3iDYLx2xAA7NrjlUWntG0mBy0Ijnlh0y5FEFydysKPK690GrrtmCOQLF2VkxkbRnOly6Ol3XblmCTkHxyzIhgsTcG4SYgx/2V/XsX5Tnq+bPOOlIRQFro0BQdqGq6bjb3gBATFrE1+bYOYAwCwXKx5v1zd8HUf5vAi4xJ3ZcgCPWoyni3ZWqi5Gb5q/zvrpP7j3wjArj1RWXRCo+1GYKg0cXNy6iIuALi0+S8WKSlZUpy9vlZndLDkmbvzFGgo/ajgjM4cEJG61DNou/Z4ZdFJTVs3aJE4ITllc5yAnrAS7vBh2pOfX30ktnjJSKcJm/2mCyJppDR0qNfzuJthi2IzMxNj5gEArlVtzFYZFsWl0i0Vmk6GJd68f2dSqHU6IgxSpKUorOpt9TqLSLZ5u2Lw17i3tez35RVXeuiFcWt4I1XTAYKwAFmkqKre1HdznDt6V2bDbAvbsi+daztX8u9/1iakmkobhDkHk6SUvjRLbQbQ3YPFycWKYNqq3pFd16xISlao2pCWHcfVFh9sW76leAUXprptvzvdJkscSoSdVYcvh2Xn5olhURW9XK6NeQUwmvg7crNDHQ2FRbaEncUrubazJS9cBtBZcVgb+XruLhFsdSUZn2hjNg8Xvteresh4ZzrOffsrf+Nf/fUVLq3GPUvsCqDHL9dv4HxznvPNedYtwG1imc5zvjnP6WPud3htNapmQWzqcjYAzInYtDUl51kxDXBkipztKTmZcREUwOiK3iqpvOKMUCgSHsXVU0d3lLYy4MpTUnIyYyUUIJClb03J2ZoYLwJgr//gYP6ZzrlLVme/EM3Xq/N3Vzb0AgBjstKySJFJW9nEXrOUb2xS13eNRMI0qT7pCE58NsKjgewNmp64lMT4R3qaP/2oqMkBwKTTdXAiEjcm5aRFi0zassKaZoYds0LGgan+nA4Ao9E09EK4PDqKBoB2m0D+KLRn1MbHYyOhV9a1ThIhAJh0xnmKLEUQ06E+ckIHICwuOWdrokIEUEEJ6Sk521NSn/ToYMa0IWA8UbT1aGMbJU54/mcJMrbxumlgs7bFEb5ckbU1JVUKraoy/5TpHu/ZNbWyOyRexrfpGgs+rDMCMOm0FkHMusSczLUxfp2qso8rrg2UrNn63un6LnbMMz9LflpMG26YPKbgLBfKdxzQ3Fy4bn+eZwYaeyMsZ46+XtrYzpUlPSsTdGlK93xUbfAIpluj1AoSfpmUszFW4g/buYo9J1qN/sHxMqhOaYd/fY2nSl4/2miYF7s5bXUcS1f5flFZy4SVjLA2VtTao9Y/NXro4ACAkS32+kMH88/oZ0vjUlcEWTWq3N01bR6XyWjUKlq2OTMl65kI/qzpjnAUR/Ox8tImE0JlcbyWqgtjpm5pmgImmQKdxMDFUnzpQi4ATlgIv7PToNcbgsUSGqCCpRI/AODy6Laa3LdKcg+o2212j77DpG0zt1UXZ+zYm/F7tbm/x3hraE/vjbbekCdCASBw4QK+Xm8Ai+aGSOcD6Okw+EokXACcx8Q/oYDeG9oOo7Jwb8aOva+fNMJqMo8UJu7KzI+EBsyZPXsOWGJa/JhP/9cOC0MJxy/nS/kAPg4fAKB8fVgz8LfFezUVZ8yRKYrBFzktiFII0KQ7ckI3O1iWoBAPFruiVhoQuDJpX6aUdsnwq73VdeqG9DT5ktiwPlZDqbqNGyJfGRs2UNiqUV60IliR/ZI8jHJK7C0Zn2pq/5GUCoAOinsutrVebQiPTl2OqnM6kxWYN3hY7YlGLE1LGPUN5qyYX6QkKdiMv67u3cbmJj0Wi8PWZP3xeRZcDoaRzb7SqG26ca0LUYuj4wIalRc02rTgm+e1NiooMU4MaACIHo9NFBnLmhwxK2OhVV3tttsmiDBmCQCAK01KjY0xWKvP6Nu7TAzEnIWyhIVW5q9Vqi6e9OnYBC5GGdOG0CtrdQwlzno7K8nzWihp9kEZ7QcwDluwSdV0uv1aJzDZHM6EBNE5u1KiKP3cX+eVXdM2WxUJ4WuLD7NogGEcUX0aVamu7bod4ezmWnU7w5Jv3Zm3wmMkMdAPWhvff99hC4j9cPcqqZ9n7WNuhKm2VmujxNm/S1s/D5Z5PRsOtSrrO9cnD41C6Iisd1KG26ShsNUGtiI9K2c5uz0wb+iBVmd9bauNEmdlrU0IACMyXdijrq3TpS8Uj1vJsPZTqgZO9AG5xw6Xve3SdTNYYYKhjb3a2vNWBK966811EsohufWb3LpLtS3rJI8NHRK+et8bq4Zfcw3HpzPCUVydl6+YQEds3p22PsAqyc3N13ju9uMHstDS0tBij3qMPVEdAODnS/c5rcDAmJWx2UGzaQAYmuztx7hvTo2nKiqxrvjtCA6j2fOrUecGxZVn7cxaOGn8I4VZswevaOiMLtwGMAv0nIXp+Wkxw+8AehtHChN3wTtJaFb4XoQDgE+/lWne6/wG9zIhfH8YT6vq6eh9KyZ/bcHW3cMAYaIgGgAlCJsHmHrMvcC4g7puq9kF6FUZL6qGt1lMfSMFqKF/wMiLqUVV+QV/zT4ZZ1RdLH4AGwAdyJtL4abNDjjazpYXHNdou4aWAFCOmw7AT5qwVKA8panTiG2X7ZgvV4QP9bazQFMswAHKFxQYl2OKCP3YcwFQvhOMWMca24auHnM3wBWGzxtdztRaduD4X650WoYumWbszARNOAVBkIgGwA+bx4LBbrPBpv/8vcN/a+iwMkNvtBnGCTgspj5Q/LCw8bo8l4OZw4Kptb7NHiXzKDDmRrisJiswRyAUAEBgsJCDVpOlBxhKQv5C4cjIwGHrdYDih4WwAYjmC2joB9rE0A24dEWvZBcNFaVNPSOXP6qSIX3aSmWnZMPL0uE26jidllXT5gJn0br0ZUMx9/SYXaDnCUQUAFaokAuYjRbHcJdN/ziIP1LptEY4lt1sA/yFoVwAXKHIDxqnx15WzC/WxmirKndkVwavOvqHiZ8MzY98wvFxdZM8ezEbffrqM/rIlSk0rHB1alusCObarl+/+S+xIhFEen0bEy2FrrmlD4tx02rni/gcwHJRo2UccQO/DP1OIEi6wFlwSY+FwejWlJ1hJSZLB++vf4iEq9J2IEoMyxfXbQviRBheyMALFfVUt1kh5lq+aG13BcMvRCL4rOGKI0bGsl1RVVhk6U9O2SbEKN5JQu72D7ovatz9t13//NLX5QyYPcd5+xbA9fEHbgOYDQ4P+Np9a8qapltfa8VJvSRhU5Tf6O0UMBDaEE4AjwYMBjMDAe0yGbqAOTy+/0jhUQK4cylgftyul2SBQ3vnBnOhuqPkCLvquNq0KDExfOz2dr0JiwU2g9HsAp/DRrf6UGmjliVO2r46Zh5LW15UOjRnIo2XhZ1R1X5Uw1ghWb8kbJKzTRQhjJMcNGjMdMo4bcjjBwBfG691IcpjJNT854/LmqzC5Yl5ihBOtzq/sNE8pmbGcXvMloHY7lxwZzIbXBBSVsM3DoDN4XRWvVNT38GNSUlb/xiPuXA89+TAu3tWYIAfXOb2djvEd+Qh/+hdH0prs49WHzoZfzBpaDB0x42guAIu0GUydgMCWAxGGxAW6DEbOeoXgMXxZ8FlN1qA0MH3LgBA8fhcwCpO3bnuieGGCgymx69kkFH1WS1kefEeg8X58rwCccPx8oJzqoqmn+1aygIAHo9PgekyGVyQUI4OoxXg8QM9VohQnpl+OiO8A5vPAUw9lluAv8PS3TcydgEAx1WlqqGbK8/YlCoLCZukQkq8+beKgqK9zxU7AT9JfNobcWzACorPaT+e+5bJaOEl75DRwfbUxUX52/byg4ShwTy4HJKn4+j/KMpoEoQtiU1+tKrsqHb/8gXM/uJc/4y8F1Lk+z9O28GiXeyoFzZ5vNULSnwl+r2ivdto3KYWZG6X0mgcbquY51Yr8wvS6nihEkEEBcYVlJwVu6dob8YnLFAhydsFwN2toSWGeCkJOXSc7ks+AEX5zPL1AW6j439cj2+glr2JrzSYq/D5V4Hb+JF7xhdSWuo/UzLSXSvvWNPC43IptDepyk5J+f7CpXHiwEWxCSJ1pao8l34y1HCpugvCldExAy9Qisf3B76+XHmcK+WxJUtkEm5kwmJ288XGqnN+cQvYty3mtiumyO0RP50klI76iiZ2/K7owDv2aD8p2dMVYjynZcCNkgUDNwDATxDxWMhPui9W6j166PBYxXxVaUcnKHH8skkX6kwQoSRgkmP85vJYcOlVf67DAhZfEh0Tyhq/DalgxdPiiqO6I28VGeQL5nZfb6biijOlswGAxZ+/IHIB+2r5DaPnGIgrFHIBnfrIp+yoAJZwUXTUwCgqKEhEof1cTek8mZDmSeXSsIHy3erCd1k/9WtRdoBeKI3iopYCKLYwXBwh6Kz6amQRcGT8kjCVqv7w3j3Xl4TBeLmdn/72OunAPprFmRed9YK6obguvyL6aJqYHv9GCOTxEcdaWo/sPmp+As21rYyfOEE+YfNGLo7gqDR15ZXSbl7DieEeKij+aXFZqa72lIZeHDT7lrm9reX28u1RkzzNZnRVJ/VhK5NjPMcfFFsYHrH+Gemxc3VGQ8/gZKa/NH4pt77u87ffc8q5N/5yzo5QecLE807TFGGn6ljdVdON/3UBXZojB8x8aVzWiqAnFnHLTmnLjtRhga6syTE6CfV16K0IiF3/jHTK1XF0aGzOvtg7NrMi1qYljYyw2THpO2NGFYjbVxI3+N+1svUAID36X4kDF5j6dm7qeOfiLFTkFSg8NkTn/Wf04H9D4/IOD1WYBgAIV+R9OEFh4i5463NCPjTlw6J8ZvkM/uz7f3utZ487Zycgbi+kMpfu8D9PH6Nn4AmQJ5e+6oROFL9afudUnDg2faVY2KMtPVSef6iu1QXQ4s270pIW4eqZ09VfIfKZlH3pQ3MkVMT6lGgJt1N5tDz/QFWtAQBXsX17jiLYdvHzotKTFSqtOXBBOO+Os4xwNFT/rV0sT5bdub6ZLV+10HKhse2WIOr5TZuXsBAQm5kWLXFp9ryc+8sjenqe5yFB8U+LAdCPRcdP8adxv22EAFjyDWvlwb5XT1XmF5aXXeqZpA3DNmTs+6VMwrRWf/pZlaZHuEAAQPqLTUkyXvunezdsLlLe4gk9uyEqIvWlWIm/WXWsPL+wvHr4q8/FT2WuFQut2rJD5fkHVJeHl06IYxV+V5UXOhEanb0tToigxM3r5CKrcs+bL+R+ZggcmXyiFybue2OVXGCvP1lT9lfdbVGIaHT3J3xmQ6qY1X6youwaJroRwpUv70+TiayashMag0CW/mbG+ombl7M8+Y21YlpXV3DsqlA2ssZE+GzWgbRofldj2dHKI9UXtTZhpGiy5eyW858peyKSE8ZbI05hNsD0D890seVbtuQogm//o67srJ4rU+TtnmwN9PRE6Oq5qqqrPquzAOjWqc7UKS+bAFZUykvpMp7pbNXBv7KekI15aTGMC6C8/0EIwot83O4Je3q32+10Ont7e3/037F48W8jO/701Hc4o7u7x3WbpoL8fMbscDr6rbf6b/cDPqB9Z831m0UPFblld1qcPoFcas53OPEIz2vxYKsr2XDQnlWyPeGeHo1Pp666bb8+Gfjau7uWjpoyGliinfB2Qc7iu63JpipaW9gatTVv38opnnJNiweoDafFBDfCC1z6sqy9yse3/ylDPM4zM13Nxm2nrfKXP3l9zBPEB1uvNv+VIiWtOFqSeE+fEyJ+CGZ+Os4ngDf+SX1ZswJZ44/M5rB9p3gfPx1MCEnOlMY/AL2nrZv1xC9S4pd8p46P0Wvrr1yvO65luNEJy2ciA+FBasNpMS03YnpY7XP/bW2OYrwMBGB+pEL8eenZkpVnWfI3DuYtn+Hg7kXD/uwdZ+0AS/K8bLKnQcQP3cyPhB4AE4yEHnzfaiRkPJ733FE9zQ1O2Lole+kMJSHCi2wmk6nXyX0kKNBv6sJex5g6Db2+XAEv0J9Mxz3USBIiCIIgvIZ8gSlBEAThNSQJEQRBEF5DkhBBEAThNfeUhPiS6Q5jBn2vgycIgvhhuack9OSr39eunC/Bk696OwiCIAhi0D19Toj/KFaWTHckBEEQxENnipGQj4/PrFnkuRFBEARxX0ydhCiKgl8gbIbJSxIEQRDEtzVZEvLx8fHx8fH19UX4ejQfInmIIAiCmF6TfWMCALfb3d/fzzCM35ViXKtGn2XGIiMIgiB+8KZIQhjKQ06n0+l0ulyu/v7+mYmMIAiC+MGbOgkBcI82A2ERBEEQD4O7SkIDSPohCIIgpte3SEIEQRAEMb3IZ4AIgiAIryFJiCAIgvAakoQIgiAIryFJiCAIgvAakoQIgiAIryFJiCAIgvAakoQIgiAIr/l/C6DHqa8wmfwAAAAASUVORK5CYII=;" parent="1" vertex="1">
          <mxGeometry x="353" y="570" width="556" height="56" as="geometry" />
        </mxCell>
        <mxCell id="76ib0m7jjXTHwsctD9vv-2" value="" style="shape=image;verticalLabelPosition=bottom;labelBackgroundColor=default;verticalAlign=top;aspect=fixed;imageAspect=0;image=data:image/png,iVBORw0KGgoAAAANSUhEUgAAAT0AAAA1CAYAAAAzvzxEAAAAAXNSR0IArs4c6QAAAARnQU1BAACxjwv8YQUAAAAJcEhZcwAADsMAAA7DAcdvqGQAAAyaSURBVHhe7Z0PVFRVHse/MIAosgrbwqkGd8VK96R1PNIR2A5Um7akZoAS0aHc7I9u5aIRnuSkp1y2haiIanW37FgUKqHFiv9Q22BboBPWFrsbtIGrjNbYLkPpmDvDDHv/vDf/GHAGBIeZ38dznffuvXPfvW/e+97f/d37HkF9DBAEQQQI/URP3SUtJAjCH7GJHv9Qg9VqtW0TBEH4E0L0uLjxYLFY0NvbKz554OLH4WkEQRD+gBA9Lm5c5Ewmkwgnvw3C16dD0WshsSMIwr8IYoInRI+L3blz51DfEY6u7mBMi9EgJIREjyAI/0KIHh/ScsH76JgGX30bgtvmhCrJBEEQ/kWw6s/j1t4/TgYj8aoQJYkgCML/COb/qaJnMAIxkUEigSAIwh8RosfhwkcQBOHvBFkslj6z2Qyj0YiX6idgddo4JcmZHmMfvjxlgdmiRBCDEqoBrojRYHIEWc4E4Ut4JHqdp6yoOWJW9ghvWDwnFPExNoOaIIiLjEd3Y9MXvcoW4S107gjCt/BI9E6dJn/fUKFzRxC+BY27CIIIKEj0CIIIKEj0CIIIKEj0CIIIKEj0CIIIKEj0CIIIKEj0CIIIKEj0fJ2217Hi1gxklTYrERLjZzV4Yc1KrKvoVGKGghFtO8uw7pf52D6cYrzEuH8DFrA2PVqlV2IaUML2eZwMq0a8Pl3b8pHOjnVvcTM7C0Qg4ZuiNzMM69PDncKauRolUTJz7rh+eewhDPNErhA84DZdCWmhmCny+SpG1FXUoAuTsWhhohIn6f74MOra9DgzrGeh9fhbXQM+1ZuU/dGgHbsqWwHNLNyyIFaJ81PqS7DgwUr2+40EsqMoqVd2vYJ/14uOZUTbMfr4nOjNu4GJ0ZX9qzXxslCsv8H+rr8+62BPOljZP45F+RyAPgt8+nmJk/tw4BP2OTsHGTNk1JinaR92/weIW5SD+RFKHFJQsHcX9uwtRW6cEjXCxN1ZinfYMV9bmwhbNcYU8pwVpCq7hMd49MKB5/f9T9kaYbiFJwTPgtb643jjSxk9++YpyPkxt/Ss+PyICW8fB66+LgyZ2mCcPvYNnjp0Rma0MQHjoycxO+8cznUbIF+VEI285ZNwOUyo33ICtTwqNBIRkRNHXPkHenPN+Wh5PhcbDpow/4kd+HWSjGvcmIGiJrntyrSsUpQvixfbhpZKlL1cgxa9bH1E7CxkPLQa2QmT2R7v6cvg3kjQIvelcmTLYmD8pBIl5Wo5oYiKT8L96/KQehkbIm5dhRVVEZj/ix68v58NVeOXIG/uxyjb1glTVAoK/5iHZCdF0aOWDck3tcXjvldLkc7KcKYT2x/MR0WXcx1UBm8Tw9KDxleK8cbBdnR9L6NsJOVhzxMpSp11SiRDibejnJu596Aw6i/4/XudMDBDOOInN6Pgd79Cwg+UbJ7ALaRKLTb/IQcDablzfRJRuLcAycqe/XzIvdSsJdBVNSNZnBtZT6zlwse3qzElS4sKli5xLUvF+bdPFd9nG7yubKgvcTj/TvH2Mp3r7fh7KXVhnUljcTU6eFTcEnYOtNhmO67733e08ClLb94PZXVOtOqx45tLERktwxeNetQz6+BE69d466jIYkcTactnD1zwOOEIt8WFQ77kKRghatwoCN6QMR7CgfeMTEiWIlsRPE8xflCCR9ZX28SBY9S3omL9I9j0oRLhCZ+9gkcLHcsxw9DJLuo1JWi0OcLaUccEjw+QTZ3VKOGCx6MNDTjwvou3rG0/atuYgNy0xI3gDY4nbTLsLkbRn9oRdsvTwop757nFmMYTrr4HbzoJmwd8+DqK9kvB4xj/fQivbm+XOxcIKRxaJiTcyt2FzVk6FN3Kzq2S3riRCR6YYIj0UkxpUkTELTpUNDGBVfLmxjWjaGODkuYItxBZpyWEx1HwdGKf12PPWiaeDyvD39QCtp8ohctR8JoSlWOp+e31FnWpBB4T6exYXdVYwYVQKb8wiaW/5a5uo4MP3fMaTBrPP004+nk0whxceMHh0Th84ChedonnRGpd/HQ8OAyDxyr6PfvRaAGSF6bB0fOV/IS8cDazXp3DrTtx4bEgrbwe/HlXMww8LZPd/LtZ2rubUHgTt4aMqD3Me23X4aS8AWQ5ag9sRN2OfcKPc20uGwqKcp5GNs//XTM+aOF5JNMyS1H10CyxHcUspyp+kzAM36gTFZKW2r1u/ZPnx5M2MRT/Zuj4gQesccvKZTuVOg5G3LwCvMmOVbViutjv0ju3Z3g0YBuzlFLX2q2xuGV5Qqy2b+Vq04APmIjlrlWtxHhk5wxe59Qce96fJbHrQ6fzwA/HrMnKZnYd5dktLyZ0AwsTrzcc6sUQ+dV6S+x1ScH1vNNOWmIrPzmFtcOjuo0MPiR6qkc+BNGie+ZosDRNCtlTd03Fb7P6T2i4xTrG33RqYRfQDnYBXZKGzHneepza0PEv/jkHmbnTZScRFovk6xSnoMXTSQs9upl1zfm0Ih/pizKw4PbHsb3flapF8o3xiJgo63lNSop7H9nJamx7j1lp1ywdgn/SszZFpaYgIYyJ07uPipnZ9Mf2wjQjDYVrFyNK5PCGRNy9OhFR7FgRk7z/9nnp1DF7SIspNuXgxGOK7Mvs6Y5DwDittFwvKDocZ7+pdqrjgdih2LHcIurFBPFhx9n2gV0uKtMGKu8i4EOi14vus/wzGFETRQTDAte32Pe5CBr36T225ahz2O/q0BlbGA/uQx1rwoyFt2HGeTT+jMEgh5M2tIgVN9IR7Kxoh4mfLpMe9Q2tPNImTs6cgaHbPmyURENmDUXCcmbJvatagjJ460BvY1ZeGytr/uK0IUwceNamtl1vo8U0HXe++Jqs5+4d2Pzc/Ui+RCQTFwzHkYE9qP5kX8eHRC8EdcrSiUunj8PSKXyrF5VvSyGrPDaA9ebOpzchXEkci3i4pEMRQ/3BImHV8N52lRheaHHjz+VwrGPn44qFthIlTUb2HS0yFs8RaRJmFolyelC7/g6l11aXMkzGjRnM0oEZLVvykXW7vVdf4OB38gjjIezc3cMs11txizv/JPcpiXJVp73dkvCmTWeM3IfYjlfvy1XKY2HRHVi1cR86xOXDJwaUeNU531Sm5PWyTcMlXstaJa0sO504rs4NqOn2ESMzYXWD+PSGirQ2dUcdD8QOxY7lFrf1Hlv4lB8/5O8GMWEBBOGnc/iwdiJ+c/dUPLN8qjJ7a8GxLuc3Ebv16aWrojkGcbukoz9xOXlYOTsWEW4swdjMp1D+QCJmRCh/v1jDZ11TUPDisy4zZlpkr74HCbHu/85xxPUFeHb1zbh2gHRPsfknc5ZgqCtvPGlTwmJl4sIRixkdTa/gmS0XdhJi+KTgziwt6ovtYtu1tYyJfiKyhcXEfWFM/IvV9XHS93bhkb7Cjqoy+7o91gkVcX/iXe4mf/rXW87YDnXN4OjjW0tWGL1nv8L311yOZ2YxK8QBuTTFjHGT5GSGumTFPVb88yMTqp06qyDcx8TwMmY9/vWdXhxWYkcDz5esnG9JxxjEcgSb7ipCrTkFT1blIcGNSF8YWrEpewNqv2NC/kI5cq/kcWboq9bj3q1M8JiA71nn7QTKMHFa7uGAWMIhHf3eL1nRIVvkkUtP7EtW1G2Z1zbDOsByGXXpk22Zk1Nd+fDVcUmJLL/eId516ZRt6YtTvUSSyLs9zr6cShzrPEt5RhKfEz2B+VucPi0cfDY0E36ECeH2WVnruW4Yzw5Ur3E2cbSjrtlT1/CNHh6LHn/kbE0Num8qQFX+KN+gIwR/5CyrvBUzlm3Cs1kj+QQGE9dMJq7fx7Mb80l2YzIzmfv9ivPZMBhYuKECK+cqWccqnZVY9bAqesRQ8U3R8zM8t/SI4WBqq0HZSzVoOdYDI/fh8SHwj+cgc/lDSJ/t/fTJxcW9xVQE18XUhLeQ6I0CJHrEkHAdHvd7eoQYCiR6owCJHkH4Dj41e0sQBDHSkOgRBBFQkOgRBBFQkOgRBBFQeCR6MZHypUyE99C5IwjfwiPRS7pq7L+q6WJB544gfAuPlqxweox9+PKUBeYBnvsnnAnVAFfEaDA5giw9gvAlbKJ39uxZvPj+eFpTRhCEXyOGt0FBQQgOpjkNgiD8n2AueKroRbGh2KnTPv33wQiCIIaFMO+44IWEhGDm5VY0f+H8vjqCIAh/IqiPYbVaYbFYYDKZcLhNg2P/DcK0GA0TQrL6CILwL4ToMcADF77e3l7oDH040RMMixUiniAIwl8Qosc3VOHjgVt+6jZBEIQ/YRM9FXWXBI8gCH+kn+gRBEH4M7Q4jyCIAAL4Pw0TBkZKv3mqAAAAAElFTkSuQmCC;" vertex="1" parent="1">
          <mxGeometry x="370" y="-86" width="239.25" height="40" as="geometry" />
        </mxCell>
        <mxCell id="76ib0m7jjXTHwsctD9vv-9" style="edgeStyle=orthogonalEdgeStyle;rounded=0;orthogonalLoop=1;jettySize=auto;html=1;exitX=0.5;exitY=1;exitDx=0;exitDy=0;entryX=0.5;entryY=0;entryDx=0;entryDy=0;fontStyle=1;fontSize=15;" edge="1" parent="1" source="76ib0m7jjXTHwsctD9vv-3" target="Psk-8NPpbo2hVI2kaLZC-2">
          <mxGeometry relative="1" as="geometry" />
        </mxCell>
        <mxCell id="76ib0m7jjXTHwsctD9vv-23" value="1" style="edgeLabel;html=1;align=center;verticalAlign=middle;resizable=0;points=[];arcSize=15;fontSize=15;fontStyle=1" vertex="1" connectable="0" parent="76ib0m7jjXTHwsctD9vv-9">
          <mxGeometry x="0.34" relative="1" as="geometry">
            <mxPoint x="-1" y="9" as="offset" />
          </mxGeometry>
        </mxCell>
        <mxCell id="76ib0m7jjXTHwsctD9vv-10" style="edgeStyle=orthogonalEdgeStyle;rounded=0;orthogonalLoop=1;jettySize=auto;html=1;exitX=0.5;exitY=1;exitDx=0;exitDy=0;entryX=0;entryY=0.5;entryDx=0;entryDy=0;" edge="1" parent="1" source="76ib0m7jjXTHwsctD9vv-3" target="76ib0m7jjXTHwsctD9vv-8">
          <mxGeometry relative="1" as="geometry" />
        </mxCell>
        <mxCell id="76ib0m7jjXTHwsctD9vv-14" value="Opcional" style="edgeLabel;html=1;align=center;verticalAlign=middle;resizable=0;points=[];" vertex="1" connectable="0" parent="76ib0m7jjXTHwsctD9vv-10">
          <mxGeometry x="0.12" y="2" relative="1" as="geometry">
            <mxPoint x="18" y="2" as="offset" />
          </mxGeometry>
        </mxCell>
        <mxCell id="76ib0m7jjXTHwsctD9vv-3" value="Fazer Login" style="rounded=1;whiteSpace=wrap;html=1;" vertex="1" parent="1">
          <mxGeometry x="220" y="-101" width="120" height="70" as="geometry" />
        </mxCell>
        <mxCell id="76ib0m7jjXTHwsctD9vv-6" value="&lt;font style=&quot;font-size: 13px;&quot;&gt;Opcional&lt;/font&gt;" style="text;html=1;strokeColor=none;fillColor=none;align=center;verticalAlign=middle;whiteSpace=wrap;rounded=0;fontSize=11;" vertex="1" parent="1">
          <mxGeometry x="90" y="-81" width="60" height="30" as="geometry" />
        </mxCell>
        <mxCell id="76ib0m7jjXTHwsctD9vv-7" value="" style="shape=image;verticalLabelPosition=bottom;labelBackgroundColor=default;verticalAlign=top;aspect=fixed;imageAspect=0;image=data:image/png,iVBORw0KGgoAAAANSUhEUgAAAh0AAAA+CAYAAACPx6lWAAAAAXNSR0IArs4c6QAAAARnQU1BAACxjwv8YQUAAAAJcEhZcwAADsMAAA7DAcdvqGQAABRRSURBVHhe7d0LcBR1ngfwbyBENiDHY2UTqUuOMiqHJVskVrJ6JAeE8kCimF2CD6Bkc4QD15KUGldQoIiy1BrWIxYqCxihAF/ohnhgAidkN6G4C2fCKcdDCMUmV0gOTMSYRMwD7v/qmZ5nZpLJIPL9FF3p+XdPT/e/e/r/+z96iLgigIiIiKiP9TN/iYiIiPoUgw4iIiIKCwYdREREFBYMOoiIiCgsGHQQERFRWPh8esVK5sMtREREFAoeQYd8aU2XL192zBMRERH1hkvQYQUYXV1d6OzsVH/lJIMPazkRERFRT7gEHTK4kEFGe3u7mjpOfYHLtSdxWcwTERER9YYj6JB/ZNAhg41Lly7hu61F6Dj6P4hOTEJEVJRamYiIiKinXIIO2aUiA462XTvR9cUJjHzyKbUSERERUW85HpmVQYfV2vHdX/Zj6IxfmSVEREREvefyOx1W0NHZcA5R8fEmlYiIiKj3PH4czPS2EBEREYWUY0yHbOHo6OhAa2srmrIfxd8VbVcruOs834DW6mpcab9kUsifiKiBGJSUhMiRMSaFiIjo+hRU0NH22WGcL1xjXlEwRi5+BtE/H29eERERXX+C+r9XLu7cYeYoWMw7IiK63gUVdLTX1Zk5ChbzjoiIrndBBR1EREREPcWgg4iIiMKCQQcRERGFBYMOIiIiCgsGHURERBQWDDqIiIgoLBh0EP3YdF3AvrX5mPnIfEye+ToqTTL1tXpsWyzzfCFm5m1BVbNJJiIHBh3XipPvY97M+Xjg1RqToLUc3YuCpUvw9Lv1JqUn2nCsZCOefjwf286YpDBo+WSNuEHPxxPFF0xKmJ2vwhv5onBeW2USriE+rgfp2NbVWHWgHk0dJuFquWby1woWvEwv+9n3A6/7WKcTTWcqsaRgL5pMChFpfR503PjcO0jYWeY5vbUMN5p1JJ/rqek1/FSuNHEZRsvXbu+1C2g7yMHfel1uJrH9m9d4SbcmP5/fN9pQ+u5ecWscggenJpo0rem/K1F68gK+7TIJPfIVavZX4fD5cJZSp/H+jhNA/zGYfu9NJi3MTlZjx+eicG43r68Zvq8HWYDWHJZV7FjMefFV7P/gcaTqBeF3zeZvT8VhTuEm7P/jY0gfIl4er8VRvSBo9duXeQZAaloW1orBD4tncLhge28qW3Z626sOmJc/MOp6WFws9rL33Lfl81rzF3D3Qp8HHZd9/a+1w/4BP3MEAX7WU65Al6lXcNnlr6fgtuPLFXT620y37w+xhnLs/lz8HZeJWbfppGveof3Y2Shu09MyMW2QSaPABHI9jErElL+PNi/IPxMsfLAJmzNjVUpC5nL1ev+zKep1UEakIm2Mme+N5By9D7ZpcyZQlHcddpmdKcaCmfmoSDbnRU05iC/O77PC8brica0tR/bZjX2St0H9h29/zZ5t5gI36LdvI/bu4eg4+BL+K3+fSU3H7e+8gBHDxGzth6h9ZqOP9Sz98TcDI3HDxBcQnzsBA74+gHO/fgmtZqldQNsRIcO3lzrwnUpbhJ+XzcIgnMKXUxfgrzKpXyRuLfx33HQr0PrBJHy2Sa3oJJaPiOovthYcX/9zb3eqXnsSS8rbMe3Z9chL1mmVL8/HikN63p28YW6YHafmmw4Xo2DjHlSd71SvB48cg1k5CzBnvKyKVWHVzI1wzyUtFtkFL2LOaP2q5fNirFpvbScSw0cnYdHTOUiP0ZHyvOJoTJvSjH2fXABGT0de0hEUfFCP9qEpWFmYg1SXwOICSpYuQeHJOCxatxxZ9v+At+sCKrduwZvltahv1fsMJGKlqbHrzzrncoxWXqTnbsLzE2RKJ+o/eQsvv1uNYxetbTjzxdqGV/LLZxU0jUew7bW38f7RC2iR0erAm5Ay7VHkPXwnhvfXeXfqrlTE1lai6tshmJZ9P7BjO0ovRmLsw0uxbqbeP395p8gbat5uQOzfK7eW46l/rURtRyRikh/CK09PQozbhebtenCSNbZ8FGE6NhdmiuLUTTf565mXZntn7dfDjzd/vV1fDs0nsGP9+3hPtt7I/2Rbvk/ut/2YDJ2Pd+L59xYjPdgbhaD242yGl6BH5wsc50eQ3Txrnd1sznOn92PrqBykHdoozqFM0ecxfofz/uF6rK73BOcyfR3IQt+eL3r7Vprb/cRLvjhZ15V5KXjNc8X7Zyvq3NYgTV2bnnmj8vFQouO74HptWte0674498NXXpjtiPOzEhsd+SjzfW6dbftux+/9s+W8/JxqxGeeQ5FcPsrzu6uPI1aUnDXYZ/bTcZ7V+YfjOyy5H7ed+zLrWAK61kIgfGM6IiIxcuANZqrE2TcroRrzR/zMtavCZT1rkoFCkPxupx9udKT1M5kQgRusNBFQWBnTr5+1nm3qQcDRY62V+LiiTRTk92OuRwHjX8t/vI4Fq3Y7Ag6p5fwJFK16AYWfmoRAHN2OJ/Lt25F91uKCXCpqXI7I7zRKRcAhW9Lbz+zGKhlwyOSLVfj4gNh/u5PlKD4pAqC0DNeAQwYjy5Zgxa4TtgKxBz4V+7u+yqVADFprDQryClH0uSkQpUsXUFVciAXrj5gE8YX9VBSIF8VMVzNKN8oCUaZ24lhZJY7J2YDyTqsV6674gywQ5atONBzajjfK3fKum+uh/eR/okLelAYNwmCdZMP87TZ/fek6gsLcNXjjkAk4VJr568WIYap/BRXlfTya1FHgmBpqwXTUrXXtgqkt3qUKDrl8ZbIo2PJ0oKDWz01Uy3XLiS5k6kThqpaZlgTdhRGHtORY1B6qFiGApQoVoiBMu8dZQFufY9WUvXd/mEJeBEN6Xd3CVFu80XvX0ZlqcU1bn+NmdCY2fOCsHPkl8mpecawzr3JjTauRbOkS+ztKF+T2gMN7XhgikKu4x7n/+9bO14W3XF+ch4RDuxzH4yjoPT7bUiOCHvNeb5UF6WwN6qyWHnWeTXfQhCQVjFQ4uobqxXk5h/QsH9sJWIo450Bdnbdz2HPhCzpcRCC68v900DEsBgNUmjbg7uc8x1CsyTFLAxeq7fzkl27bENPo5yaZpX2vYW85KsXNLfWfRI3MpEmpz+qL16M5WEz6S9OMff9WowayJcxYgrL3xLJ3VmNlmrwZtqHkL7JmlILn1Xv0F05H33ob+x1f5DaUfliubjTjH15utrMEc+T6zeJCPyzX0RJmLMdHObpdebiI8j8SNzSp8auv1F9LVdl+sT0v4xE+/RhvimAEQ8Zg8e9fRZk5nqDHJXS0okX+HRKHGbMXY0PRerUdq5YSN/tFvV2zf6pGYn2WifabPtmDUllexN2LdVvksvV4OzdFfYmbKiqdN4uBojZb9Ayyhor5/iL/fm/y8uI3aAwi75STp1F3x2y8LdbbMEOf11NnXL/wvq4HfZOcj6lL96J2wBBMu28ChpslDszfbvPXlxaxvyVyf0elYvXr+ngdx+fF2ClTkTK0E5Xrn0Iox2HUb98lat6JSFM1T1F476gRBaXt/IlC+AXZBbPD1iyenOEolFPvkfuciLnmXOkC6xzqxP6pbYta9gvWMnl/sAUlceK9CaLgq7CO5UC1WF/si9i2eq84z84asSjIc6cDjoDGznRn2WrWattm3sPZc6gV96b4QAKLYEx4XJxH79d+d3mhiOVzzfHq/RfXZ5Y5ptFJSBsl8lW1SlRhazGQnWsLAsRnr0yuwVZbEJN+j3tLgxv7/ojzLCsd+w7K86yDAz0vqCDNukZ6J36UCAZF/ofSVQo6hAj1T/E7fELyO04jCCHajv9xIyHUJS7KD8VFOWISHpoUbP98rbzHCnfioYdvQZRsmhlwE1ITzVe7K9BBo1+hsVHPHX43H1Mfmo/Jj6zGNluzqCZqIhPiMHiQ3s/x4gvkWdMWGnZja4Wold5xv8d4hPraWlWYxaVlYsYt0YjSycG7ex7+kDkGce31KNkuas7ZCzF5zjIUlAf+lMzRWpV5SL3vlxiruoYiETNhHG6Vs/Ya7rhfIH1ING6U68SIL/otOlkLNO+M/mPwz7m6uT9hri643zZBnNKr64H5223++tH01Tfqb0LyJKSMjFTzfl1uRbvVItJToibtPrhP19StglIXarKG7bpON4WEKEjizaxdnSxcRt3sLBglsa4jGDAFacVBXVBWHqwR+ZGk1lfvdd/fvN3iLuSf7J4JdN1em5AhAtYarDD752/QaLd54ZWPwOjMl6gT50q2MNnzx1f3uE9u+yMDApz9UgXdKpg08ypIE+clqIpEGF29oGNijLjNCF83mLEVmhyLcXDqJNcpd4NZGrhQbUeO6XDfzmerys3SvtVSvh+l4sY1duq9GNtNf06LqPm5PiQQi1hZ48MRvPfuabTLG3nHBRENn5CJjuDAVSsaPZrMh+obvjhbKXOX46N3ZK3UOQXb13esbB+OiW1Nmz7JIyiJi9e1z/qKYpScbnM7Hle1IqJqQSfqSwvxRrVJdIjG+NnPYPO2TSgrWo6VGbdg+KVzKH1tE0pMIeXi22/QZC/oBPWFFio//hOOqWb6TjR8Ug1VeR44KMACO8i8i7kFd8iGKB/8Xw+61arsd/ci4XIzSv+0R9+AbILJ31PHxXXS1YzDmzd7KcR/nPnrl8nvhv+t08cix6Ps0d8lb6rK9uDwpUikLnxF7EuAzf/u7C1EsrleJCVkZngUJrJLwH7cavLonw8FexeLvWvFsO+vY/LekmAFGyvOTtddDub4vFKFvW6N6R3ngOGVsmVABWvhehrI3orsnKzWwV6TLVamFUoGg922mgRIBl8J5rsaKlct6PhpxgTVrdJxvNJ1QKi3sRgDerCbIdqOtzEdQyOtNpq+FOAjpdbNsLwQU00ErfsdYzHlH3W1sLZktakFLsGqQ23iPbGYdd+dapkmzoTaTjNKVolaq9qO9WUcgvT7EzFcFApVW/PxgPrBKWuy90kGoLUS78k29RGTMd3LeAQkT0bWCPG3+QQKf/uk43jsnxN3e4IOVo5uxwMzF2Lem0fQ4Fagyf5Tax+nZudjxa7T+vcS+g9A1EC1imYV3Mffx0yZP/I9ZrR23MRUjJfL6/fiicfksoV4dL3prsoQtV21VndCmHcBXg9Rt/0CabLfxS1PlADy947b9TVTv2cNJj/0FJ7eZcbm2Pz48leOMdDvs1oJauVTEV72t+XTLfpY/qUQRcd9jwdpV2NmxmHKlJ5GOW7k2AXVvJ9vq6GLmrWoWISqz91ec3aQtWYzKzm6WLY7u1Ykr+/1SQcsqhD2NX7Bzq2FxZXuVgz2UVfdPS276rxvN5C8CNjomxFvWqV6xW1/XFtjZBeLPJZikbfivISga0WfJ5EX8SEKjIywBR3uYyyGqrD2FJp+92fHvUnyOhZj5zuImWhWkIZNQKz7Om6/nRHQdgLgbUyH8/c++lCAj5TGZeVg8bibMNieiUbMjDxsmJeIsYNMc3B/ObJf1IgLVrjVvGIx5zezfDYbD777caz7jbjpBtKs7IdjPEJWBsaaNBeiQF1U8AwWJcdhuL3wsrsrC89PidXHK44nbtx0LBav/ZLr3ZYqjjvXNS/vnofVU8Rn2QcVWWLuxeoXZyF9tLMbYvDQOExb+CLWPRz4lzBUeReSR4wDyN/hGbPF9TREH/OAaIyd8BgW3aUW+fZjyN/uiP19PjcVCSbfokaMQfby2UjXL8NDjQOQNXSrQiBq7lkyELEPwNQBVE9+vyJudoaoLe/GS473igJ9bY1r64oJAIqKa1ya+z3fa4JTn78tYS+Exef47V6xxoe4DeRUAcdGNfZCj63QQZhjbINYvtXe1aR+zM0WjPoZoBpQXgQsBXPVQFN7INyDYEnsz1ZrfXEsK2TgZo0hEWQXS23xbuwLSdeKvI5E3rqM0wmNiHA9Muvh60qcfGQlOswTJT7XU5rwzdpHcQHmkVmT6sI8RotAtvNn81KZj1E7Z+In4pJvfPAJfG1ShxWUYYTqYPbGdd1ABf7IrJ9HSq9VcvR/TiFK2lOweksOUrwESeRLMNeDeTKgQf442Apk39bHhTF5aqxBwdLXUdrofBQ5WL4fYzTn96znY+QW+6Od6tFd5Di3IwveHbG2Ryll4bcL8S6Pb3p/TNRifZ790VzFPJrsCB5EMODtkU1FPXVjPeYrWz0yUJennxbx3eXgum+Sx/657IPIo1xghe14VX7YxlLYj8GRj7KbSOWX77xQ69ofSVWfew5zHedbn6e6LOf2fX+2/hx/j6bq6yER2SLwsB7t9cj/ALYjue+747jdeDv3odDnQUdXZwcaO738lJbbb134XE/ph8E3DEA0unDx+07vfdFmewhkOy69I9Zvdli/4aF93/E9vvHWRK24rhuogIMO+RPXS/eiKe1xfPSk7xHy1xL5k+cPrD+BsbNXY13mVfoF0mtVkNdD1asLsUQO1lV6XvBRsKyAwLz0V+gShZwMOqqR9gP/vvd50EFOgbd0EPVC8wlsW7vF/OgWg47wsYIOLz9QRtTXZOvRwaQ+GkQcOgw6wohBBxERhZZnl9sP2dV7ZJaIiIh6yXoU+Npo0WTQQURERGHBoIOIiIjCgkEHERERhQWDDiIiIgqLoIKOqHhv/00QBYJ5R0RE17uggo6hD2aZOQoW846IiK53Qf1Oh9R5vgGt1dW40uv/t/n6EBE1EIOSkhA5kr8SRERE1zePoKOtrQ2Nv36EP2RFREREIeXSvRIREYF+/Ti2lIiIiELPEWHIgMMKOiJjYtFeV2eWEBEREfWeS7OGCjgiIxE9MR0XSz40qURERES95xjTIclxHV1dXWhvb0fzWxvQfuRzRCcmISIqyqxBRERE1DMuQYeclZMMPDo7O/H9F8fRIaYrHR0qnYiIiKinXIIOyQo85CRbPqx5IiIiot7wCDosVjIDDiIiIgoFn0EHERERUSjxRzmIiIgoLBh0EBERUVgw6CAiIqKwYNBBREREYcGgg4iIiMIA+H+Ce/XNZ/CdywAAAABJRU5ErkJggg==;" vertex="1" parent="1">
          <mxGeometry x="519" width="436.29" height="50" as="geometry" />
        </mxCell>
        <mxCell id="76ib0m7jjXTHwsctD9vv-8" value="Deletar Conta" style="rounded=1;whiteSpace=wrap;html=1;" vertex="1" parent="1">
          <mxGeometry x="370" y="-10" width="120" height="70" as="geometry" />
        </mxCell>
      </root>
    </mxGraphModel>
  </diagram>
  <diagram id="5ygk3_MDXSrJhciQ9Ln5" name="Cozinheiro x Atendente">
    <mxGraphModel dx="2261" dy="807" grid="1" gridSize="10" guides="1" tooltips="1" connect="1" arrows="1" fold="1" page="1" pageScale="1" pageWidth="827" pageHeight="1169" math="0" shadow="0">
      <root>
        <mxCell id="0" />
        <mxCell id="1" parent="0" />
        <mxCell id="IqMeWsaYY_b0yfUTK7CS-1" style="edgeStyle=orthogonalEdgeStyle;rounded=0;orthogonalLoop=1;jettySize=auto;html=1;exitX=0.5;exitY=1;exitDx=0;exitDy=0;entryX=0.5;entryY=0;entryDx=0;entryDy=0;" edge="1" parent="1" source="IqMeWsaYY_b0yfUTK7CS-2" target="IqMeWsaYY_b0yfUTK7CS-10">
          <mxGeometry relative="1" as="geometry" />
        </mxCell>
        <mxCell id="IqMeWsaYY_b0yfUTK7CS-2" value="Cozinheiro x Atendente" style="rounded=1;whiteSpace=wrap;html=1;rotation=-90;" vertex="1" parent="1">
          <mxGeometry x="-122.5" y="250" width="205" height="60" as="geometry" />
        </mxCell>
        <mxCell id="IqMeWsaYY_b0yfUTK7CS-3" value="Atualiza Status Pedido" style="rounded=1;whiteSpace=wrap;html=1;" vertex="1" parent="1">
          <mxGeometry x="220" y="245" width="120" height="70" as="geometry" />
        </mxCell>
        <mxCell id="IqMeWsaYY_b0yfUTK7CS-6" style="edgeStyle=orthogonalEdgeStyle;rounded=0;orthogonalLoop=1;jettySize=auto;html=1;exitX=0.5;exitY=1;exitDx=0;exitDy=0;entryX=0;entryY=0.5;entryDx=0;entryDy=0;" edge="1" parent="1" source="IqMeWsaYY_b0yfUTK7CS-10" target="IqMeWsaYY_b0yfUTK7CS-3">
          <mxGeometry relative="1" as="geometry">
            <Array as="points">
              <mxPoint x="220" y="280" />
            </Array>
          </mxGeometry>
        </mxCell>
        <mxCell id="IqMeWsaYY_b0yfUTK7CS-10" value="Front-end" style="rounded=1;whiteSpace=wrap;html=1;rotation=-90;" vertex="1" parent="1">
          <mxGeometry x="50" y="250" width="120" height="60" as="geometry" />
        </mxCell>
        <mxCell id="4RHeaiyeoVGPrq-7ZNu6-1" value="" style="shape=image;verticalLabelPosition=bottom;labelBackgroundColor=default;verticalAlign=top;aspect=fixed;imageAspect=0;image=data:image/png,iVBORw0KGgoAAAANSUhEUgAAAh4AAAAzCAIAAABXDJbcAAAACXBIWXMAAA7EAAAOxAGVKw4bAAAXIklEQVR4nO3df1BTV9oH8C+EXCSEZCHpShiBbHwhdgzuRBQXwReWbhxLqW6BbqGKdOii9DXWYlvXlm7VXdmyarFr4wql9ZXSCt1X8IVGcUjrwriRFcHsq7EFnGZBWsDZBJYYguTn+weEH5Ig1Shiz2f4Q24OJ8+559773HPOTfSw2+0gCIIgCPfxnO0ACIIgiEcNSS0EQRCEm5HUQhAEQbiZl6sXyBoMQRAEcXecpBb7ZA8+JoIgCGJOuz212O12m81msVgsFovVarXZbLMSFkEQBDF3eUwcl4zkFZPJ5HO5CNeqMNQ3i5ERBEEQc9Sk1GKz2cxms/c//oy+rxC5BcygWYyMIAiCmKPGnxAbWVmxWCy4VkXyCkEQBHHXJj18bLfbrVYrhvpIXiEIgiDu2u2phazbEwRBEPfI5edaxum+xsX3oGu//8G4Gyccy18B5/HZjoMgCOKHZQafxp+jeQWArh0X35vtIAiCIH5wZpBa5mheGTGngycIgpibyHeIEQRBEG5GUgtBEAThZiS1EARBEG5GUgtBEAThZiS1EATxKLKqC9YXK4Ycvw415a0/2mid9k/OFT97uM3ZC9rG812mew+pv37btuqOe69nLiCpBQDQrcj55Y6CZvPor81laxNzni3SzOhvh5ryfpkTK63tcEsk1q6SzVs3HOu6p0rOFyck5txrJTA3HtyR8LqiZ3yLVnEwf23K1tjErXnn7q3uu47Q2la4Pic2cfxnzQH1bUXURTtiE7cXNANA44HtsYk5Cevz9yh6XdQ4tZnOfL9e1le9nhP79EG5fkal7+SeOqL92O7YxK17zs/sre71YNZX7cyJTdy6rUYPAJrqDU/n5JzQ3mVlUxgUsoTEnIRn38opUj3Qr87tV1edve6G1PJDMoOPTN4Lego2/m48f938By7vxVcaxNdh4Tf4NAu3AADLP8cSoEGBuM23J7t/pOLi1/c3SJhbTja0h/585zL6fX6jOzOcO12pFUrXBc92IMANZcXfEPdqDG9sS+fF8rNdpiUpRZsign48S1HR2BFPxJj6es6f1fSxBJIVPI6IO03xyBff/ORJVcnvKxUnLqQnrAunTSkxtZkPm4ezI6ZjbqlTdqx9ku/uepmxG4+G9zTIZCWnFPWp4uTpet4lddFbJQYxz6bVfTfATMraJeH2nSt785Pr3vO5In8jKABGdflR2d+NgBkLE//wcvD5oi9a1F57jrHzk+nlB6sbDYCJEZmRlb2MMVat4WrtOx9c0lF0Ey0kMzctzkf5+ptq3mMDuiUb85d9s+ePih42l8dnDFs5AEzXFO980NQDZ4WfCXTT3ppl9zm1wG4GvK4f6b/0Fbwemxf5CiP697ix3mwFHXazHSPXcpvV7gmYBk4YT7bY7N70nx3wC/zqpvyI2QLPoW9+dJ9DRH9TxVlj9NY4PgC9ctv6spaRUXPNvtgawDdqf0VWNA3oVskOV8uv9pro3Ij4tbnZUXyqt1S6u2RkbKOp3pBYDRo3bf9e6SJgqEteUl56rqvHTOeFiTNfSksS0DvK87Nq6ZH+2iuDIUkrUHeqzVucdmjXxItar/yk2i9Butp/5Fej+mSF7KRK3Y+AUFHKpvTMJSxgZKQvk9PEafHGhjpNj5ket2V3vgSNJR8VntHo/IWZKyc2z6g+USGrUbX3gwoSJKVnbIrnUi4rYY39mbrmiys/jilaMX7ywGC8aUWQKEIUGjheudMIr1Vu2K7oXhKfSbWWq3pNdMGmAzvSQvXuiDBQkpUh0Su3NWj6gsSbciWje2+wrfSPZeWXB6hF8U+zx6um/Ll8f3FEUGWDduims86f3Exzh6Li4GeqKzeMmMfiixLffiueT3PZy4bm6nfKLrZ8O2AwIWCB8OkXN2YvY6mLduSM3LOjrSAtpwAQZe0tSuV2lO3eUK6Le+P9/FVG+du/KVAFSovz0oIAfVvpoROVqq4+Kz2AG7w6WyqduM9n2BFOKzlfnLBXNXKvrdibowCoZRk1v4thWnvlBz+uuNzb3W/EPG74yid3bolxfTDrq3buKLwq3P5xbjJLXZAmk7MlRcUpIhoMrfXvHjndqNGbKAZngXjTmxmS+SM7nU51KuWtT0qpCSE721fTnBF9F6rfPaZs/FYPVmD0mtRXnxcF0AAfFj+UZXqcXdJqvDkI3FVqAQ3/hHD/jhRKW79t5xctcTGNn1yPfisvM9jccmjP5wCseh09amdhFJ+mrdhe/HlnXuYz4gpT4K4XRO1F+e2rthYlsKCt3/bb2nZxiuNmpbfyyCX+9rx8AfoUss1l6uiXgB4t5/W87aHmxoMyQ9KOojUsw9ni5y8B6C0/oo54LW9XEAz1xTnH1dGbxgrfVYseSvc7tQCAffhr354vAbvJO87O+5nNn3JeztbN/Nd3Nru37RZg19K1f/M2w5PmAY/7G157taKFG1O0igEA84QbX86QdCgLT2oosUQaHwg6T0gDTBrZ28UVN7iRayShN1TyU0dfB/vTLcFxGRkcraaqSNnuL85+XsShMcKDABgb3nu/4JwlPCExPWSgrqq+YDc4RzJ4gEmrpxIigv5XWdEclbmSU3pO2XAjJm3+aCSmZsXxzuDnfyMc2UF9Z46+VqKGICotHpdqm0r2GP3ez00e++LQfpVcHZP+QhRnqFfnC8O58j0n2wxcQZIYilPqscF7z6ni1462UYvjNz3D7vjydMW7Mu/A3dmLnFcyTt9UXmeM3PTzybf5ZgCYsGX6CE0qpWLVLzZt4eI7rZ+nuyOcxNxyrKykWcsMi4pnt1ae1wMTr84URQOcTrLf1kyt8uBh5RVejPRVkd9g75WrQwYAYLnoZWg1mk6mMGWDgAeN/Liy9GD10v/OEMan7+RrW05UKm4EJmVJRExwwtnO3ntUS9lHJecR/auMJD56NG3aQct0ETraC0zqCOeVhMe/kSvqOFdd2jwkeiotKRzeXCETAHrUreawVZJkPuvm+doSRUUBX1j0jMtmutBb+acKhVaQtiU9gjbQru66ecvxir94dZCqrlb9wrrx0k73FcfVGTFY+9o7te3+orRMoXersry8+E2fvKJURx719AJgmn7VZDpeQpGAAuAfEgZVz7+udw6FpAUBoEeIAr2/BmgsDq3t8J4mioJOOyQyjO1qrbpd164uyqkFYDbYeD23ED5yTA5ebx8MSQ4FgIBFCznyrm5wKFaIaAGAgc5ur/B1LADMxYKfVBkxeF3d2aM7uK8OgNUItlYHhqPwo+NBpBZgnrf3PNAFlGCxh+1bc5+J5mL2wYvmAXiYPQCA5uVBfwD/e/KgqvyMLiJDMnrqUtxICRfNmg9OaryDxUkSwWixy0p5NwLWpO3fIqKsYvx6X1W9sjE7K25FDH+I3liibGeFxK2J4Y8U1qvkF/QIlmx/MY5Ps4QbW3P+oqr7v7RMAFRg/LMxbQ3K7rCozFWoPKfR6oHR1KKvO9mElVlJo+eztq5ObaAJtv82K3k++uYPpB5ukzf0Jqc7TjBKKP19RpJjmNF4sM0AhiRbunMVoyMgf0PZyDJGb0Ndm4EmkErXJvnDFKQ9v0dZV6/JXiRwWsmYjlOKRmbUobgJL1iN7Re/0YHO545tvFOEYYn733hyrKsbT7gzwkmsvZcua0EJN+3OSvbXh+flFagmvuzDCaCjtbWx1Ri5eNKA4PZmWs3DVphuDejMdNGKX0ieGhlUM/hOexngPy395Fd0WM0mk9j7cpO6+fq1G4hcJE5apDd9Wam4wRY9EXOHyAFYLQBu6o14LCJpVQxz8pTdzDrCRSVcoUQibP9OUdo8xBPHJI2NFGmi7e+LKR/AZDYEaxXNtR3XegGRq2a6CNtssgFmo05vZq5YmimJH79hpLHjJOL6w8rG+PG5Haf7igPnZ4S6Xtluosc9l/bCSgbiGR2qsoZ6VUfq6AwbN4BNWTXq5i6DIJg5XYh0ijLevAX4AAAGjQYfht/kEiY4W25urS2oZ729PyOcMsrz/tAx8SUaK066Q7poyp84RaN7j+4rx0y7FcMAPEHNW5RdkBU91teDTeOFHxUPIrV4hu1DGAB42PSmln2Wf2HqjPds6alVNFBR+xPucAEw9A+YAH5QIAWAxuXPB7QDukHA6QCsX6+zAl2KnPWKsW192qHxAjTHD0aObgBAq6LiKufp/eLRs8Wq1+qBeVweFwACgnlMtGn7BgDH6erL443fxZsNg2bQOPwQBoCgBVwKXQBgHejuB6wa2UvbZY6ilHbANBb4pEochtQV8t7w1M2isdZ11mZJq9utYC5Zlx3ruDrfKULqsUDOeKVujfB2Rp0B8OWFsgCweEE+UE2896dHP7c2Wl1Z8fr2iuAnj/7ZseIytZnzY6RZmsLP1KUH1aWg85atzX9DEu7j6k3N7WfLCk+o1DccT3/QzDfNrgq7FPlcRlp3ZZWiMu9MJXyDk1/eun2V42icYUdMX8lU2rbSQyc+v9zb5zj2KJPR5OJYdokWnJL9ZHtRg+LYUcUxUMFR29/KSnIsEfqtiFl9VCY/N7Z4ead9NfmM0GkHAHPDobcaDjkK9A/orODTACDgiXXp9bLSY/lrygTSD3eMDfqnRhi9WFcq16zOEDBhbDmp1C1JDaehHZY2tca0RkRpv+kEbzWH10Epr3UjMtjYcun6sA9gMA4HCIMooFvV0AGeFaBGRr1c0UJL4cUuLApGv6r0DD0lXTR6tvqGhLMU6k5ECtB39RvDwvggGB1xsEODBqra9RCw+q62dViD4RMSzj3deNkcLaYbLivK+8TZy7/Xrp8bHsiEWMd7/RdUdtuw9d9feVkt/t7zLMO3AJaHLzAMwBtMNvCt/dYda3K3obbymq7wpI2Rt10+aMBIaA5MfzYFdHfrTOBSVm33DWAem+M7XngSf5YfDVgQv+tFcYDjVb9gFhRTSo4zKk4otUtSUsLGYmBxWcANbU8/wEVfd48B4AdMmFqZ9L50pi8dVmNPHxA6mggBgMbmsAC9IHPHuqVjbQwIppxXMqpHcboO4vzVE2ayF8TlFwoaT5QVnlOUN/9i10r6DCOccLVyZ4RTMDhMQDvQdwvwNff1DwETn8gwX5ErGvtZcTkbM8UhfEeFTpoJhuiZzUefMfd1auqPlxWeqyltjMlPYDgPo195uKRJTRek5SZGz6ery2QlrVPKTJ20sZoBi2lowmV1vlhaIJYOatWXGmSHFFWliqSVozP4M+2IaSuZquWzj0ub9bxVKfmSEGa/suBgk27sNZd72wwrYDJOzAcBy9bt/3CdSdvVoqh+p6xJdiIqKTdk9DVKmJTAyfpcRVkRPsN9NQHHnw0Yo1/ISgtzNJBiCx2xGS4oKluNfElG7jqhcLrlFkb0S1mdh8tzfj0EeDEXx7+dMzLV7BWEtnf2KHp6jfwNm0UUl7OBl7c3v5HLDQsKYVmBxTFJn3388s4mHl+ctI4lO1at/q1A1F358iH6gRcy4g58nPU6nbIyIp/fOGHMFJjyUtQ7sn3bKAzTFm7JFVFocrxEj342UV5QmFXPDg3nCmkwWQPTpTF7ZPtyjtNBC0nP5QIzexh1TnkgqcWsYfZf9ABoNA9PLw9gGJ1/t/40lRb7Fr5WwU/i8R9ce89HduOdq3KvvobTcpNo15opj2SwWSwaOpoVpadEHF/eynhBwJKYpCBlhaIsj1oe2n2x6gZ4a6KiR65/NDbHF/j2UsUJlojNCF8hDmdFJC1jtFxoqjznE7+QMdyna7+sjcgV/myaUDobypsZq3dFBYxv4satFh5rbftg91HdUrTUtZl8BElxLp8eiVgmZCpU9WUVon5248mxIzVw9ROC0hJN3SkVtSzQ+5auo711eFVu5DSrhSZNZU0Xf0169MSxAo3BCxMmPyU6dq6+p3vAsX46KxH2Ko7VX9Fe/6cVuKH64JCOI4qXJgQuXcIqPaUu/aAeCzWlzebJqWWos0sP/5jkp0TjV1unzdQ3FR5o4ywT8P3po1P5no56pvbyyHYfrnBxyE/6L1R0TbwJ9/Fj02HtUnxWj4V0TnhUdCidG8il0Hvl7BeKQW3VtfGi7X8pLh8QRIZx/W6ZYQPoXhTt+3aE60oAbgAD6G05U12l5/rNF0rEXG8AoHMWLIxYyLhSdr1n4njFycHsw+MyYO2qO6mkoGwZfwJXW3WgsiNEGMFjDw+bAVDUpAcsw1fHiCorJz0Y7nxfOSF6Yjn/TG1LXX0ohEGelu6OVrWPpGjx6KHVfb3HQAtMWRcTKZi+GsBXkLYjL23KZs7StbsSxqPlxWccjR/9txQAkLl/d+bohpi4XwGA6EPxyO+Zv8vLhBPMRZL8QsmEDVH5H0aN/jM0Pv+I4w2yAABhkvw/uSj8qHgway0eFG3SWrzXd/v+fRbMpUn0+HQMa62aIzcbjrHtD/ZDNtauypOaoNU74qbOHAhiste0yerVJYdV8I3av0oQTQk27cpCUY38TG0LnRvxVEZulmOWgiZMzohSH1fJj5bJady0/eJwFkuSmzv80YmK81/IzoLJYvMfjwmbbinX3Fj11w6BJF886eTkrdl8wFBWWKMqPYmAUHH2i+nJrpdVmavS37g68O6Z+sJjguRlQurM6Ce/eM9ID1krZGeaSo8aMY8VxF+UHDTdM9Z9fzstHxC+muTs6WcavAGTbXyuaRYitA5cUdRX9QMA+jWKMxqmSSRNCIzMeDG7u6z8bOX7HVHxYlbHhYkTYiaTFaBNqtN5M+lsDq7Ljzf1DJqpedzIpzKyV42llim9vChmS5am4DPVns2qAIE4Yj59wq0nPS51bVyXovFURYsVoixhdCiXGZu4qb73A9Xp9w1RkaHocBT282f0fKmQndIbrPSAUHH2Jgn/+3eEq0oABMQnZl6oqLxcW9gMallGtJgrem5jWneF/C/7Umu4kcs5PFrvhFHL1IOZHv3s2rjWmoZTlaZYkdBH0zJalOKwjVXyGnm/0URj8MWSLc8JgQkf5AlakbSkRq0yA4D/NPvKmbB1+9+A7LhSflxtACOAF7xyyoPG1MMzq04442G3j66V2+12i8UyODj4o/+Jwfq/jhf59Of3UL+9f8A6TNECfW5/zMtitulv2YZtgAcoL08/H0/KUeSW0dJn8Qhg0ebdwxuPm9iWCQz1xanvG6XFuUl39wijG92o3/ZfNQGv7t21knHnwveVtatUuk/+09xPcwROZt411Ru21erjNh9/TTzt8ulDZlBd8JJMTkmOFjvmiKZv5sPgkewI99Ar9u7ecyFQWrwjjfw36w+x+z1Q8PBne03NKwC86J4Bfl48theP5cVhjOcVAPMYXkHuyiuuaRGSviV19aznFcDQT1/6XMamFbOdVwDojX7/uXZnqosL7oIIiYDed7Z4zb1/Gv9BaTywPfZZmVxLD48Vj62y3KGZD4NHriPcwqCQJSTu2HPeyFws/pmr1Xvi4XC/Ry0PARejFuLuGLRa7aCF9ePAAJePTj1ETNre7kEvFpcd4Dv7X7XgXnOrI9xjUN+hNXr7snjch+A+jJjWg1lrIR4dTC6X+RAM9WaI4gby506038vc6gj38GXxfe/4QSHioUC+npIgCIJwM5JaCIIgCDcjqYUgCIJwsxmkFk74/Q/jvpnTwRMEQcxNM0gty1+ZqxdoTjiWvzLbQRAEQfzgzOAJMc7jWFN8/yMhCIIgHhGTRi0eHh6enmT1hSAIgrgnt6cWGo0GnwAYumcrIIIgCGKuG08tHh4eHh4eXl5eCEtGy2GSXQiCIIi7M/5FLwDsdrvNZjOZTD6Xi3CtCkN9sxgZQRAEMUdNSi1wZBeLxWKxWKxWq81mm63ICIIgiDnq9tQCwD7ZrIRFEARBzF1OUssIklQIgiCIu+MytRAEQRDE3SGfYiEIgiDcjKQWgiAIws1IaiEIgiDcjKQWgiAIws3+HybaVp3WHo7HAAAAAElFTkSuQmCC;" vertex="1" parent="1">
          <mxGeometry x="370" y="254.5" width="542" height="51" as="geometry" />
        </mxCell>
      </root>
    </mxGraphModel>
  </diagram>
  <diagram id="JSPADqHXF6YQt8ta6Ayt" name="Monitor">
    <mxGraphModel dx="1434" dy="807" grid="1" gridSize="10" guides="1" tooltips="1" connect="1" arrows="1" fold="1" page="1" pageScale="1" pageWidth="827" pageHeight="1169" math="0" shadow="0">
      <root>
        <mxCell id="0" />
        <mxCell id="1" parent="0" />
        <mxCell id="h138x9MWvchmpS0SVupq-5" value="Gerenciar Pedidos" style="rounded=1;whiteSpace=wrap;html=1;" vertex="1" parent="1">
          <mxGeometry x="220" y="245" width="120" height="70" as="geometry" />
        </mxCell>
        <mxCell id="h138x9MWvchmpS0SVupq-8" style="edgeStyle=orthogonalEdgeStyle;rounded=0;orthogonalLoop=1;jettySize=auto;html=1;exitX=0.5;exitY=1;exitDx=0;exitDy=0;entryX=0;entryY=0.5;entryDx=0;entryDy=0;" edge="1" parent="1" source="h138x9MWvchmpS0SVupq-10" target="h138x9MWvchmpS0SVupq-5">
          <mxGeometry relative="1" as="geometry">
            <Array as="points">
              <mxPoint x="190" y="280" />
              <mxPoint x="190" y="280" />
            </Array>
          </mxGeometry>
        </mxCell>
        <mxCell id="h138x9MWvchmpS0SVupq-10" value="Front-end" style="rounded=1;whiteSpace=wrap;html=1;rotation=-90;" vertex="1" parent="1">
          <mxGeometry x="50" y="250" width="120" height="60" as="geometry" />
        </mxCell>
        <mxCell id="O4B6Ndu7yMUf9Q7HVa_f-1" value="" style="shape=image;verticalLabelPosition=bottom;labelBackgroundColor=default;verticalAlign=top;aspect=fixed;imageAspect=0;image=data:image/png,iVBORw0KGgoAAAANSUhEUgAAAWwAAAA2CAIAAABsnzTLAAAACXBIWXMAAA7EAAAOxAGVKw4bAAARO0lEQVR4nO3dfVQTZ74H8G8SZoSdiMSjjqtJq+Eo8VRwN2a3gAfhlsQjpRdfDtVdq1eKV1BRt1SvlV6rrtrVpWVdwVd6RdpazooeeTmlWAldUk4Bz0asoecYbAl4k9LGehmgzKITktw/IAgKgiJQus/nL5w88/CbMPOdmWdeFLndbhAEQTwp8WgXQBDE2EZChCCIISEhQhDEkHg9+mMyYkIQxKP1GyLu3kayJoIgxpC+Q8Ttdrtcro6Ojo6ODqfT6XK5RrgsgiDGCtHDRxmdCSIIwvlaSt/g1XJvVAojCGJs6CNEXC6Xw+E4d0Niafb63VxMYUalMIIgxoYHr850joB0dHToG0iCEAQxsD4u8brdbqfT2XKPJAhBEAPrO0TISCpBEIM0wH0i3SwcPjShoWVYixkWMyZgTRCUstGugyB+pgZ7x+oYTRAADS340DTaRRDEz9dgQ2SMJkinMV08QfzEkWdnCIIYEhIiBEEMCQmR4dfOcxwvOAfZ2sFzzRzvGNaKBklobeY4frSrIH7qSIgMO9PpLWtXbTlzfXCtOf3BNfFr9+u54S1qMGz5b8SvjTtWOdj4I/5FkRDpobFwx5L4DOPgjgJa9bteWh6zvXA0t3bj8bVRy9efqB39TgbgMB6Oj91eaB9SJ7bcpOUxSw4Y2p9SUf2xXtiRlGPtMcF8eltaWR9rhbWi+tFLZM7cerDUAV6/b2O25XGzuDx1/dGax5xndAz2PpEhoqVYMQ8LJ4OlIdxDjRVZ12FzQvUr/DmgV0vOgg8o/EHRe/4OpBXg845hrdFhulhsefbFLRrq6fYbtDmrcPOgW8uiDnwc9XQLeFLyFScurngqPdn1+eUI2R7JPpXeRpxqXZrq4anO+sqLVcrn1axk5Cv6aRmREKHw6kK86O38ew1/ptn9y2ekv58l2S3B5n/A7XTChUvlLV94Tr0dDmkj2t6qAcb7JIX54JuWYzedcFO3OsYPb5GcIf+ztvlbozrjizfmpH9QbrI18QJkikDdus2rNX4A7KXH004bLAIbsjxQ6JzRWZW2PNU6V+34xsKELlTcLDXYp7z45qF4NcVfPvD7w9UAAL/ot7MS1Z3ta06t2VMkUevm3K64Yse08A17N4WzgLM2KyElvxEAMG/9+4eiuu6Pc9orTx8/W2q28mB8Wf+XknavCqBb9btWHTd17twKU2IKASZs97lkjQT2vJT1mbWqxbHsTX3lrWZqWsyeE3GqO1Wn0nOM39jtPBiZXLMkYUNsANN/J8Z31+wr5QGADk65uCNEAsBhOpK46xKiD2UlzgNa9fvWHDc+u+q99Fi2vb4kMzO33GJ30OyskBWb1uuUvYLYXFBoZrWpz3c9RsEZc06e1l+18tQkZejyhPiYmQwAOAx7V6cZ2fBYlb3UYOYgi3zjvWQ1LMUZ7+RUNkL+whL/HvdRC9bysyfPl3xlc0j8lM8vjd8Yo/LttxO6tSb3SHbRtXrOSckmKcMTdsU//xjPdJhPbMybnZ4ytyrjnXyrkxYEJjQhWWPJLvraKttfKH0rRtWZI0J90buZJT+AviuwS5K3LZb305/DWnQ049PbtEQQpkdt2apV3NXvS6lmJ3NN85I2TCo8+GEdzbKqiTwoALBePn7qY6sgEfBg4/hlwrmsL3hAwDNR25K1oxVnIxEijMKlHS/6srL1na99JGK4b7V8872X9EcfdH5JcLe0Sr9s9bQWUyKM51xuwC24gH96f8mJAInIC6LhLNJSUGiaFJka1rVuNdXV2sYHRq+ZzeJmyUf63L/kBGVvCmotzkjXm8FqXlDxpXpzjwNU24/s0jmW3Eul9LJI1eXCEkNNvFrNzF2yLTm47rP38x8eELlTa2fXxuuKTxXpz16MDN8YAIk8Im6T4k5N/unynsfSQsX76Xk10tC4bREywW42tvEA4B24Yuum8IbSU3m1lDomPlwOWuHfYx0yf1YujXk5cQm4BtAA7phvNE3RLIlSTnSYLn5kyD7Gzktf/Wy/nfhHJWyZazd+lFPZ/XcBpVqgkV3Sm67VY95M4Xr1DQHK4GAWfOXh/RnlDmXky4kKznCxOGMPZCc3abo30tbyvMttQQkvKjvLa7hwcP8Fs3eAbllA25XikhO723wzUiL8uho7bYbLsujl63U+zZZ2CrDlp71naKAUoVp/6yclDQANAGivObP3cNEdeciyuDlOU1Fe9h/bf3F8r1bWdycwfXD4bAU0KzfpZsBeV9PU9iTj1vayT6y/2ZG6koW9uqiOU8Ys0XxsCOlOEAAcB01C6qKZdKt+X3KxSbee7rOjO/pTBeNWHzkY5MMb391+pixk9wLgO7vsv9ISFfVZG+s0b6WtUDhMR7aWAOCKzxT7xb+7SUk7TEe3nS0LSbnfuCptHbMic5eGdlhKDRwP1vcJFuspGIkQ8R8P2tVhvjOBGicGAIr+sv4uJBJx97dP0d7jAAAuCG4AlEgMiAURABEl9hr+gRu+Kq/YrvqPpUpPSYqYXcdWUnA6BCGEvm4wG+ssdqhuXjULYKM37d4cKFynknYWd58Ss/O00dNtuUZBE6XFV4XmJp4HmGmB4dMCZTdz+ggRX/XSOK2msbnoUr3NfltAAA1GGaZVcg5D7xBxCIIDEPimNkmAJipM17lx0mzQIhbGm2fzaml5iG5RwAPds9Gv7V7XY+KsV1JPUDQgCI6g9kpDZq2ljsesfjuRPReme87GFfQMEdDPBQf56g3VNfa4mfZqMy+Rh4bK0aovudIMRcyGdVEKicO/vWbHuUrD9fWa0K6DEevH+VelCw94YsJS+rlZoEK27toSyWCR9LWNOVdLjHyE1pM5TPjmXYmeeWEvNN4ClC/vfCtWwQcKa1MNDgAQrunLGiFbtGrD8kAaanxdnXWt3Niq1fn21QkApwNAW8s/MVmtC9MyT7THlqnn49DbB39YqAkO1oXK4bz9YAtfGX3zo0PlNEVz1rYpgifxHtRQb1UEqnwAMHPmTj9VZ8OCcZSvv0oB3K2ztfsvnQaAUs2dTt8A6upvNJpPvlkDAO2gJ94GPI0lqtC5OafePGxeEBIaoVWNUoJgZELkrtsNiESUGACjRM5vxMAv4MapPNQBEHutXIyVnsYln+PodyNQVC/24oJKOnz3C579IRyWz46ePF9ltnt2WRJHmwM8zwsA+4wCAP2MnJXg/riaBLSYAgRIKEgguAZ6lZOPVApAQve9nvXAhMUlmrizZYWnrheekvgFxSanxAUOeCzOTu01/sB/XZB+/JOrt5q7rzQLwuPvjX0CQ9WMoeKq6U6A1dSMaVqNArA2NzkBa+GOVYXdDbk7POAHAO3V+R/blC/vUHmWs4njIJnIPsMAACtnJbA03W4CupZIIlNM67Hx8208QE+VswAYuWIy0AgAPNfMA/zl1LWXPS0lHNcE+PbVCRD0u6Sl373/SUn2wUvZYGZG/+GtxDA/PCZ6VmzqUa35WmVFQeqO6vWp6x5sYC/KzMeq1P2BjFCVtq5ycL06ur4YCdXfmkDPjtmzX3v/L87bPI39QranBzXUGK/oT27X6/60SzdKY04jESLWJqcgpuZNRU4L+Futr33rmKry2znb5e48nXF1XCpr+XtbZ1txy70Rf1SuvSa/wKJ8KSnIxzOF02dllpupgKXJL2tYyvzhgbNmAGAYhga4Jg7wA8eN0HUZWq5LTtNt5e3mytyj75VcyCmJOri0c3URA4DQ51y9dra2oqM5lQ1+mjXJLz7n56jIPlhYf//DR3TyICooNJApu2osrrTboVgWopQAE/2kEkARtW1dsMxzyCh9pmsTtZecNyB456L7a/dEmRTOJvu3PGYxsNvsTtATp0j7+4WMlAGEFo4HaCfHeR5fYGR+DCCNWJ+ok3u2PZp9xCbEBscfCo7n7ebq4qwjhUXZ+brQOOVjHo9Yyy5YZiwJD41SKfgdR+o5yOGEw3n/q+ZbeNn0KQzAXak0C47Q/i7HzJjpbzWb28OCfHjTV7flv5YDnoMab4WcLrU0IkjBm65ZBG/Af7a/tdrUqg3xdViKPqp7Lk432dNPa01+qUO3TB0+Q0Vbtxqt+DmHSLv13qfN1L/PxU4KFa1SKYP500TocLZ1jpOJRd5SPz/PnoNx4P9+GOQ6/XRwhgslwvxtUQ8Ng/lM8Z+rVHCf51u7dtr0vPkqutp0OfvstDAYiq0DXLTjLRWVdW2w2hwArEZ9yR1IZ4aEKPtp3lhj+Mou8GYOwA9mwyWKEbNBkYHstex9ZfT8IMVE2gEAEprqXvv9/KQSWI0FuUVqGaPQRAT0G8BiQCJlZ8/2n/xt0Q1br48e7qTdZiw3c67mujbAaTeV6NvE4xTqMNUkMOqQIJ+qq3nFAtilC2YCgK9Gp2FMVz4vKmdC/aVCk73uun3O64FKAEJtUYFFHpWg6XHgpIyMVBbmVGYeyGgIaLtSbHEyIS9o+i2bDdQoYDYXnrwg1XyfX8Z1nSHQvw4PZctL/qE3sOGqCQL3vdV8i139dkB/G5HlXGpeiypo9hTpXQdcAN3jO+yLYCvet64cAECpVu6L7qxlOn32LzuLJDSctOqVZFYC1Yz3st7Ipg7EdS6gMjKK/tPbO4xTFM9rl855/9zp6rg+f8sk7avLj2a8uYeWCJi+aksEg7uejyQB0WsUB/dvM05mlb9USp2ATPvqqpsZKSlFPoIwNWqLDug+gvRVsN/++b+TztO0gKkxW4IetUTDamQu8Xqf/LS57bfj/22WVwglFu666hr5Q9ecX3TQcwBAEvFbRHS35dxJJSLbiL1e3llfdNHMLjoU0vOUUqaNX2dO/1tVWkKVTBmsYilYAACTohKT6tNOG3JP3tYsVquul5sf1fPtitPHcxu7/mXKO24C2Fj//kJEuFGQcbi6Kz0by7OOlINWb1sQyE6YSP1vcW5FEyeAmaQMXxenm+SZRxm5enFNVtnVs0erwITtDgvQ9L1tyKMTVtUdKyjZu7FsUoBmBgv0yJGHO2mtzk3P9gwb1xcdOQ4wuv1hqkkAow4NoiqvOMCqQ2d1NvALf32f8D/Z+RUFWaVgfCcq5kQqJwAAV36+pCVww0sze9UyI3bPm8LJbL3hQi0lCwjfGLch8hFnFjOXvh5X9875qx9m2jQLNYp6Q+cJpI86cX8yk3neUJhtcFKMTD4nNETWfy4wMqm9ND+rqJl3UrJng1cnLFH02xZQxP61ILb3pBMpABCTkh7Tc6pu7wldr0WL2p3puTwfExwNAOpfAYB294me7SjF4uTUxT3rC0s5Hdb5Ixux6a8RXZPjO8tZtCl1UY/GdHdjv5DNB0MesSAj5cF3rHa+G5Hn+bWf+p3p8Y29WvjgnI/Hda+jvc3pENxuiMReIsrHy5sRi0Xuuz/ca+99cu7lO268VATA2Sa0/gifKbT3U7hydSam7+l8Wep/pvPxmX+8v2UST4WzPnfzzpKgfcc2Bgw47kOMaSN0sxnE47yYcQ//MpH3ZG/vfmaRSGlZvyfLT0sTlMuS5oeTBHnqWtuYsFe2LCIJ8vM3UiHyU6WIiH3UkS3xxGSB0asCR7sIYiSQZ2cIghgSEiIEQQwJCRGCIIaEhAhBEEMy2BCZMWFYyxheY7p4gviJG2yIrAkaq5ti5/87QxDEMBnsJV6lDHvCh7USgiDGpD6OREQikVhMxkoIghiUvkNEIpFMGIfb5EXfBEEM5MEQEYlEIpHIy8tLO6Pjb1+RHCEIYgAPPoAHwO12u1wuQRDO11L6Bq+WgV6vQxDEv7I+QgSeHOno6Ojo6HA6nS6X6+E2BEEQ6C9EALh7G+GyCIIYK/oNkU4kPgiCeLQBQoQgCOLRyP0gBEEMCQkRgiCGhIQIQRBDQkKEIIghISFCEMSQkBAhCGJISIgQBDEkJEQIghiS/wcd6yjeSA15NgAAAABJRU5ErkJggg==;" vertex="1" parent="1">
          <mxGeometry x="370" y="256" width="364" height="54" as="geometry" />
        </mxCell>
      </root>
    </mxGraphModel>
  </diagram>
</mxfile>
